<svg xmlns="http://www.w3.org/2000/svg" fill="none" class="absolute -left-[30vw] -top-[14vw] h-[24vw]" viewBox="0 0 643 484"><path fill="url(#paint0_radial_489_360)" d="M18 290c0-45.867 8.8-82 26.4-108.4 17.867-26.4 46.533-39.6 86-39.6s68 13.2 85.6 39.6c17.867 26.4 26.8 62.533 26.8 108.4 0 46.4-8.933 82.8-26.8 109.2-17.6 26.4-46.133 39.6-85.6 39.6-39.467 0-68.133-13.2-86-39.6C26.8 372.8 18 336.4 18 290m157.6 0c0-26.933-2.933-47.6-8.8-62-5.867-14.667-18-22-36.4-22s-30.533 7.333-36.4 22c-5.867 14.4-8.8 35.067-8.8 62 0 18.133 1.067 33.2 3.2 45.2 2.133 11.733 6.4 21.333 12.8 28.8 6.667 7.2 16.4 10.8 29.2 10.8s22.4-3.6 28.8-10.8c6.667-7.467 11.067-17.067 13.2-28.8 2.133-12 3.2-27.067 3.2-45.2m105.738-59.6c1.066-28.533 10.4-50.533 28-66 17.6-15.467 41.466-23.2 71.6-23.2 20 0 37.066 3.467 51.2 10.4 14.4 6.933 25.2 16.4 32.4 28.4 7.466 12 11.2 25.467 11.2 40.4 0 17.6-4.4 32-13.2 43.2-8.8 10.933-19.067 18.4-30.8 22.4v1.6c15.2 5.067 27.2 13.467 36 25.2 8.8 11.733 13.2 26.8 13.2 45.2 0 16.533-3.867 31.2-11.6 44-7.467 12.533-18.534 22.4-33.2 29.6-14.4 7.2-31.6 10.8-51.6 10.8-32 0-57.6-7.867-76.8-23.6-18.934-15.733-28.934-39.467-30-71.2h66.4c.266 11.733 3.6 21.067 10 28 6.4 6.667 15.733 10 28 10 10.4 0 18.4-2.933 24-8.8 5.866-6.133 8.8-14.133 8.8-24 0-12.8-4.134-22-12.4-27.6-8-5.867-20.934-8.8-38.801-8.8h-12.799v-55.6h12.799c13.601 0 24.534-2.267 32.801-6.8 8.533-4.8 12.8-13.2 12.8-25.2 0-9.6-2.667-17.067-8-22.4-5.334-5.333-12.667-8-22-8-10.134 0-17.734 3.067-22.8 9.2-4.8 6.133-7.6 13.733-8.4 22.8z"></path><defs><radialGradient id="paint0_radial_489_360" cx="0" cy="0" r="1" gradientTransform="rotate(169.486 122.927 181.993)scale(183.582 315.992)" gradientUnits="userSpaceOnUse"><stop stop-color="#425470" stop-opacity=".56"></stop><stop offset=".085" stop-color="#425470" stop-opacity=".56"></stop><stop offset="1" stop-color="#425470" stop-opacity="0"></stop></radialGradient></defs></svg>