<svg xmlns="http://www.w3.org/2000/svg" fill="none" class="w-full" viewBox="0 0 256 314"><path fill="#2F425E" d="M9.021 145.838c0-22.933 4.4-41 13.2-54.2 8.934-13.2 23.267-19.8 43-19.8 19.734 0 34 6.6 42.8 19.8 8.934 13.2 13.4 31.267 13.4 54.2 0 23.2-4.466 41.4-13.4 54.6-8.8 13.2-23.066 19.8-42.8 19.8-19.733 0-34.066-6.6-43-19.8-8.8-13.2-13.2-31.4-13.2-54.6m78.8 0c0-13.466-1.466-23.8-4.4-31-2.933-7.333-9-11-18.2-11s-15.266 3.667-18.2 11c-2.933 7.2-4.4 17.534-4.4 31 0 9.067.534 16.6 1.6 22.6 1.067 5.867 3.2 10.667 6.4 14.4 3.334 3.6 8.2 5.4 14.6 5.4s11.2-1.8 14.4-5.4c3.334-3.733 5.534-8.533 6.6-14.4 1.067-6 1.6-13.533 1.6-22.6m50.469 47.6c4.534-3.6 6.6-5.266 6.2-5 13.067-10.8 23.334-19.666 30.8-26.6 7.6-6.933 14-14.2 19.2-21.8 5.2-7.6 7.8-15 7.8-22.2 0-5.466-1.266-9.733-3.8-12.8-2.533-3.066-6.333-4.6-11.4-4.6-5.066 0-9.066 1.934-12 5.8-2.8 3.734-4.2 9.067-4.2 16h-33c.267-11.333 2.667-20.8 7.2-28.4 4.667-7.6 10.734-13.2 18.2-16.8 7.6-3.6 16-5.4 25.2-5.4 15.867 0 27.8 4.067 35.8 12.2 8.134 8.134 12.2 18.734 12.2 31.8 0 14.267-4.866 27.534-14.6 39.8-9.733 12.134-22.133 24-37.2 35.6h54v27.8h-100.4z"></path><path stroke="#2F425E" d="M15.674 33.383h226.442" stroke-width="33"></path></svg>