<svg xmlns="http://www.w3.org/2000/svg" width="187" height="29" fill="none" viewBox="0 0 187 29"><path stroke="#000" d="m18.778 20.5 7.11-6m0 0-7.11-6m7.11 6H1m8.889 6V22c0 1.194.562 2.338 1.562 3.182 1 .844 2.357 1.318 3.771 1.318h12.445c1.414 0 2.77-.474 3.77-1.318C32.439 24.338 33 23.194 33 22V7c0-1.193-.562-2.338-1.562-3.182-1-.844-2.357-1.318-3.771-1.318H15.222c-1.414 0-2.77.474-3.771 1.318-1 .844-1.562 1.989-1.562 3.182v1.5" stroke-linecap="round" stroke-linejoin="round" stroke-width="2"></path><path stroke="url(#paint0_radial_1090_625)" d="m18.778 20.5 7.11-6m0 0-7.11-6m7.11 6H1m8.889 6V22c0 1.194.562 2.338 1.562 3.182 1 .844 2.357 1.318 3.771 1.318h12.445c1.414 0 2.77-.474 3.77-1.318C32.439 24.338 33 23.194 33 22V7c0-1.193-.562-2.338-1.562-3.182-1-.844-2.357-1.318-3.771-1.318H15.222c-1.414 0-2.77.474-3.771 1.318-1 .844-1.562 1.989-1.562 3.182v1.5" stroke-linecap="round" stroke-linejoin="round" stroke-width="2"></path><path fill="#3566DF" d="M57.015 7.595c1.408 0 2.644.275 3.707.826a5.81 5.81 0 0 1 2.477 2.362c.59 1.011.884 2.19.884 3.534 0 1.344-.295 2.522-.884 3.533-.576.999-1.402 1.774-2.477 2.324-1.063.55-2.299.826-3.707.826H52.33V7.595zm-.096 11.12c1.409 0 2.497-.384 3.265-1.153.768-.768 1.152-1.85 1.152-3.245 0-1.396-.384-2.484-1.152-3.265-.768-.794-1.856-1.191-3.265-1.191h-1.901v8.854zm19.317-.27h-5.34L70.014 21H67.19l4.82-13.424h3.131L79.961 21H77.12zm-.73-2.15-1.94-5.608-1.94 5.608zm12.806 4.84c-.934 0-1.78-.16-2.535-.48-.742-.32-1.331-.782-1.767-1.384-.435-.601-.659-1.312-.672-2.131h2.881c.038.55.23.986.576 1.306.359.32.845.48 1.46.48.627 0 1.12-.147 1.479-.442.358-.307.537-.704.537-1.19 0-.398-.121-.724-.365-.98a2.444 2.444 0 0 0-.922-.595c-.358-.154-.857-.32-1.497-.5-.871-.256-1.582-.505-2.132-.749a3.952 3.952 0 0 1-1.402-1.133c-.384-.512-.576-1.19-.576-2.036 0-.793.198-1.485.595-2.074.397-.589.954-1.037 1.67-1.344.718-.32 1.537-.48 2.46-.48 1.382 0 2.502.339 3.36 1.018.87.665 1.35 1.6 1.44 2.804h-2.957a1.496 1.496 0 0 0-.596-1.134c-.358-.307-.838-.46-1.44-.46-.525 0-.947.134-1.268.403-.307.269-.46.66-.46 1.171 0 .359.115.66.345.903.243.23.538.422.884.576.358.141.858.307 1.498.5.87.256 1.58.512 2.132.768.55.256 1.024.64 1.42 1.152.398.512.596 1.184.596 2.017 0 .716-.186 1.382-.557 1.997-.371.615-.915 1.107-1.632 1.479-.717.358-1.569.537-2.555.537m20.115-13.54V21h-2.688v-5.704h-5.743V21h-2.688V7.595h2.688v5.512h5.743V7.595zm12.173 6.53a3.01 3.01 0 0 1 1.863 1.133c.486.614.729 1.318.729 2.112 0 .717-.179 1.351-.537 1.901-.346.538-.852.96-1.518 1.268-.665.307-1.453.461-2.362.461h-5.781V7.595h5.531c.91 0 1.691.147 2.344.441.665.295 1.165.705 1.498 1.23a3.18 3.18 0 0 1 .518 1.786c0 .78-.211 1.434-.634 1.959-.409.525-.96.896-1.651 1.114m-4.917-1h2.458c.641 0 1.133-.14 1.479-.422.346-.294.519-.71.519-1.248s-.173-.954-.519-1.248c-.346-.295-.838-.442-1.479-.442h-2.458zm2.708 5.686c.653 0 1.159-.154 1.517-.461.372-.308.557-.743.557-1.306 0-.576-.192-1.025-.576-1.345-.384-.332-.903-.499-1.556-.499h-2.65v3.61zm15.087 2.323c-1.254 0-2.407-.294-3.457-.883a6.61 6.61 0 0 1-2.496-2.44c-.615-1.049-.922-2.233-.922-3.552 0-1.306.307-2.478.922-3.515a6.568 6.568 0 0 1 2.496-2.458c1.05-.589 2.203-.883 3.457-.883 1.268 0 2.42.294 3.457.883a6.439 6.439 0 0 1 2.478 2.458c.614 1.037.922 2.209.922 3.515 0 1.319-.308 2.503-.922 3.553a6.479 6.479 0 0 1-2.478 2.439c-1.05.589-2.202.883-3.457.883m0-2.4c.807 0 1.517-.18 2.132-.538a3.808 3.808 0 0 0 1.44-1.575c.346-.678.519-1.466.519-2.362 0-.896-.173-1.677-.519-2.343-.345-.679-.825-1.197-1.44-1.556-.615-.358-1.325-.537-2.132-.537-.806 0-1.523.179-2.151.537-.614.359-1.094.877-1.44 1.556-.346.666-.519 1.447-.519 2.343 0 .896.173 1.684.519 2.362a3.821 3.821 0 0 0 1.44 1.575c.628.358 1.345.538 2.151.538m18.997-.288h-5.339L146.253 21h-2.823l4.82-13.424h3.131L156.201 21h-2.842zm-.73-2.151-1.939-5.608-1.94 5.608zM166.837 21l-2.957-5.224h-1.268V21h-2.689V7.595h5.032c1.037 0 1.921.185 2.651.557.729.358 1.273.851 1.632 1.479.371.614.557 1.306.557 2.074 0 .883-.256 1.683-.768 2.4-.512.704-1.274 1.191-2.286 1.46L169.949 21zm-4.225-7.24h2.247c.73 0 1.274-.173 1.633-.519.358-.358.537-.851.537-1.479 0-.614-.179-1.088-.537-1.42-.359-.347-.903-.52-1.633-.52h-2.247zm16.221-6.165c1.409 0 2.644.275 3.707.826a5.806 5.806 0 0 1 2.477 2.362c.589 1.011.884 2.19.884 3.534 0 1.344-.295 2.522-.884 3.533-.576.999-1.401 1.774-2.477 2.324-1.063.55-2.298.826-3.707.826h-4.686V7.595zm-.096 11.12c1.409 0 2.497-.384 3.265-1.153.768-.768 1.153-1.85 1.153-3.245 0-1.396-.385-2.484-1.153-3.265-.768-.794-1.856-1.191-3.265-1.191h-1.901v8.854z"></path><path fill="url(#paint1_radial_1090_625)" d="M57.015 7.595c1.408 0 2.644.275 3.707.826a5.81 5.81 0 0 1 2.477 2.362c.59 1.011.884 2.19.884 3.534 0 1.344-.295 2.522-.884 3.533-.576.999-1.402 1.774-2.477 2.324-1.063.55-2.299.826-3.707.826H52.33V7.595zm-.096 11.12c1.409 0 2.497-.384 3.265-1.153.768-.768 1.152-1.85 1.152-3.245 0-1.396-.384-2.484-1.152-3.265-.768-.794-1.856-1.191-3.265-1.191h-1.901v8.854zm19.317-.27h-5.34L70.014 21H67.19l4.82-13.424h3.131L79.961 21H77.12zm-.73-2.15-1.94-5.608-1.94 5.608zm12.806 4.84c-.934 0-1.78-.16-2.535-.48-.742-.32-1.331-.782-1.767-1.384-.435-.601-.659-1.312-.672-2.131h2.881c.038.55.23.986.576 1.306.359.32.845.48 1.46.48.627 0 1.12-.147 1.479-.442.358-.307.537-.704.537-1.19 0-.398-.121-.724-.365-.98a2.444 2.444 0 0 0-.922-.595c-.358-.154-.857-.32-1.497-.5-.871-.256-1.582-.505-2.132-.749a3.952 3.952 0 0 1-1.402-1.133c-.384-.512-.576-1.19-.576-2.036 0-.793.198-1.485.595-2.074.397-.589.954-1.037 1.67-1.344.718-.32 1.537-.48 2.46-.48 1.382 0 2.502.339 3.36 1.018.87.665 1.35 1.6 1.44 2.804h-2.957a1.496 1.496 0 0 0-.596-1.134c-.358-.307-.838-.46-1.44-.46-.525 0-.947.134-1.268.403-.307.269-.46.66-.46 1.171 0 .359.115.66.345.903.243.23.538.422.884.576.358.141.858.307 1.498.5.87.256 1.58.512 2.132.768.55.256 1.024.64 1.42 1.152.398.512.596 1.184.596 2.017 0 .716-.186 1.382-.557 1.997-.371.615-.915 1.107-1.632 1.479-.717.358-1.569.537-2.555.537m20.115-13.54V21h-2.688v-5.704h-5.743V21h-2.688V7.595h2.688v5.512h5.743V7.595zm12.173 6.53a3.01 3.01 0 0 1 1.863 1.133c.486.614.729 1.318.729 2.112 0 .717-.179 1.351-.537 1.901-.346.538-.852.96-1.518 1.268-.665.307-1.453.461-2.362.461h-5.781V7.595h5.531c.91 0 1.691.147 2.344.441.665.295 1.165.705 1.498 1.23a3.18 3.18 0 0 1 .518 1.786c0 .78-.211 1.434-.634 1.959-.409.525-.96.896-1.651 1.114m-4.917-1h2.458c.641 0 1.133-.14 1.479-.422.346-.294.519-.71.519-1.248s-.173-.954-.519-1.248c-.346-.295-.838-.442-1.479-.442h-2.458zm2.708 5.686c.653 0 1.159-.154 1.517-.461.372-.308.557-.743.557-1.306 0-.576-.192-1.025-.576-1.345-.384-.332-.903-.499-1.556-.499h-2.65v3.61zm15.087 2.323c-1.254 0-2.407-.294-3.457-.883a6.61 6.61 0 0 1-2.496-2.44c-.615-1.049-.922-2.233-.922-3.552 0-1.306.307-2.478.922-3.515a6.568 6.568 0 0 1 2.496-2.458c1.05-.589 2.203-.883 3.457-.883 1.268 0 2.42.294 3.457.883a6.439 6.439 0 0 1 2.478 2.458c.614 1.037.922 2.209.922 3.515 0 1.319-.308 2.503-.922 3.553a6.479 6.479 0 0 1-2.478 2.439c-1.05.589-2.202.883-3.457.883m0-2.4c.807 0 1.517-.18 2.132-.538a3.808 3.808 0 0 0 1.44-1.575c.346-.678.519-1.466.519-2.362 0-.896-.173-1.677-.519-2.343-.345-.679-.825-1.197-1.44-1.556-.615-.358-1.325-.537-2.132-.537-.806 0-1.523.179-2.151.537-.614.359-1.094.877-1.44 1.556-.346.666-.519 1.447-.519 2.343 0 .896.173 1.684.519 2.362a3.821 3.821 0 0 0 1.44 1.575c.628.358 1.345.538 2.151.538m18.997-.288h-5.339L146.253 21h-2.823l4.82-13.424h3.131L156.201 21h-2.842zm-.73-2.151-1.939-5.608-1.94 5.608zM166.837 21l-2.957-5.224h-1.268V21h-2.689V7.595h5.032c1.037 0 1.921.185 2.651.557.729.358 1.273.851 1.632 1.479.371.614.557 1.306.557 2.074 0 .883-.256 1.683-.768 2.4-.512.704-1.274 1.191-2.286 1.46L169.949 21zm-4.225-7.24h2.247c.73 0 1.274-.173 1.633-.519.358-.358.537-.851.537-1.479 0-.614-.179-1.088-.537-1.42-.359-.347-.903-.52-1.633-.52h-2.247zm16.221-6.165c1.409 0 2.644.275 3.707.826a5.806 5.806 0 0 1 2.477 2.362c.589 1.011.884 2.19.884 3.534 0 1.344-.295 2.522-.884 3.533-.576.999-1.401 1.774-2.477 2.324-1.063.55-2.298.826-3.707.826h-4.686V7.595zm-.096 11.12c1.409 0 2.497-.384 3.265-1.153.768-.768 1.153-1.85 1.153-3.245 0-1.396-.385-2.484-1.153-3.265-.768-.794-1.856-1.191-3.265-1.191h-1.901v8.854z"></path><defs><radialGradient id="paint0_radial_1090_625" cx="0" cy="0" r="1" gradientTransform="matrix(28.50004 -16.50003 22.00001 38 4.181 23)" gradientUnits="userSpaceOnUse"><stop stop-color="#0A264F"></stop><stop offset="1" stop-color="#3563DD"></stop></radialGradient><radialGradient id="paint1_radial_1090_625" cx="0" cy="0" r="1" gradientTransform="matrix(-42.99989 37.0001 -57.12496 -66.3881 127.68 14)" gradientUnits="userSpaceOnUse"><stop stop-color="#518CFF"></stop><stop offset="1" stop-color="#0075FF" stop-opacity="0"></stop></radialGradient></defs></svg>