<svg xmlns="http://www.w3.org/2000/svg" fill="none" class="h-[5vw]" viewBox="0 0 121 107"><path fill="#fff" d="M47.916.494C30.202 3.064 13.723 15.86 7.228 32.083c-2.147 5.354-2.899 8.727-4.67 20.774C-1.253 79.145-.877 89.21 4.168 96.6c2.094 2.998 7.14 7.442 10.146 8.887 1.985.964 3.65 1.178 9.393 1.392 26.088.857 71.284-14.402 87.71-29.608 2.63-2.409 3.811-4.069 5.421-7.442 3.006-6.318 4.026-9.798 4.026-13.706 0-6.21-2.201-9.53-17.499-26.77-12.99-14.67-18.572-20.078-23.672-22.916-9.447-5.354-20.88-7.496-31.777-5.943m33.978 29.5c1.342 1.34.43 2.57-5.797 7.978-3.543 3.052-6.442 5.73-6.442 5.944 0 .642 2.738 1.23 5.905 1.23 1.986 0 3.167.269 3.596.804.322.428 1.074.803 1.61.803.537 0 .967.321.967.643 0 .374-.215.696-.483.642-.752-.053-1.396 1.285-1.074 2.302.376 1.232-.912 1.82-1.664.75-.912-1.232-3.328-1.606-4.294-.643-.644.643-.644.804.268 1.018.698.16.913.589.698 1.392-.16.642-.053 1.124.322 1.124.322 0 .59.375.59.803 0 .482-.482.803-1.127.803-.966 0-1.073.214-.751 1.446.215.857.161 1.338-.054 1.124-.16-.214-1.073.59-1.932 1.767-.966 1.339-2.523 2.624-4.08 3.266-2.147.964-2.844 1.071-5.206.536-2.63-.536-2.738-.536-4.563 1.231-2.308 2.195-4.133 2.945-7.3 2.945-5.744 0-11.917-5.247-9.233-7.924 1.074-1.071 2.255-.75 3.919.963 2.737 2.838 7.139 3.266 9.286.857 1.771-1.927 1.879-3.212.376-4.604-1.933-1.82-1.664-2.463 1.342-3.48 3.22-1.071 3.972-.75 3.596 1.66-.268 1.498-.054 1.98 1.074 2.89 3.006 2.356 7.353.643 7.944-3.105.483-3.052 1.235-4.39 2.308-4.39 1.986 0 1.074-1.606-1.073-1.928-4.134-.696-6.28-4.015-4.402-7.014 1.074-1.766 13.42-12.475 14.332-12.475.376 0 .966.268 1.342.643m.966 11.19c.43.75-.59 1.768-1.342 1.34-.59-.375-.215-1.928.483-1.928.269 0 .644.268.86.589m2.523.483c-.161.589 0 1.07.322 1.07s.59.375.59.857c0 .643-.322.803-1.127.59-1.234-.322-2.147 1.07-1.073 1.713.322.214.483.803.322 1.231-.43 1.124.644 1.767 1.61.964.913-.75 2.04-.16 1.664.856-.16.375-.053.857.215 1.018.859.535.59 1.874-.322 1.874-.644 0-.805-.322-.59-1.125.321-1.285-1.074-2.088-1.772-1.017-.215.375-.805.535-1.288.375-1.127-.429-1.664.535-.805 1.552.483.59.483.964.053 1.392-.805.803-1.664.054-1.342-1.178.161-.588 0-1.07-.322-1.07s-.59-.375-.59-.857c0-.642.322-.803 1.127-.589 1.235.321 2.147-1.07 1.074-1.713-.323-.214-.484-.803-.323-1.232.43-1.124-.644-1.767-1.663-.91-.591.482-.967.482-1.396.054-.805-.803-.054-1.66 1.18-1.339.645.16 1.074 0 1.074-.375 0-.374.43-.535 1.074-.374 1.288.32 1.986-.536 1.127-1.392-.859-.857-.698-1.446.43-1.446.751 0 .966.268.751 1.07m-4.992.803a.825.825 0 0 1-.805.803.825.825 0 0 1-.805-.803c0-.428.375-.803.805-.803.43 0 .805.375.805.803m8.374-.214c.537.91-.698 1.927-1.45 1.178-.644-.643-.214-1.767.59-1.767.27 0 .645.267.86.589m-10.521.963c0 .75-.966 1.232-1.61.857-.323-.214-.43-.589-.269-.857.43-.642 1.879-.642 1.879 0M92.2 44.345c0 .267-.268.642-.59.856-.752.429-1.772-.589-1.342-1.338.376-.589 1.932-.214 1.932.482m-2.845 1.124c-.322 1.285 1.127 2.088 1.825.964.322-.535.59-.589 1.074-.107.751.75.16 1.82-.805 1.445-.43-.16-.913-.053-1.128.268-.644 1.071-2.04.696-1.717-.535.322-1.285-1.127-2.088-1.825-.964-.322.535-.59.589-1.074.107-.751-.75-.16-1.82.805-1.446.43.161.913.054 1.127-.267.645-1.071 2.04-.696 1.718.535m22.652 3.266c.966 2.624.483 2.838-9.554 4.444-6.978 1.07-7.247 1.178-7.623 2.517-.43 1.66-.43 1.66 4.992 2.623 4.026.642 4.992 1.446 4.509 3.427-.429 1.66-1.825 1.713-9.5.428-4.349-.696-5.315-1.017-5.046-1.66.16-.482 0-1.017-.322-1.231-.86-.536-.161-2.142.805-1.767.43.16.912 0 1.127-.321.215-.322.805-.429 1.342-.268 1.18.375 1.986-.643 1.18-1.446-.429-.428-.804-.428-1.395.054-.912.75-2.04.321-1.879-.643.054-.374-.053-1.07-.268-1.552-.268-.59-.107-1.232.43-1.767.483-.482.858-1.339.858-1.928 0-1.177 1.074-1.338 2.094-.374.375.374.644.428.59.16-.268-1.178.054-1.499.698-.696.59.75 1.127.75 6.28-.107 8.213-1.392 10.146-1.338 10.682.107m-21.095 1.017c.537.91-.698 1.928-1.45 1.178-.644-.642-.214-1.767.591-1.767.268 0 .644.268.859.59m-51.37 1.874c2.577 2.142 2.308 4.498-.912 8.513-1.45 1.767-2.523 3.534-2.416 3.855.268.75-2.2 1.928-3.865 1.874-.59-.053-1.234.214-1.45.59-.268.481-.536.481-1.019 0-.751-.75-.161-1.821.859-1.446.644.267.751 0 .483-1.339-.268-1.178-.107-1.713.483-1.981.805-.268 5.744-6.21 5.744-6.853 0-.16-3.811-.321-8.481-.321-9.663 0-11.004-.375-9.877-2.892l.644-1.392h9.072c9.017 0 9.125 0 10.735 1.392m38.165 0c0 .75-1.127 1.018-1.771.375-.483-.482.697-1.82 1.288-1.445.268.16.483.642.483 1.07m8.16.643c-.108.642.106 1.178.375 1.178.322 0 .59.375.59.856 0 .643-.322.803-1.127.59-1.234-.322-2.147 1.07-1.073 1.713.322.214.483.803.322 1.231-.43 1.124.644 1.767 1.664.91.59-.482.966-.482 1.395-.053.805.803.054 1.66-1.18 1.338-.645-.16-1.074 0-1.074.375s-.43.535-1.074.375c-1.288-.321-1.986.535-1.127 1.392.859.856.698 1.445-.43 1.445-.75 0-.966-.267-.75-1.07.16-.59 0-1.071-.323-1.071-.322 0-.59-.375-.59-.857 0-.642.322-.803 1.127-.589 1.234.322 2.147-1.07 1.073-1.713-.322-.214-.483-.803-.322-1.231.43-1.125-.644-1.767-1.61-.964-.913.75-2.04.16-1.664-.857.16-.375.054-.856-.215-1.017-.859-.535-.59-1.874.322-1.874.644 0 .805.321.59 1.124-.321 1.285 1.074 2.088 1.772 1.018.215-.375.805-.536 1.288-.375 1.074.428 1.664-.536.86-1.5-.699-.856-.216-2.034.697-1.713.376.107.59.75.483 1.339m3.435.696c.536.91-.698 1.927-1.45 1.178-.644-.643-.215-1.767.59-1.767.27 0 .645.268.86.589m-10.736.535c.537.91-.698 1.928-1.45 1.178-.644-.642-.214-1.767.591-1.767.269 0 .644.268.859.59m11.38 2.463c-.108.59-.59.91-1.181.803-.59-.107-1.235.107-1.45.536-.322.535-.59.535-1.073.053-.752-.75-.161-1.82.805-1.445.43.16.913.053 1.127-.268.59-.964 1.986-.696 1.772.321m-10.79.75c-.322 1.285 1.128 2.088 1.825.963.323-.535.59-.588 1.074-.107.751.75.161 1.82-.805 1.446-.43-.16-.913-.054-1.127.268-.645 1.07-2.04.696-1.718-.536.322-1.285-1.127-2.088-1.825-.963-.322.535-.59.588-1.074.107-.751-.75-.16-1.82.805-1.446.43.16.913.054 1.128-.268.644-1.07 2.04-.696 1.717.536m-1.664 2.677c.161.321.108.803-.107 1.017-.644.642-2.04-.268-1.61-1.017.483-.75 1.234-.75 1.717 0m-50.457 1.606c.43.75-.59 1.767-1.342 1.339-.59-.375-.215-1.928.483-1.928.269 0 .644.268.86.589m2.523.482c-.161.589 0 1.07.322 1.07s.59.376.59.857c0 .643-.322.803-1.127.59-1.234-.322-2.147 1.07-1.073 1.713.322.214.483.803.322 1.231-.43 1.124.644 1.767 1.61.964.913-.75 2.04-.16 1.664.856-.16.375-.053.857.215 1.018.859.535.59 1.874-.322 1.874-.644 0-.805-.322-.59-1.125.321-1.285-1.074-2.088-1.772-1.017-.698 1.07-2.093.268-1.771-1.017.16-.696.053-1.125-.376-1.125-.376 0-.483-.428-.269-1.017.376-1.285-.59-1.98-1.664-1.07-.59.481-.966.481-1.395.053-.805-.803-.054-1.66 1.18-1.339.645.16 1.074 0 1.074-.375 0-.374.43-.535 1.074-.374 1.288.321 1.986-.536 1.127-1.392-.859-.857-.698-1.446.43-1.446.751 0 .966.268.751 1.07m51.155-.482c.537.91-.698 1.928-1.45 1.178-.643-.643-.214-1.767.591-1.767.269 0 .644.268.86.589m8.266.75a.824.824 0 0 1-.805.803.825.825 0 0 1-.805-.803c0-.429.376-.803.805-.803.43 0 .805.374.805.803m-64.413.535a.824.824 0 0 1-.805.803.824.824 0 0 1-.805-.803c0-.428.375-.803.805-.803.43 0 .805.375.805.803m61.944-.375c.108.214.054.75-.214 1.178-.376.589-.645.643-1.128.16-.322-.32-.43-.856-.268-1.177.43-.696 1.234-.75 1.61-.16M22.42 63.03c0 .75-.966 1.232-1.61.857-.323-.214-.43-.589-.269-.857.43-.642 1.879-.642 1.879 0m.376 2.785c-.323 1.285 1.127 2.088 1.825.963.322-.535.59-.589 1.073-.107.752.75.161 1.82-.805 1.446-.43-.16-.913-.054-1.127.268-.644 1.07-2.04.696-1.718-.536.322-1.285-1.127-2.088-1.825-.963-.322.535-.59.588-1.073.107-.752-.75-.162-1.82.805-1.446.43.16.912.053 1.127-.268.644-1.07 2.04-.696 1.718.536m13.849 1.07c0 .429-.43.697-.913.59-.483-.054-1.02.106-1.235.428-.59.91-1.986.589-1.771-.429.107-.588.59-.856 1.396-.75.644.108 1.18-.106 1.18-.427 0-.375.323-.536.698-.429.322.16.645.59.645 1.017m-18.841.697c-.376 1.017.751 1.606 1.663.856.86-.696 1.933-.267 1.826.696-.108 1.124.697 3.052 1.18 2.784.215-.16.323-.642.162-1.017-.43-1.07.751-1.606 1.664-.857.644.536.805.482.805-.267 0-.536.322-.803.966-.696.483.107.859.535.751.91-.053.321.215 1.017.698 1.445.805.803 1.02 2.088.805 4.177-.053.803.108.91.913.589.537-.215 1.342-.429 1.771-.482.43-.054 1.235-.322 1.772-.536 1.18-.535 1.717-.107 1.288.964-.215.482-.698.696-1.074.535-.59-.214-.697.054-.483 1.125.161.963-.107 1.767-.859 2.57-1.073 1.124-1.18 1.338-1.18 2.516 0 .321-.323.536-.698.428-.376-.107-1.933.857-3.49 2.142-1.985 1.66-3.059 2.249-3.81 1.981-1.61-.482-1.933-2.302-.752-3.962.59-.75 1.18-1.82 1.396-2.41.214-.535.697-.856 1.127-.695 1.02.428 2.254-.964 1.396-1.5-.376-.214-.913-.106-1.235.215-.913.91-2.094.696-1.879-.375.108-.535.59-.857 1.181-.75.59.108 1.235-.107 1.503-.535.376-.535.59-.482 1.181.268.698.856.752.856 1.02-.268.43-1.553-.269-2.249-1.557-1.606-1.02.535-2.63 1.231-3.704 1.499-.268.053-2.898 1.231-5.85 2.623-5.368 2.517-7.032 2.785-7.998 1.285-1.02-1.606.107-2.623 5.26-5.086 4.294-2.088 5.046-2.57 4.509-3.212-.483-.59-.483-.964-.054-1.392.752-.75 1.772-.054 1.342.91-.322.91.269 1.017 1.342.321.59-.321.537-.535-.16-.803-.752-.268-.806-.482-.27-1.124.537-.643.484-.857-.268-1.125-.537-.214-1.073-.053-1.342.321-.59.91-2.2.268-1.878-.803.16-.428.375-1.178.536-1.606.108-.428.376-.803.483-.803.162 0 .162.321 0 .75m21.47 1.177c.215.643.108.803-.482.59-1.02-.429-1.61.535-.806 1.499.752.91.162 2.034-.805 1.66-.43-.161-1.02.106-1.342.481-.537.643-.483.857.269 1.124.537.215 1.073.054 1.342-.32.751-1.179 2.04-.215 1.771 1.284-.161.803-.483 1.553-.751 1.714-.269.16-.322-.054-.162-.482.376-1.071-.751-1.66-1.663-.91-.913.749-2.04.16-1.664-.857.16-.375.053-.857-.215-1.017-.322-.215-.537-.697-.537-1.178 0-.59.322-.75 1.127-.536 1.181.322 2.255-1.285 1.127-1.66-1.18-.374-.751-1.874.43-1.552.59.16 1.235.053 1.395-.214.376-.696.59-.59.967.374m-4.186.803c.537.91-.698 1.928-1.45 1.178-.644-.642-.214-1.766.591-1.766.268 0 .644.267.859.588m-5.046 2.517c-.107.642.107 1.178.376 1.178.322 0 .59.375.59.856 0 .536-.376.75-.912.643-.537-.107-.913-.535-.805-.91.053-.375-.108-1.017-.483-1.446-.645-.803-.162-1.98.751-1.66.376.108.59.75.483 1.339m3.436.696c.536.91-.698 1.927-1.45 1.178-.644-.643-.215-1.767.59-1.767.269 0 .645.268.86.589m3.703 4.819c0 .428-.43.696-.912.589-.483-.054-1.02.107-1.235.428-.59.91-1.986.589-1.771-.428.107-.59.59-.857 1.395-.75.645.107 1.181-.107 1.181-.428 0-.375.322-.536.698-.429.322.161.644.59.644 1.018M21.668 79.2c.161.321.108.803-.107 1.017-.644.643-2.04-.268-1.61-1.017.483-.75 1.234-.75 1.717 0m13.903 1.017c.16.321-.054.696-.537.857-1.02.428-1.61 0-1.073-.803.429-.75 1.18-.75 1.61-.054m-2.416 1.339a.824.824 0 0 1-.805.803.824.824 0 0 1-.805-.803c0-.429.376-.804.805-.804.43 0 .805.375.805.804"></path></svg>