<svg xmlns="http://www.w3.org/2000/svg" fill="none" class="w-full" viewBox="0 0 487 122"><path fill="url(#paint0_radial_502_87)" d="M121.999 2.201c-19.574 8.951-19.607 34.96-.055 43.75 19.038 8.56 40.302-8.873 34.467-28.258-4.288-14.24-20.846-21.695-34.412-15.492m217.531 0c-19.574 8.951-19.607 34.96-.055 43.75 19.038 8.56 40.302-8.873 34.467-28.258-4.288-14.24-20.846-21.695-34.412-15.492M231.45 34.195c-2.124 2.05-1.238 5.536 3.04 11.945 2.318 3.474 4.515 6.795 4.881 7.38 1.054 1.683-4.676 8.507-9.374 11.166-6.047 3.421-13.386 4.592-20.729 3.307-12.743-2.231-22.231-8.712-27.061-18.484-3.563-7.21-6.36-9.054-10.12-6.674-3.528 2.231-3.854 4.493-1.519 10.519 3.139 8.104 11.823 16.59 21.863 21.37 17.94 8.539 36.081 7.06 49.096-4.002l4.459-3.79 4.027 3.512c12.906 11.258 33.533 13.032 48.021 4.132 6.728-4.135 13.356-11.468 16.591-18.36 3.895-8.293 3.728-12.117-.6-13.705-4.232-1.554-6.228-.102-9.63 7.006-4.091 8.552-8.227 13.105-14.66 16.137-10.027 4.726-19.348 4.126-28.755-1.85-2.781-1.77-6.243-4.715-7.692-6.55l-2.632-3.332 4.017-7.192c4.153-7.435 4.866-10.58 2.842-12.535-1.626-1.57-24.439-1.57-26.065 0M42.637 69.642c-28.642 3.78-39.651 5.576-40.91 6.676-3.757 3.284-.948 9.735 4.235 9.722 1.304-.004 19.978-2.297 41.496-5.095 32.747-4.258 39.336-5.366 40.42-6.798 2.752-3.634.87-8.459-3.604-9.244-1.348-.237-20.085 1.896-41.637 4.74m356.817-2.682c-2.118 2.26-2.069 6.1.101 7.998 1.267 1.107 11.731 2.79 39.44 6.345 20.744 2.66 39.416 4.909 41.494 4.995 4.128.172 6.511-1.825 6.511-5.457 0-5.047-.107-5.073-41.702-10.474-21.526-2.794-40.282-5.093-41.68-5.11-1.398-.014-3.273.751-4.164 1.703M72.076 101.569c-14.636 6.641-21.796 10.385-22.413 11.722-1.39 3.005.022 6.756 2.946 7.829 2.249.826 5.428-.342 25.057-9.209 23.706-10.709 25.256-11.823 23.316-16.748-.906-2.3-2.898-3.474-5.765-3.396-.899.024-11.313 4.435-23.14 9.802M387.5 94.045c-2.85 2.752-3.006 4.34-.691 7.026C388.851 103.44 429.444 122 432.583 122c4.696 0 7.257-6.677 3.709-9.667-1.984-1.671-43.575-20.61-45.261-20.61-.62 0-2.209 1.045-3.532 2.322" clip-rule="evenodd" fill-rule="evenodd"></path><defs><radialGradient id="paint0_radial_502_87" cx="0" cy="0" r="1" gradientTransform="rotate(47.801 81.521 106.285)scale(361.764 213.855)" gradientUnits="userSpaceOnUse"><stop stop-color="#425470" stop-opacity=".56"></stop><stop offset=".085" stop-color="#425470" stop-opacity=".56"></stop><stop offset="1" stop-color="#425470" stop-opacity="0"></stop></radialGradient></defs></svg>