<svg xmlns="http://www.w3.org/2000/svg" fill="none" class="absolute bottom-[calc(3rem+3.5vw)] left-12 z-40 hidden w-6 translate-x-1/2 text-white sm:block" viewBox="0 0 36 36"><path fill="currentColor" d="M1.384 19.416H.077C.034 19.363 0 19.34 0 19.32v-2.602c.216-.14.45-.038.67-.067a2.78 2.78 0 0 0 .705-.048v-5.426c.24-.144.479-.043.694-.072a2.08 2.08 0 0 0 .7-.072V8.388c.227-.062.465-.08.7-.053h.612c.144-.211.053-.446.072-.666.02-.22 0-.45 0-.695.48-.067.886 0 1.322-.043.134-.207.039-.441.058-.662.019-.22 0-.45 0-.7H6.85c.13-.244.043-.479.062-.7.02-.22 0-.402 0-.603.106-.144.26-.087.393-.087h.958c.06-.23.077-.468.048-.704V2.88a.44.44 0 0 1 .072-.067.139.139 0 0 1 .077 0h2.51c.024 0 .048 0 .1-.057V1.5c.048-.048.067-.077.091-.086a.158.158 0 0 1 .082 0h6.582a.264.264 0 0 0 .086 0 .571.571 0 0 0 .096-.077V.077c.218-.07.448-.092.675-.068h.613c.144.202.058.437.077.657.02.22 0 .48 0 .652.062.043.081.067.105.072a.263.263 0 0 0 .087 0h5.269c.134.216.038.45.067.67-.017.237 0 .474.048.705h2.654c.134.24.038.48.067.695.029.216-.058.456.057.7h2.693c.064.23.082.469.052.705v.608c.211.14.446.053.666.068.22.014.45 0 .7 0 .043.479 0 .891.028 1.322.216.135.45.034.67.063.221.028.451-.053.7.052v2.66c.227.069.465.088.7.058h.603c.14.106.082.264.087.398v2.358c.478.034.886 0 1.307 0 .023.018.044.04.063.062a.154.154 0 0 1 0 .082v10.736a.82.82 0 0 1-.053.187H34.73c-.053.053-.082.067-.091.091a.173.173 0 0 0 0 .086v3.81a.255.255 0 0 1 0 .087c0 .024-.034.043-.082.096h-1.245a1.678 1.678 0 0 0-.053.7v.608c-.206.144-.44.058-.66.072-.221.015-.48 0-.695 0-.067.48 0 .892-.044 1.328-.206.13-.44.029-.66.058-.237-.018-.474 0-.705.052v1.266c-.244.134-.479.047-.7.067-.22.019-.402 0-.603 0-.143.105-.081.263-.086.397v.96a1.785 1.785 0 0 1-.704.052h-.608c-.14.21-.048.446-.068.666-.019.22 0 .45 0 .705h-4.105c-.144.24-.053.479-.067.695-.014.215 0 .45 0 .685H12.536c-.11-.22-.028-.48-.048-.676-.019-.196 0-.402 0-.604a.396.396 0 0 0-.067-.062.133.133 0 0 0-.076 0H9.748a2.029 2.029 0 0 1-.048-.71v-.589a.334.334 0 0 0-.071-.072.152.152 0 0 0-.082 0H7.032l-.096-.067v-1.246c-.244-.14-.479-.048-.699-.067-.22-.02-.445 0-.7 0v-1.342a1.757 1.757 0 0 0-.699-.053h-.594a.297.297 0 0 1-.067-.067.154.154 0 0 1 0-.077v-2.511c0-.024-.024-.048-.057-.1-.403-.049-.834 0-1.25-.025-.025-.029-.053-.043-.063-.067a.163.163 0 0 1 0-.081v-2.522s-.033-.043-.072-.09H1.48c-.052-.053-.09-.073-.09-.097a1.043 1.043 0 0 1 0-.172zM12.454 5.56H9.96a1.024 1.024 0 0 0-.172 0c-.024 0-.043.038-.096.096V6.94h-.7c-.22 0-.455-.072-.68.067v2.588c0 .024.029.048.043.072a12.74 12.74 0 0 0 2.726-.038V7.132a.266.266 0 0 1 0-.086l.077-.101h.651c.225 0 .45.072.656-.077V5.56h1.284c.024 0 .043-.034.106-.077v-.642c0-.225.072-.446-.053-.647h-1.27c-.033.038-.062.062-.062.081-.014.432-.014.858-.014 1.285m12.456 0V4.275l-.077-.1h-.642c-.22 0-.45-.072-.647.052v1.266c.039.028.063.062.082.062h1.284v2.603a.228.228 0 0 0 0 .081c0 .029.038.043.086.096h1.245c.11.244.024.48.053.7.029.22-.067.479.053.666h1.331v-.695c0-.216-.071-.455.063-.671h.608c.238.024.477.007.71-.048v-.671c0-.225.071-.455-.073-.666h-.608a1.878 1.878 0 0 1-.704-.053v-.959c0-.134.057-.287-.091-.393zM12.455 31.892v1.285s.029.043.076.105h.638c.22 0 .45.072.651-.052v-1.27c-.043-.034-.062-.063-.086-.063h-1.28v-2.511a1.036 1.036 0 0 0 0-.173s-.038-.043-.085-.09h-1.232c-.11-.25-.023-.48-.057-.7-.034-.221.072-.48-.053-.667H6.97c-.06.225-.073.46-.038.69 0 .22-.077.48.062.676h.603c.24-.029.481-.013.714.048v.671c0 .225-.072.45.072.661h.608c.235-.029.473-.01.7.053v.959c0 .134-.058.287.086.393zM31.86 11.105h-5.446s-.043.039-.062.053c-.1.904-.082 1.818.052 2.718h.609c.23-.032.466-.014.69.052v3.71c0 .134-.058.288.086.393h5.36s.043-.034.096-.081v-5.316a.134.134 0 0 0-.024-.077.396.396 0 0 0-.062-.067h-.6a1.753 1.753 0 0 1-.699-.047zM9.681 19.488c-.043-.033-.062-.067-.086-.067h-6.72l-.073.077v1.26c.23.101.48 0 .685.048.206.048.45-.067.69.072v4.055c.23.05.465.068.7.053.22.029.45-.072.69.072v1.265c1.374.088 2.754.088 4.129 0zm-5.509-1.514c.805.081 4.724.081 5.524 0v-6.04a2.824 2.824 0 0 0-.043-.829H5.638s-.043.034-.096.082v.91c0 .135.058.288-.086.393h-.603c-.202 0-.455-.067-.676.048zm29.073 1.438h-5.461l-.062.047a.163.163 0 0 0-.034.072v3.887a.159.159 0 0 1 0 .082.443.443 0 0 1-.067.067h-.594a1.99 1.99 0 0 0-.704.048v.676c0 .225-.072.479.072.661h.613a1.74 1.74 0 0 1 .694.053v.959c0 .134-.057.287.087.393h3.97s.044-.034.097-.082v-2.291c0-.134-.053-.288.086-.398h.603c.233.03.47.012.695-.053v-4.112zm-8.311-1.39v-5.273a1.035 1.035 0 0 0 0-.172c0-.024-.034-.043-.067-.077-.034-.034-.154 0-.235 0h-4.934c-.11 0-.23-.029-.307.091v5.181a1.057 1.057 0 0 0 0 .173l.067.076zm-5.543 1.437v5.436c0 .024.034.043.067.076.034.034.154 0 .235 0h4.934c.11 0 .23.034.307-.086v-5.363s-.034-.043-.067-.077zm-6.936 5.445c1.383.084 2.77.084 4.153 0v-5.176c0-.11.029-.23-.091-.307h-5.341l-.062.053c-.1.904-.082 1.818.057 2.717h.604c.228-.028.46-.008.68.058zm0-6.926a34.7 34.7 0 0 0 4.13 0 41.84 41.84 0 0 0-.049-5.507h-3.971s-.043.034-.096.082v2.55a.224.224 0 0 1 0 .076s-.043.039-.067.063h-.599a1.772 1.772 0 0 0-.699.052v.676c0 .225-.072.455.077.657h.613c.233-.03.47-.011.694.057zM23.52 26.41a34.657 34.657 0 0 0-4.114 0 41.8 41.8 0 0 0 .057 5.483h2.592s.043-.033.096-.081V29.52c0-.14-.058-.293.086-.398h.603c.228.031.459.016.68-.043zm1.4 1.342v2.493c.004.057.004.115 0 .172 0 .024-.034.043-.082.091h-1.289v.7c0 .22-.072.45.048.671h2.668c.106-.23 0-.48.048-.685.048-.207-.067-.45.067-.69h2.65c.081-.916.081-1.837 0-2.752zm-2.703-19.42a1.746 1.746 0 0 1-.052-.696v-1.38a1.65 1.65 0 0 0-.053-.695h-1.279c-.11-.245-.024-.48-.057-.7-.034-.22.067-.45-.053-.666h-1.28c-.076.91-.066 4.793 0 5.526h3.958a.144.144 0 0 0 .072-.029.355.355 0 0 0 .062-.057V9.03a1.679 1.679 0 0 0-.062-.7zM16.608 26.41a15.104 15.104 0 0 0-2.754 0v3.7c0 .135-.058.288.086.393h.603a1.65 1.65 0 0 1 .695.053v1.275c.226.07.466.086.7.048.223.044.455.028.67-.048zm-.043-16.708c.079-1.38.079-2.762 0-4.141h-.93c-.133 0-.292-.058-.392.086v.604a1.51 1.51 0 0 1-.058.695h-1.293c-.08.915-.08 1.836 0 2.751z"></path></svg>