<svg xmlns="http://www.w3.org/2000/svg" fill="none" viewBox="0 0 201 40"><path fill="url(#paint0_radial_1061_1303)" d="M2.758 8.454a1.5 1.5 0 1 0-1.517 2.588zm118.235 7.171 1.452.379zm77.993-14.027a1.5 1.5 0 0 0-1.64-1.345l-13.435 1.331a1.5 1.5 0 0 0 .296 2.985l11.942-1.183 1.183 11.942a1.5 1.5 0 1 0 2.985-.296zM1.241 11.042c3.986 2.335 7.137 5.076 10.459 7.975 3.305 2.884 6.77 5.915 11.27 8.637 9.058 5.479 22.103 9.592 46.524 9.592v-3c-24.08 0-36.532-4.054-44.971-9.159-4.248-2.569-7.532-5.434-10.85-8.33C10.37 13.875 7.02 10.95 2.757 8.454zm68.253 26.204c12.32 0 24.379-1.2 33.913-4.387 9.504-3.178 16.848-8.462 19.038-16.855l-2.903-.757c-1.811 6.942-7.967 11.718-17.087 14.767-9.09 3.04-20.781 4.232-32.961 4.232zm52.951-21.242c1.008-3.866.084-7.092-2.105-9.185-2.139-2.044-5.278-2.805-8.345-2.24-6.325 1.163-12.132 7.738-10.996 20.183l2.988-.273c-1.04-11.386 4.189-16.158 8.551-16.96 2.276-.419 4.394.183 5.729 1.459 1.284 1.227 2.052 3.278 1.275 6.259zm-21.446 8.758c.621 6.802 5.603 11.025 12.595 12.98 6.96 1.945 16.192 1.765 26.168-.303 19.966-4.14 43.5-15.966 58.892-34.742L196.333.795c-14.879 18.151-37.756 29.68-57.18 33.706-9.718 2.015-18.424 2.12-24.751.351-6.295-1.76-9.948-5.25-10.415-10.363z"></path><defs><radialGradient id="paint0_radial_1061_1303" cx="0" cy="0" r="1" gradientTransform="rotate(178.409 62.659 7.184)scale(144.056 171.167)" gradientUnits="userSpaceOnUse"><stop stop-color="#6491D7"></stop><stop offset="1" stop-color="white" stop-opacity="0"></stop></radialGradient></defs></svg>