<svg fill="none" viewBox="0 0 1920 1297" class="absolute left-[50%] top-[50%] w-[120vw] min-w-[1200px] -translate-x-[50%] opacity-50" xmlns="http://www.w3.org/2000/svg"><mask id="news-bg-e" width="2951" height="1297" x="-93" y="0" maskUnits="userSpaceOnUse" style="mask-type:alpha"><path fill="url(#news-bg-a)" d="M-93 0h2951v1297H-93z"></path><path fill="url(#news-bg-b)" d="M-93 0h2951v1297H-93z"></path><path fill="url(#news-bg-c)" d="M-93 0h2951v1297H-93z"></path><path fill="url(#news-bg-d)" d="M-93 0h2951v1297H-93z"></path></mask><g fill="#fff" mask="url(#news-bg-e)"><path d="M-84.856 12.224h-3.92v3.936h-.32v-3.936H-93v-.288h3.904V8h.32v3.936h3.92v.288Zm60 0h-3.92v3.936h-.32v-3.936H-33v-.288h3.904V8h.32v3.936h3.92v.288Zm60 0h-3.92v3.936h-.32v-3.936H27v-.288h3.904V8h.32v3.936h3.92v.288Zm60 0h-3.92v3.936h-.32v-3.936H87v-.288h3.904V8h.32v3.936h3.92v.288Zm60 0h-3.92v3.936h-.32v-3.936H147v-.288h3.904V8h.32v3.936h3.92v.288Zm60 0h-3.92v3.936h-.32v-3.936H207v-.288h3.904V8h.32v3.936h3.92v.288Zm60 0h-3.92v3.936h-.32v-3.936H267v-.288h3.904V8h.32v3.936h3.92v.288Zm60 0h-3.92v3.936h-.32v-3.936H327v-.288h3.904V8h.32v3.936h3.92v.288Zm60 0h-3.92v3.936h-.32v-3.936H387v-.288h3.904V8h.32v3.936h3.92v.288Zm60 0h-3.92v3.936h-.32v-3.936H447v-.288h3.904V8h.32v3.936h3.92v.288Zm60 0h-3.92v3.936h-.32v-3.936H507v-.288h3.904V8h.32v3.936h3.92v.288Zm60 0h-3.92v3.936h-.32v-3.936H567v-.288h3.904V8h.32v3.936h3.92v.288Zm60 0h-3.92v3.936h-.32v-3.936H627v-.288h3.904V8h.32v3.936h3.92v.288Zm60 0h-3.92v3.936h-.32v-3.936H687v-.288h3.904V8h.32v3.936h3.92v.288Zm60 0h-3.92v3.936h-.32v-3.936H747v-.288h3.904V8h.32v3.936h3.92v.288Zm60 0h-3.92v3.936h-.32v-3.936H807v-.288h3.904V8h.32v3.936h3.92v.288Zm60 0h-3.92v3.936h-.32v-3.936H867v-.288h3.904V8h.32v3.936h3.92v.288Zm60 0h-3.92v3.936h-.32v-3.936H927v-.288h3.904V8h.32v3.936h3.92v.288Zm60 0h-3.92v3.936h-.32v-3.936H987v-.288h3.904V8h.32v3.936h3.92v.288Zm59.996 0h-3.92v3.936h-.32v-3.936h-3.9v-.288h3.9V8h.32v3.936h3.92v.288Zm60 0h-3.92v3.936h-.32v-3.936h-3.9v-.288h3.9V8h.32v3.936h3.92v.288Zm60 0h-3.92v3.936h-.32v-3.936h-3.9v-.288h3.9V8h.32v3.936h3.92v.288Zm60 0h-3.92v3.936h-.32v-3.936h-3.9v-.288h3.9V8h.32v3.936h3.92v.288Zm60 0h-3.92v3.936h-.32v-3.936h-3.9v-.288h3.9V8h.32v3.936h3.92v.288Zm60 0h-3.92v3.936h-.32v-3.936h-3.9v-.288h3.9V8h.32v3.936h3.92v.288Zm60 0h-3.92v3.936h-.32v-3.936h-3.9v-.288h3.9V8h.32v3.936h3.92v.288Zm60 0h-3.92v3.936h-.32v-3.936h-3.9v-.288h3.9V8h.32v3.936h3.92v.288Zm60 0h-3.92v3.936h-.32v-3.936h-3.9v-.288h3.9V8h.32v3.936h3.92v.288Zm60 0h-3.92v3.936h-.32v-3.936h-3.9v-.288h3.9V8h.32v3.936h3.92v.288Zm60 0h-3.92v3.936h-.32v-3.936h-3.9v-.288h3.9V8h.32v3.936h3.92v.288Zm60 0h-3.92v3.936h-.32v-3.936h-3.9v-.288h3.9V8h.32v3.936h3.92v.288Zm60 0h-3.92v3.936h-.32v-3.936h-3.9v-.288h3.9V8h.32v3.936h3.92v.288Zm60 0h-3.92v3.936h-.32v-3.936h-3.9v-.288h3.9V8h.32v3.936h3.92v.288Zm60 0h-3.92v3.936h-.32v-3.936h-3.9v-.288h3.9V8h.32v3.936h3.92v.288Zm60 0h-3.92v3.936h-.32v-3.936h-3.9v-.288h3.9V8h.32v3.936h3.92v.288Zm60 0h-3.92v3.936h-.32v-3.936h-3.9v-.288h3.9V8h.32v3.936h3.92v.288Zm60 0h-3.92v3.936h-.32v-3.936h-3.9v-.288h3.9V8h.32v3.936h3.92v.288Zm60 0h-3.92v3.936h-.32v-3.936h-3.9v-.288h3.9V8h.32v3.936h3.92v.288Zm60 0h-3.92v3.936h-.32v-3.936h-3.9v-.288h3.9V8h.32v3.936h3.92v.288Zm60 0h-3.92v3.936h-.32v-3.936h-3.9v-.288h3.9V8h.32v3.936h3.92v.288Zm60 0h-3.92v3.936h-.32v-3.936h-3.9v-.288h3.9V8h.32v3.936h3.92v.288Zm60 0h-3.92v3.936h-.32v-3.936h-3.9v-.288h3.9V8h.32v3.936h3.92v.288Zm60 0h-3.92v3.936h-.32v-3.936h-3.9v-.288h3.9V8h.32v3.936h3.92v.288Zm60 0h-3.92v3.936h-.32v-3.936h-3.9v-.288h3.9V8h.32v3.936h3.92v.288Zm60 0h-3.92v3.936h-.32v-3.936h-3.9v-.288h3.9V8h.32v3.936h3.92v.288Zm60 0h-3.92v3.936h-.32v-3.936h-3.9v-.288h3.9V8h.32v3.936h3.92v.288Zm60 0h-3.92v3.936h-.32v-3.936h-3.9v-.288h3.9V8h.32v3.936h3.92v.288Zm60 0h-3.92v3.936h-.32v-3.936h-3.9v-.288h3.9V8h.32v3.936h3.92v.288Zm60 0h-3.92v3.936h-.32v-3.936h-3.9v-.288h3.9V8h.32v3.936h3.92v.288Zm60 0h-3.92v3.936h-.32v-3.936h-3.9v-.288h3.9V8h.32v3.936h3.92v.288Zm-2939.996 66h-3.92v3.936h-.32v-3.936H-93v-.288h3.904V74h.32v3.936h3.92v.288Zm60 0h-3.92v3.936h-.32v-3.936H-33v-.288h3.904V74h.32v3.936h3.92v.288Zm60 0h-3.92v3.936h-.32v-3.936H27v-.288h3.904V74h.32v3.936h3.92v.288Zm60 0h-3.92v3.936h-.32v-3.936H87v-.288h3.904V74h.32v3.936h3.92v.288Zm60 0h-3.92v3.936h-.32v-3.936H147v-.288h3.904V74h.32v3.936h3.92v.288Zm60 0h-3.92v3.936h-.32v-3.936H207v-.288h3.904V74h.32v3.936h3.92v.288Zm60 0h-3.92v3.936h-.32v-3.936H267v-.288h3.904V74h.32v3.936h3.92v.288Zm60 0h-3.92v3.936h-.32v-3.936H327v-.288h3.904V74h.32v3.936h3.92v.288Zm60 0h-3.92v3.936h-.32v-3.936H387v-.288h3.904V74h.32v3.936h3.92v.288Zm60 0h-3.92v3.936h-.32v-3.936H447v-.288h3.904V74h.32v3.936h3.92v.288Zm60 0h-3.92v3.936h-.32v-3.936H507v-.288h3.904V74h.32v3.936h3.92v.288Zm60 0h-3.92v3.936h-.32v-3.936H567v-.288h3.904V74h.32v3.936h3.92v.288Zm60 0h-3.92v3.936h-.32v-3.936H627v-.288h3.904V74h.32v3.936h3.92v.288Zm60 0h-3.92v3.936h-.32v-3.936H687v-.288h3.904V74h.32v3.936h3.92v.288Zm60 0h-3.92v3.936h-.32v-3.936H747v-.288h3.904V74h.32v3.936h3.92v.288Zm60 0h-3.92v3.936h-.32v-3.936H807v-.288h3.904V74h.32v3.936h3.92v.288Zm60 0h-3.92v3.936h-.32v-3.936H867v-.288h3.904V74h.32v3.936h3.92v.288Zm60 0h-3.92v3.936h-.32v-3.936H927v-.288h3.904V74h.32v3.936h3.92v.288Zm60 0h-3.92v3.936h-.32v-3.936H987v-.288h3.904V74h.32v3.936h3.92v.288Zm59.996 0h-3.92v3.936h-.32v-3.936h-3.9v-.288h3.9V74h.32v3.936h3.92v.288Zm60 0h-3.92v3.936h-.32v-3.936h-3.9v-.288h3.9V74h.32v3.936h3.92v.288Zm60 0h-3.92v3.936h-.32v-3.936h-3.9v-.288h3.9V74h.32v3.936h3.92v.288Zm60 0h-3.92v3.936h-.32v-3.936h-3.9v-.288h3.9V74h.32v3.936h3.92v.288Zm60 0h-3.92v3.936h-.32v-3.936h-3.9v-.288h3.9V74h.32v3.936h3.92v.288Zm60 0h-3.92v3.936h-.32v-3.936h-3.9v-.288h3.9V74h.32v3.936h3.92v.288Zm60 0h-3.92v3.936h-.32v-3.936h-3.9v-.288h3.9V74h.32v3.936h3.92v.288Zm60 0h-3.92v3.936h-.32v-3.936h-3.9v-.288h3.9V74h.32v3.936h3.92v.288Zm60 0h-3.92v3.936h-.32v-3.936h-3.9v-.288h3.9V74h.32v3.936h3.92v.288Zm60 0h-3.92v3.936h-.32v-3.936h-3.9v-.288h3.9V74h.32v3.936h3.92v.288Zm60 0h-3.92v3.936h-.32v-3.936h-3.9v-.288h3.9V74h.32v3.936h3.92v.288Zm60 0h-3.92v3.936h-.32v-3.936h-3.9v-.288h3.9V74h.32v3.936h3.92v.288Zm60 0h-3.92v3.936h-.32v-3.936h-3.9v-.288h3.9V74h.32v3.936h3.92v.288Zm60 0h-3.92v3.936h-.32v-3.936h-3.9v-.288h3.9V74h.32v3.936h3.92v.288Zm60 0h-3.92v3.936h-.32v-3.936h-3.9v-.288h3.9V74h.32v3.936h3.92v.288Zm60 0h-3.92v3.936h-.32v-3.936h-3.9v-.288h3.9V74h.32v3.936h3.92v.288Zm60 0h-3.92v3.936h-.32v-3.936h-3.9v-.288h3.9V74h.32v3.936h3.92v.288Zm60 0h-3.92v3.936h-.32v-3.936h-3.9v-.288h3.9V74h.32v3.936h3.92v.288Zm60 0h-3.92v3.936h-.32v-3.936h-3.9v-.288h3.9V74h.32v3.936h3.92v.288Zm60 0h-3.92v3.936h-.32v-3.936h-3.9v-.288h3.9V74h.32v3.936h3.92v.288Zm60 0h-3.92v3.936h-.32v-3.936h-3.9v-.288h3.9V74h.32v3.936h3.92v.288Zm60 0h-3.92v3.936h-.32v-3.936h-3.9v-.288h3.9V74h.32v3.936h3.92v.288Zm60 0h-3.92v3.936h-.32v-3.936h-3.9v-.288h3.9V74h.32v3.936h3.92v.288Zm60 0h-3.92v3.936h-.32v-3.936h-3.9v-.288h3.9V74h.32v3.936h3.92v.288Zm60 0h-3.92v3.936h-.32v-3.936h-3.9v-.288h3.9V74h.32v3.936h3.92v.288Zm60 0h-3.92v3.936h-.32v-3.936h-3.9v-.288h3.9V74h.32v3.936h3.92v.288Zm60 0h-3.92v3.936h-.32v-3.936h-3.9v-.288h3.9V74h.32v3.936h3.92v.288Zm60 0h-3.92v3.936h-.32v-3.936h-3.9v-.288h3.9V74h.32v3.936h3.92v.288Zm60 0h-3.92v3.936h-.32v-3.936h-3.9v-.288h3.9V74h.32v3.936h3.92v.288Zm60 0h-3.92v3.936h-.32v-3.936h-3.9v-.288h3.9V74h.32v3.936h3.92v.288Zm60 0h-3.92v3.936h-.32v-3.936h-3.9v-.288h3.9V74h.32v3.936h3.92v.288Zm-2939.996 66h-3.92v3.936h-.32v-3.936H-93v-.288h3.904V140h.32v3.936h3.92v.288Zm60 0h-3.92v3.936h-.32v-3.936H-33v-.288h3.904V140h.32v3.936h3.92v.288Zm60 0h-3.92v3.936h-.32v-3.936H27v-.288h3.904V140h.32v3.936h3.92v.288Zm60 0h-3.92v3.936h-.32v-3.936H87v-.288h3.904V140h.32v3.936h3.92v.288Zm60 0h-3.92v3.936h-.32v-3.936H147v-.288h3.904V140h.32v3.936h3.92v.288Zm60 0h-3.92v3.936h-.32v-3.936H207v-.288h3.904V140h.32v3.936h3.92v.288Zm60 0h-3.92v3.936h-.32v-3.936H267v-.288h3.904V140h.32v3.936h3.92v.288Zm60 0h-3.92v3.936h-.32v-3.936H327v-.288h3.904V140h.32v3.936h3.92v.288Zm60 0h-3.92v3.936h-.32v-3.936H387v-.288h3.904V140h.32v3.936h3.92v.288Zm60 0h-3.92v3.936h-.32v-3.936H447v-.288h3.904V140h.32v3.936h3.92v.288Zm60 0h-3.92v3.936h-.32v-3.936H507v-.288h3.904V140h.32v3.936h3.92v.288Zm60 0h-3.92v3.936h-.32v-3.936H567v-.288h3.904V140h.32v3.936h3.92v.288Zm60 0h-3.92v3.936h-.32v-3.936H627v-.288h3.904V140h.32v3.936h3.92v.288Zm60 0h-3.92v3.936h-.32v-3.936H687v-.288h3.904V140h.32v3.936h3.92v.288Zm60 0h-3.92v3.936h-.32v-3.936H747v-.288h3.904V140h.32v3.936h3.92v.288Zm60 0h-3.92v3.936h-.32v-3.936H807v-.288h3.904V140h.32v3.936h3.92v.288Zm60 0h-3.92v3.936h-.32v-3.936H867v-.288h3.904V140h.32v3.936h3.92v.288Zm60 0h-3.92v3.936h-.32v-3.936H927v-.288h3.904V140h.32v3.936h3.92v.288Zm60 0h-3.92v3.936h-.32v-3.936H987v-.288h3.904V140h.32v3.936h3.92v.288Zm59.996 0h-3.92v3.936h-.32v-3.936h-3.9v-.288h3.9V140h.32v3.936h3.92v.288Zm60 0h-3.92v3.936h-.32v-3.936h-3.9v-.288h3.9V140h.32v3.936h3.92v.288Zm60 0h-3.92v3.936h-.32v-3.936h-3.9v-.288h3.9V140h.32v3.936h3.92v.288Zm60 0h-3.92v3.936h-.32v-3.936h-3.9v-.288h3.9V140h.32v3.936h3.92v.288Zm60 0h-3.92v3.936h-.32v-3.936h-3.9v-.288h3.9V140h.32v3.936h3.92v.288Zm60 0h-3.92v3.936h-.32v-3.936h-3.9v-.288h3.9V140h.32v3.936h3.92v.288Zm60 0h-3.92v3.936h-.32v-3.936h-3.9v-.288h3.9V140h.32v3.936h3.92v.288Zm60 0h-3.92v3.936h-.32v-3.936h-3.9v-.288h3.9V140h.32v3.936h3.92v.288Zm60 0h-3.92v3.936h-.32v-3.936h-3.9v-.288h3.9V140h.32v3.936h3.92v.288Zm60 0h-3.92v3.936h-.32v-3.936h-3.9v-.288h3.9V140h.32v3.936h3.92v.288Zm60 0h-3.92v3.936h-.32v-3.936h-3.9v-.288h3.9V140h.32v3.936h3.92v.288Zm60 0h-3.92v3.936h-.32v-3.936h-3.9v-.288h3.9V140h.32v3.936h3.92v.288Zm60 0h-3.92v3.936h-.32v-3.936h-3.9v-.288h3.9V140h.32v3.936h3.92v.288Zm60 0h-3.92v3.936h-.32v-3.936h-3.9v-.288h3.9V140h.32v3.936h3.92v.288Zm60 0h-3.92v3.936h-.32v-3.936h-3.9v-.288h3.9V140h.32v3.936h3.92v.288Zm60 0h-3.92v3.936h-.32v-3.936h-3.9v-.288h3.9V140h.32v3.936h3.92v.288Zm60 0h-3.92v3.936h-.32v-3.936h-3.9v-.288h3.9V140h.32v3.936h3.92v.288Zm60 0h-3.92v3.936h-.32v-3.936h-3.9v-.288h3.9V140h.32v3.936h3.92v.288Zm60 0h-3.92v3.936h-.32v-3.936h-3.9v-.288h3.9V140h.32v3.936h3.92v.288Zm60 0h-3.92v3.936h-.32v-3.936h-3.9v-.288h3.9V140h.32v3.936h3.92v.288Zm60 0h-3.92v3.936h-.32v-3.936h-3.9v-.288h3.9V140h.32v3.936h3.92v.288Zm60 0h-3.92v3.936h-.32v-3.936h-3.9v-.288h3.9V140h.32v3.936h3.92v.288Zm60 0h-3.92v3.936h-.32v-3.936h-3.9v-.288h3.9V140h.32v3.936h3.92v.288Zm60 0h-3.92v3.936h-.32v-3.936h-3.9v-.288h3.9V140h.32v3.936h3.92v.288Zm60 0h-3.92v3.936h-.32v-3.936h-3.9v-.288h3.9V140h.32v3.936h3.92v.288Zm60 0h-3.92v3.936h-.32v-3.936h-3.9v-.288h3.9V140h.32v3.936h3.92v.288Zm60 0h-3.92v3.936h-.32v-3.936h-3.9v-.288h3.9V140h.32v3.936h3.92v.288Zm60 0h-3.92v3.936h-.32v-3.936h-3.9v-.288h3.9V140h.32v3.936h3.92v.288Zm60 0h-3.92v3.936h-.32v-3.936h-3.9v-.288h3.9V140h.32v3.936h3.92v.288Zm60 0h-3.92v3.936h-.32v-3.936h-3.9v-.288h3.9V140h.32v3.936h3.92v.288Zm60 0h-3.92v3.936h-.32v-3.936h-3.9v-.288h3.9V140h.32v3.936h3.92v.288Zm-2939.996 66h-3.92v3.936h-.32v-3.936H-93v-.288h3.904V206h.32v3.936h3.92v.288Zm60 0h-3.92v3.936h-.32v-3.936H-33v-.288h3.904V206h.32v3.936h3.92v.288Zm60 0h-3.92v3.936h-.32v-3.936H27v-.288h3.904V206h.32v3.936h3.92v.288Zm60 0h-3.92v3.936h-.32v-3.936H87v-.288h3.904V206h.32v3.936h3.92v.288Zm60 0h-3.92v3.936h-.32v-3.936H147v-.288h3.904V206h.32v3.936h3.92v.288Zm60 0h-3.92v3.936h-.32v-3.936H207v-.288h3.904V206h.32v3.936h3.92v.288Zm60 0h-3.92v3.936h-.32v-3.936H267v-.288h3.904V206h.32v3.936h3.92v.288Zm60 0h-3.92v3.936h-.32v-3.936H327v-.288h3.904V206h.32v3.936h3.92v.288Zm60 0h-3.92v3.936h-.32v-3.936H387v-.288h3.904V206h.32v3.936h3.92v.288Zm60 0h-3.92v3.936h-.32v-3.936H447v-.288h3.904V206h.32v3.936h3.92v.288Zm60 0h-3.92v3.936h-.32v-3.936H507v-.288h3.904V206h.32v3.936h3.92v.288Zm60 0h-3.92v3.936h-.32v-3.936H567v-.288h3.904V206h.32v3.936h3.92v.288Zm60 0h-3.92v3.936h-.32v-3.936H627v-.288h3.904V206h.32v3.936h3.92v.288Zm60 0h-3.92v3.936h-.32v-3.936H687v-.288h3.904V206h.32v3.936h3.92v.288Zm60 0h-3.92v3.936h-.32v-3.936H747v-.288h3.904V206h.32v3.936h3.92v.288Zm60 0h-3.92v3.936h-.32v-3.936H807v-.288h3.904V206h.32v3.936h3.92v.288Zm60 0h-3.92v3.936h-.32v-3.936H867v-.288h3.904V206h.32v3.936h3.92v.288Zm60 0h-3.92v3.936h-.32v-3.936H927v-.288h3.904V206h.32v3.936h3.92v.288Zm60 0h-3.92v3.936h-.32v-3.936H987v-.288h3.904V206h.32v3.936h3.92v.288Zm59.996 0h-3.92v3.936h-.32v-3.936h-3.9v-.288h3.9V206h.32v3.936h3.92v.288Zm60 0h-3.92v3.936h-.32v-3.936h-3.9v-.288h3.9V206h.32v3.936h3.92v.288Zm60 0h-3.92v3.936h-.32v-3.936h-3.9v-.288h3.9V206h.32v3.936h3.92v.288Zm60 0h-3.92v3.936h-.32v-3.936h-3.9v-.288h3.9V206h.32v3.936h3.92v.288Zm60 0h-3.92v3.936h-.32v-3.936h-3.9v-.288h3.9V206h.32v3.936h3.92v.288Zm60 0h-3.92v3.936h-.32v-3.936h-3.9v-.288h3.9V206h.32v3.936h3.92v.288Zm60 0h-3.92v3.936h-.32v-3.936h-3.9v-.288h3.9V206h.32v3.936h3.92v.288Zm60 0h-3.92v3.936h-.32v-3.936h-3.9v-.288h3.9V206h.32v3.936h3.92v.288Zm60 0h-3.92v3.936h-.32v-3.936h-3.9v-.288h3.9V206h.32v3.936h3.92v.288Zm60 0h-3.92v3.936h-.32v-3.936h-3.9v-.288h3.9V206h.32v3.936h3.92v.288Zm60 0h-3.92v3.936h-.32v-3.936h-3.9v-.288h3.9V206h.32v3.936h3.92v.288Zm60 0h-3.92v3.936h-.32v-3.936h-3.9v-.288h3.9V206h.32v3.936h3.92v.288Zm60 0h-3.92v3.936h-.32v-3.936h-3.9v-.288h3.9V206h.32v3.936h3.92v.288Zm60 0h-3.92v3.936h-.32v-3.936h-3.9v-.288h3.9V206h.32v3.936h3.92v.288Zm60 0h-3.92v3.936h-.32v-3.936h-3.9v-.288h3.9V206h.32v3.936h3.92v.288Zm60 0h-3.92v3.936h-.32v-3.936h-3.9v-.288h3.9V206h.32v3.936h3.92v.288Zm60 0h-3.92v3.936h-.32v-3.936h-3.9v-.288h3.9V206h.32v3.936h3.92v.288Zm60 0h-3.92v3.936h-.32v-3.936h-3.9v-.288h3.9V206h.32v3.936h3.92v.288Zm60 0h-3.92v3.936h-.32v-3.936h-3.9v-.288h3.9V206h.32v3.936h3.92v.288Zm60 0h-3.92v3.936h-.32v-3.936h-3.9v-.288h3.9V206h.32v3.936h3.92v.288Zm60 0h-3.92v3.936h-.32v-3.936h-3.9v-.288h3.9V206h.32v3.936h3.92v.288Zm60 0h-3.92v3.936h-.32v-3.936h-3.9v-.288h3.9V206h.32v3.936h3.92v.288Zm60 0h-3.92v3.936h-.32v-3.936h-3.9v-.288h3.9V206h.32v3.936h3.92v.288Zm60 0h-3.92v3.936h-.32v-3.936h-3.9v-.288h3.9V206h.32v3.936h3.92v.288Zm60 0h-3.92v3.936h-.32v-3.936h-3.9v-.288h3.9V206h.32v3.936h3.92v.288Zm60 0h-3.92v3.936h-.32v-3.936h-3.9v-.288h3.9V206h.32v3.936h3.92v.288Zm60 0h-3.92v3.936h-.32v-3.936h-3.9v-.288h3.9V206h.32v3.936h3.92v.288Zm60 0h-3.92v3.936h-.32v-3.936h-3.9v-.288h3.9V206h.32v3.936h3.92v.288Zm60 0h-3.92v3.936h-.32v-3.936h-3.9v-.288h3.9V206h.32v3.936h3.92v.288Zm60 0h-3.92v3.936h-.32v-3.936h-3.9v-.288h3.9V206h.32v3.936h3.92v.288Zm60 0h-3.92v3.936h-.32v-3.936h-3.9v-.288h3.9V206h.32v3.936h3.92v.288Zm-2939.996 66h-3.92v3.936h-.32v-3.936H-93v-.288h3.904V272h.32v3.936h3.92v.288Zm60 0h-3.92v3.936h-.32v-3.936H-33v-.288h3.904V272h.32v3.936h3.92v.288Zm60 0h-3.92v3.936h-.32v-3.936H27v-.288h3.904V272h.32v3.936h3.92v.288Zm60 0h-3.92v3.936h-.32v-3.936H87v-.288h3.904V272h.32v3.936h3.92v.288Zm60 0h-3.92v3.936h-.32v-3.936H147v-.288h3.904V272h.32v3.936h3.92v.288Zm60 0h-3.92v3.936h-.32v-3.936H207v-.288h3.904V272h.32v3.936h3.92v.288Zm60 0h-3.92v3.936h-.32v-3.936H267v-.288h3.904V272h.32v3.936h3.92v.288Zm60 0h-3.92v3.936h-.32v-3.936H327v-.288h3.904V272h.32v3.936h3.92v.288Zm60 0h-3.92v3.936h-.32v-3.936H387v-.288h3.904V272h.32v3.936h3.92v.288Zm60 0h-3.92v3.936h-.32v-3.936H447v-.288h3.904V272h.32v3.936h3.92v.288Zm60 0h-3.92v3.936h-.32v-3.936H507v-.288h3.904V272h.32v3.936h3.92v.288Zm60 0h-3.92v3.936h-.32v-3.936H567v-.288h3.904V272h.32v3.936h3.92v.288Zm60 0h-3.92v3.936h-.32v-3.936H627v-.288h3.904V272h.32v3.936h3.92v.288Zm60 0h-3.92v3.936h-.32v-3.936H687v-.288h3.904V272h.32v3.936h3.92v.288Zm60 0h-3.92v3.936h-.32v-3.936H747v-.288h3.904V272h.32v3.936h3.92v.288Zm60 0h-3.92v3.936h-.32v-3.936H807v-.288h3.904V272h.32v3.936h3.92v.288Zm60 0h-3.92v3.936h-.32v-3.936H867v-.288h3.904V272h.32v3.936h3.92v.288Zm60 0h-3.92v3.936h-.32v-3.936H927v-.288h3.904V272h.32v3.936h3.92v.288Zm60 0h-3.92v3.936h-.32v-3.936H987v-.288h3.904V272h.32v3.936h3.92v.288Zm59.996 0h-3.92v3.936h-.32v-3.936h-3.9v-.288h3.9V272h.32v3.936h3.92v.288Zm60 0h-3.92v3.936h-.32v-3.936h-3.9v-.288h3.9V272h.32v3.936h3.92v.288Zm60 0h-3.92v3.936h-.32v-3.936h-3.9v-.288h3.9V272h.32v3.936h3.92v.288Zm60 0h-3.92v3.936h-.32v-3.936h-3.9v-.288h3.9V272h.32v3.936h3.92v.288Zm60 0h-3.92v3.936h-.32v-3.936h-3.9v-.288h3.9V272h.32v3.936h3.92v.288Zm60 0h-3.92v3.936h-.32v-3.936h-3.9v-.288h3.9V272h.32v3.936h3.92v.288Zm60 0h-3.92v3.936h-.32v-3.936h-3.9v-.288h3.9V272h.32v3.936h3.92v.288Zm60 0h-3.92v3.936h-.32v-3.936h-3.9v-.288h3.9V272h.32v3.936h3.92v.288Zm60 0h-3.92v3.936h-.32v-3.936h-3.9v-.288h3.9V272h.32v3.936h3.92v.288Zm60 0h-3.92v3.936h-.32v-3.936h-3.9v-.288h3.9V272h.32v3.936h3.92v.288Zm60 0h-3.92v3.936h-.32v-3.936h-3.9v-.288h3.9V272h.32v3.936h3.92v.288Zm60 0h-3.92v3.936h-.32v-3.936h-3.9v-.288h3.9V272h.32v3.936h3.92v.288Zm60 0h-3.92v3.936h-.32v-3.936h-3.9v-.288h3.9V272h.32v3.936h3.92v.288Zm60 0h-3.92v3.936h-.32v-3.936h-3.9v-.288h3.9V272h.32v3.936h3.92v.288Zm60 0h-3.92v3.936h-.32v-3.936h-3.9v-.288h3.9V272h.32v3.936h3.92v.288Zm60 0h-3.92v3.936h-.32v-3.936h-3.9v-.288h3.9V272h.32v3.936h3.92v.288Zm60 0h-3.92v3.936h-.32v-3.936h-3.9v-.288h3.9V272h.32v3.936h3.92v.288Zm60 0h-3.92v3.936h-.32v-3.936h-3.9v-.288h3.9V272h.32v3.936h3.92v.288Zm60 0h-3.92v3.936h-.32v-3.936h-3.9v-.288h3.9V272h.32v3.936h3.92v.288Zm60 0h-3.92v3.936h-.32v-3.936h-3.9v-.288h3.9V272h.32v3.936h3.92v.288Zm60 0h-3.92v3.936h-.32v-3.936h-3.9v-.288h3.9V272h.32v3.936h3.92v.288Zm60 0h-3.92v3.936h-.32v-3.936h-3.9v-.288h3.9V272h.32v3.936h3.92v.288Zm60 0h-3.92v3.936h-.32v-3.936h-3.9v-.288h3.9V272h.32v3.936h3.92v.288Zm60 0h-3.92v3.936h-.32v-3.936h-3.9v-.288h3.9V272h.32v3.936h3.92v.288Zm60 0h-3.92v3.936h-.32v-3.936h-3.9v-.288h3.9V272h.32v3.936h3.92v.288Zm60 0h-3.92v3.936h-.32v-3.936h-3.9v-.288h3.9V272h.32v3.936h3.92v.288Zm60 0h-3.92v3.936h-.32v-3.936h-3.9v-.288h3.9V272h.32v3.936h3.92v.288Zm60 0h-3.92v3.936h-.32v-3.936h-3.9v-.288h3.9V272h.32v3.936h3.92v.288Zm60 0h-3.92v3.936h-.32v-3.936h-3.9v-.288h3.9V272h.32v3.936h3.92v.288Zm60 0h-3.92v3.936h-.32v-3.936h-3.9v-.288h3.9V272h.32v3.936h3.92v.288Zm60 0h-3.92v3.936h-.32v-3.936h-3.9v-.288h3.9V272h.32v3.936h3.92v.288Zm-2939.996 66h-3.92v3.936h-.32v-3.936H-93v-.288h3.904V338h.32v3.936h3.92v.288Zm60 0h-3.92v3.936h-.32v-3.936H-33v-.288h3.904V338h.32v3.936h3.92v.288Zm60 0h-3.92v3.936h-.32v-3.936H27v-.288h3.904V338h.32v3.936h3.92v.288Zm60 0h-3.92v3.936h-.32v-3.936H87v-.288h3.904V338h.32v3.936h3.92v.288Zm60 0h-3.92v3.936h-.32v-3.936H147v-.288h3.904V338h.32v3.936h3.92v.288Zm60 0h-3.92v3.936h-.32v-3.936H207v-.288h3.904V338h.32v3.936h3.92v.288Zm60 0h-3.92v3.936h-.32v-3.936H267v-.288h3.904V338h.32v3.936h3.92v.288Zm60 0h-3.92v3.936h-.32v-3.936H327v-.288h3.904V338h.32v3.936h3.92v.288Zm60 0h-3.92v3.936h-.32v-3.936H387v-.288h3.904V338h.32v3.936h3.92v.288Zm60 0h-3.92v3.936h-.32v-3.936H447v-.288h3.904V338h.32v3.936h3.92v.288Zm60 0h-3.92v3.936h-.32v-3.936H507v-.288h3.904V338h.32v3.936h3.92v.288Zm60 0h-3.92v3.936h-.32v-3.936H567v-.288h3.904V338h.32v3.936h3.92v.288Zm60 0h-3.92v3.936h-.32v-3.936H627v-.288h3.904V338h.32v3.936h3.92v.288Zm60 0h-3.92v3.936h-.32v-3.936H687v-.288h3.904V338h.32v3.936h3.92v.288Zm60 0h-3.92v3.936h-.32v-3.936H747v-.288h3.904V338h.32v3.936h3.92v.288Zm60 0h-3.92v3.936h-.32v-3.936H807v-.288h3.904V338h.32v3.936h3.92v.288Zm60 0h-3.92v3.936h-.32v-3.936H867v-.288h3.904V338h.32v3.936h3.92v.288Zm60 0h-3.92v3.936h-.32v-3.936H927v-.288h3.904V338h.32v3.936h3.92v.288Zm60 0h-3.92v3.936h-.32v-3.936H987v-.288h3.904V338h.32v3.936h3.92v.288Zm59.996 0h-3.92v3.936h-.32v-3.936h-3.9v-.288h3.9V338h.32v3.936h3.92v.288Zm60 0h-3.92v3.936h-.32v-3.936h-3.9v-.288h3.9V338h.32v3.936h3.92v.288Zm60 0h-3.92v3.936h-.32v-3.936h-3.9v-.288h3.9V338h.32v3.936h3.92v.288Zm60 0h-3.92v3.936h-.32v-3.936h-3.9v-.288h3.9V338h.32v3.936h3.92v.288Zm60 0h-3.92v3.936h-.32v-3.936h-3.9v-.288h3.9V338h.32v3.936h3.92v.288Zm60 0h-3.92v3.936h-.32v-3.936h-3.9v-.288h3.9V338h.32v3.936h3.92v.288Zm60 0h-3.92v3.936h-.32v-3.936h-3.9v-.288h3.9V338h.32v3.936h3.92v.288Zm60 0h-3.92v3.936h-.32v-3.936h-3.9v-.288h3.9V338h.32v3.936h3.92v.288Zm60 0h-3.92v3.936h-.32v-3.936h-3.9v-.288h3.9V338h.32v3.936h3.92v.288Zm60 0h-3.92v3.936h-.32v-3.936h-3.9v-.288h3.9V338h.32v3.936h3.92v.288Zm60 0h-3.92v3.936h-.32v-3.936h-3.9v-.288h3.9V338h.32v3.936h3.92v.288Zm60 0h-3.92v3.936h-.32v-3.936h-3.9v-.288h3.9V338h.32v3.936h3.92v.288Zm60 0h-3.92v3.936h-.32v-3.936h-3.9v-.288h3.9V338h.32v3.936h3.92v.288Zm60 0h-3.92v3.936h-.32v-3.936h-3.9v-.288h3.9V338h.32v3.936h3.92v.288Zm60 0h-3.92v3.936h-.32v-3.936h-3.9v-.288h3.9V338h.32v3.936h3.92v.288Zm60 0h-3.92v3.936h-.32v-3.936h-3.9v-.288h3.9V338h.32v3.936h3.92v.288Zm60 0h-3.92v3.936h-.32v-3.936h-3.9v-.288h3.9V338h.32v3.936h3.92v.288Zm60 0h-3.92v3.936h-.32v-3.936h-3.9v-.288h3.9V338h.32v3.936h3.92v.288Zm60 0h-3.92v3.936h-.32v-3.936h-3.9v-.288h3.9V338h.32v3.936h3.92v.288Zm60 0h-3.92v3.936h-.32v-3.936h-3.9v-.288h3.9V338h.32v3.936h3.92v.288Zm60 0h-3.92v3.936h-.32v-3.936h-3.9v-.288h3.9V338h.32v3.936h3.92v.288Zm60 0h-3.92v3.936h-.32v-3.936h-3.9v-.288h3.9V338h.32v3.936h3.92v.288Zm60 0h-3.92v3.936h-.32v-3.936h-3.9v-.288h3.9V338h.32v3.936h3.92v.288Zm60 0h-3.92v3.936h-.32v-3.936h-3.9v-.288h3.9V338h.32v3.936h3.92v.288Zm60 0h-3.92v3.936h-.32v-3.936h-3.9v-.288h3.9V338h.32v3.936h3.92v.288Zm60 0h-3.92v3.936h-.32v-3.936h-3.9v-.288h3.9V338h.32v3.936h3.92v.288Zm60 0h-3.92v3.936h-.32v-3.936h-3.9v-.288h3.9V338h.32v3.936h3.92v.288Zm60 0h-3.92v3.936h-.32v-3.936h-3.9v-.288h3.9V338h.32v3.936h3.92v.288Zm60 0h-3.92v3.936h-.32v-3.936h-3.9v-.288h3.9V338h.32v3.936h3.92v.288Zm60 0h-3.92v3.936h-.32v-3.936h-3.9v-.288h3.9V338h.32v3.936h3.92v.288Zm60 0h-3.92v3.936h-.32v-3.936h-3.9v-.288h3.9V338h.32v3.936h3.92v.288Zm-2939.996 66h-3.92v3.936h-.32v-3.936H-93v-.288h3.904V404h.32v3.936h3.92v.288Zm60 0h-3.92v3.936h-.32v-3.936H-33v-.288h3.904V404h.32v3.936h3.92v.288Zm60 0h-3.92v3.936h-.32v-3.936H27v-.288h3.904V404h.32v3.936h3.92v.288Zm60 0h-3.92v3.936h-.32v-3.936H87v-.288h3.904V404h.32v3.936h3.92v.288Zm60 0h-3.92v3.936h-.32v-3.936H147v-.288h3.904V404h.32v3.936h3.92v.288Zm60 0h-3.92v3.936h-.32v-3.936H207v-.288h3.904V404h.32v3.936h3.92v.288Zm60 0h-3.92v3.936h-.32v-3.936H267v-.288h3.904V404h.32v3.936h3.92v.288Zm60 0h-3.92v3.936h-.32v-3.936H327v-.288h3.904V404h.32v3.936h3.92v.288Zm60 0h-3.92v3.936h-.32v-3.936H387v-.288h3.904V404h.32v3.936h3.92v.288Zm60 0h-3.92v3.936h-.32v-3.936H447v-.288h3.904V404h.32v3.936h3.92v.288Zm60 0h-3.92v3.936h-.32v-3.936H507v-.288h3.904V404h.32v3.936h3.92v.288Zm60 0h-3.92v3.936h-.32v-3.936H567v-.288h3.904V404h.32v3.936h3.92v.288Zm60 0h-3.92v3.936h-.32v-3.936H627v-.288h3.904V404h.32v3.936h3.92v.288Zm60 0h-3.92v3.936h-.32v-3.936H687v-.288h3.904V404h.32v3.936h3.92v.288Zm60 0h-3.92v3.936h-.32v-3.936H747v-.288h3.904V404h.32v3.936h3.92v.288Zm60 0h-3.92v3.936h-.32v-3.936H807v-.288h3.904V404h.32v3.936h3.92v.288Zm60 0h-3.92v3.936h-.32v-3.936H867v-.288h3.904V404h.32v3.936h3.92v.288Zm60 0h-3.92v3.936h-.32v-3.936H927v-.288h3.904V404h.32v3.936h3.92v.288Zm60 0h-3.92v3.936h-.32v-3.936H987v-.288h3.904V404h.32v3.936h3.92v.288Zm59.996 0h-3.92v3.936h-.32v-3.936h-3.9v-.288h3.9V404h.32v3.936h3.92v.288Zm60 0h-3.92v3.936h-.32v-3.936h-3.9v-.288h3.9V404h.32v3.936h3.92v.288Zm60 0h-3.92v3.936h-.32v-3.936h-3.9v-.288h3.9V404h.32v3.936h3.92v.288Zm60 0h-3.92v3.936h-.32v-3.936h-3.9v-.288h3.9V404h.32v3.936h3.92v.288Zm60 0h-3.92v3.936h-.32v-3.936h-3.9v-.288h3.9V404h.32v3.936h3.92v.288Zm60 0h-3.92v3.936h-.32v-3.936h-3.9v-.288h3.9V404h.32v3.936h3.92v.288Zm60 0h-3.92v3.936h-.32v-3.936h-3.9v-.288h3.9V404h.32v3.936h3.92v.288Zm60 0h-3.92v3.936h-.32v-3.936h-3.9v-.288h3.9V404h.32v3.936h3.92v.288Zm60 0h-3.92v3.936h-.32v-3.936h-3.9v-.288h3.9V404h.32v3.936h3.92v.288Zm60 0h-3.92v3.936h-.32v-3.936h-3.9v-.288h3.9V404h.32v3.936h3.92v.288Zm60 0h-3.92v3.936h-.32v-3.936h-3.9v-.288h3.9V404h.32v3.936h3.92v.288Zm60 0h-3.92v3.936h-.32v-3.936h-3.9v-.288h3.9V404h.32v3.936h3.92v.288Zm60 0h-3.92v3.936h-.32v-3.936h-3.9v-.288h3.9V404h.32v3.936h3.92v.288Zm60 0h-3.92v3.936h-.32v-3.936h-3.9v-.288h3.9V404h.32v3.936h3.92v.288Zm60 0h-3.92v3.936h-.32v-3.936h-3.9v-.288h3.9V404h.32v3.936h3.92v.288Zm60 0h-3.92v3.936h-.32v-3.936h-3.9v-.288h3.9V404h.32v3.936h3.92v.288Zm60 0h-3.92v3.936h-.32v-3.936h-3.9v-.288h3.9V404h.32v3.936h3.92v.288Zm60 0h-3.92v3.936h-.32v-3.936h-3.9v-.288h3.9V404h.32v3.936h3.92v.288Zm60 0h-3.92v3.936h-.32v-3.936h-3.9v-.288h3.9V404h.32v3.936h3.92v.288Zm60 0h-3.92v3.936h-.32v-3.936h-3.9v-.288h3.9V404h.32v3.936h3.92v.288Zm60 0h-3.92v3.936h-.32v-3.936h-3.9v-.288h3.9V404h.32v3.936h3.92v.288Zm60 0h-3.92v3.936h-.32v-3.936h-3.9v-.288h3.9V404h.32v3.936h3.92v.288Zm60 0h-3.92v3.936h-.32v-3.936h-3.9v-.288h3.9V404h.32v3.936h3.92v.288Zm60 0h-3.92v3.936h-.32v-3.936h-3.9v-.288h3.9V404h.32v3.936h3.92v.288Zm60 0h-3.92v3.936h-.32v-3.936h-3.9v-.288h3.9V404h.32v3.936h3.92v.288Zm60 0h-3.92v3.936h-.32v-3.936h-3.9v-.288h3.9V404h.32v3.936h3.92v.288Zm60 0h-3.92v3.936h-.32v-3.936h-3.9v-.288h3.9V404h.32v3.936h3.92v.288Zm60 0h-3.92v3.936h-.32v-3.936h-3.9v-.288h3.9V404h.32v3.936h3.92v.288Zm60 0h-3.92v3.936h-.32v-3.936h-3.9v-.288h3.9V404h.32v3.936h3.92v.288Zm60 0h-3.92v3.936h-.32v-3.936h-3.9v-.288h3.9V404h.32v3.936h3.92v.288Zm60 0h-3.92v3.936h-.32v-3.936h-3.9v-.288h3.9V404h.32v3.936h3.92v.288Zm-2939.996 66h-3.92v3.936h-.32v-3.936H-93v-.288h3.904V470h.32v3.936h3.92v.288Zm60 0h-3.92v3.936h-.32v-3.936H-33v-.288h3.904V470h.32v3.936h3.92v.288Zm60 0h-3.92v3.936h-.32v-3.936H27v-.288h3.904V470h.32v3.936h3.92v.288Zm60 0h-3.92v3.936h-.32v-3.936H87v-.288h3.904V470h.32v3.936h3.92v.288Zm60 0h-3.92v3.936h-.32v-3.936H147v-.288h3.904V470h.32v3.936h3.92v.288Zm60 0h-3.92v3.936h-.32v-3.936H207v-.288h3.904V470h.32v3.936h3.92v.288Zm60 0h-3.92v3.936h-.32v-3.936H267v-.288h3.904V470h.32v3.936h3.92v.288Zm60 0h-3.92v3.936h-.32v-3.936H327v-.288h3.904V470h.32v3.936h3.92v.288Zm60 0h-3.92v3.936h-.32v-3.936H387v-.288h3.904V470h.32v3.936h3.92v.288Zm60 0h-3.92v3.936h-.32v-3.936H447v-.288h3.904V470h.32v3.936h3.92v.288Zm60 0h-3.92v3.936h-.32v-3.936H507v-.288h3.904V470h.32v3.936h3.92v.288Zm60 0h-3.92v3.936h-.32v-3.936H567v-.288h3.904V470h.32v3.936h3.92v.288Zm60 0h-3.92v3.936h-.32v-3.936H627v-.288h3.904V470h.32v3.936h3.92v.288Zm60 0h-3.92v3.936h-.32v-3.936H687v-.288h3.904V470h.32v3.936h3.92v.288Zm60 0h-3.92v3.936h-.32v-3.936H747v-.288h3.904V470h.32v3.936h3.92v.288Zm60 0h-3.92v3.936h-.32v-3.936H807v-.288h3.904V470h.32v3.936h3.92v.288Zm60 0h-3.92v3.936h-.32v-3.936H867v-.288h3.904V470h.32v3.936h3.92v.288Zm60 0h-3.92v3.936h-.32v-3.936H927v-.288h3.904V470h.32v3.936h3.92v.288Zm60 0h-3.92v3.936h-.32v-3.936H987v-.288h3.904V470h.32v3.936h3.92v.288Zm59.996 0h-3.92v3.936h-.32v-3.936h-3.9v-.288h3.9V470h.32v3.936h3.92v.288Zm60 0h-3.92v3.936h-.32v-3.936h-3.9v-.288h3.9V470h.32v3.936h3.92v.288Zm60 0h-3.92v3.936h-.32v-3.936h-3.9v-.288h3.9V470h.32v3.936h3.92v.288Zm60 0h-3.92v3.936h-.32v-3.936h-3.9v-.288h3.9V470h.32v3.936h3.92v.288Zm60 0h-3.92v3.936h-.32v-3.936h-3.9v-.288h3.9V470h.32v3.936h3.92v.288Zm60 0h-3.92v3.936h-.32v-3.936h-3.9v-.288h3.9V470h.32v3.936h3.92v.288Zm60 0h-3.92v3.936h-.32v-3.936h-3.9v-.288h3.9V470h.32v3.936h3.92v.288Zm60 0h-3.92v3.936h-.32v-3.936h-3.9v-.288h3.9V470h.32v3.936h3.92v.288Zm60 0h-3.92v3.936h-.32v-3.936h-3.9v-.288h3.9V470h.32v3.936h3.92v.288Zm60 0h-3.92v3.936h-.32v-3.936h-3.9v-.288h3.9V470h.32v3.936h3.92v.288Zm60 0h-3.92v3.936h-.32v-3.936h-3.9v-.288h3.9V470h.32v3.936h3.92v.288Zm60 0h-3.92v3.936h-.32v-3.936h-3.9v-.288h3.9V470h.32v3.936h3.92v.288Zm60 0h-3.92v3.936h-.32v-3.936h-3.9v-.288h3.9V470h.32v3.936h3.92v.288Zm60 0h-3.92v3.936h-.32v-3.936h-3.9v-.288h3.9V470h.32v3.936h3.92v.288Zm60 0h-3.92v3.936h-.32v-3.936h-3.9v-.288h3.9V470h.32v3.936h3.92v.288Zm60 0h-3.92v3.936h-.32v-3.936h-3.9v-.288h3.9V470h.32v3.936h3.92v.288Zm60 0h-3.92v3.936h-.32v-3.936h-3.9v-.288h3.9V470h.32v3.936h3.92v.288Zm60 0h-3.92v3.936h-.32v-3.936h-3.9v-.288h3.9V470h.32v3.936h3.92v.288Zm60 0h-3.92v3.936h-.32v-3.936h-3.9v-.288h3.9V470h.32v3.936h3.92v.288Zm60 0h-3.92v3.936h-.32v-3.936h-3.9v-.288h3.9V470h.32v3.936h3.92v.288Zm60 0h-3.92v3.936h-.32v-3.936h-3.9v-.288h3.9V470h.32v3.936h3.92v.288Zm60 0h-3.92v3.936h-.32v-3.936h-3.9v-.288h3.9V470h.32v3.936h3.92v.288Zm60 0h-3.92v3.936h-.32v-3.936h-3.9v-.288h3.9V470h.32v3.936h3.92v.288Zm60 0h-3.92v3.936h-.32v-3.936h-3.9v-.288h3.9V470h.32v3.936h3.92v.288Zm60 0h-3.92v3.936h-.32v-3.936h-3.9v-.288h3.9V470h.32v3.936h3.92v.288Zm60 0h-3.92v3.936h-.32v-3.936h-3.9v-.288h3.9V470h.32v3.936h3.92v.288Zm60 0h-3.92v3.936h-.32v-3.936h-3.9v-.288h3.9V470h.32v3.936h3.92v.288Zm60 0h-3.92v3.936h-.32v-3.936h-3.9v-.288h3.9V470h.32v3.936h3.92v.288Zm60 0h-3.92v3.936h-.32v-3.936h-3.9v-.288h3.9V470h.32v3.936h3.92v.288Zm60 0h-3.92v3.936h-.32v-3.936h-3.9v-.288h3.9V470h.32v3.936h3.92v.288Zm60 0h-3.92v3.936h-.32v-3.936h-3.9v-.288h3.9V470h.32v3.936h3.92v.288Zm-2939.996 66h-3.92v3.936h-.32v-3.936H-93v-.288h3.904V536h.32v3.936h3.92v.288Zm60 0h-3.92v3.936h-.32v-3.936H-33v-.288h3.904V536h.32v3.936h3.92v.288Zm60 0h-3.92v3.936h-.32v-3.936H27v-.288h3.904V536h.32v3.936h3.92v.288Zm60 0h-3.92v3.936h-.32v-3.936H87v-.288h3.904V536h.32v3.936h3.92v.288Zm60 0h-3.92v3.936h-.32v-3.936H147v-.288h3.904V536h.32v3.936h3.92v.288Zm60 0h-3.92v3.936h-.32v-3.936H207v-.288h3.904V536h.32v3.936h3.92v.288Zm60 0h-3.92v3.936h-.32v-3.936H267v-.288h3.904V536h.32v3.936h3.92v.288Zm60 0h-3.92v3.936h-.32v-3.936H327v-.288h3.904V536h.32v3.936h3.92v.288Zm60 0h-3.92v3.936h-.32v-3.936H387v-.288h3.904V536h.32v3.936h3.92v.288Zm60 0h-3.92v3.936h-.32v-3.936H447v-.288h3.904V536h.32v3.936h3.92v.288Zm60 0h-3.92v3.936h-.32v-3.936H507v-.288h3.904V536h.32v3.936h3.92v.288Zm60 0h-3.92v3.936h-.32v-3.936H567v-.288h3.904V536h.32v3.936h3.92v.288Zm60 0h-3.92v3.936h-.32v-3.936H627v-.288h3.904V536h.32v3.936h3.92v.288Zm60 0h-3.92v3.936h-.32v-3.936H687v-.288h3.904V536h.32v3.936h3.92v.288Zm60 0h-3.92v3.936h-.32v-3.936H747v-.288h3.904V536h.32v3.936h3.92v.288Zm60 0h-3.92v3.936h-.32v-3.936H807v-.288h3.904V536h.32v3.936h3.92v.288Zm60 0h-3.92v3.936h-.32v-3.936H867v-.288h3.904V536h.32v3.936h3.92v.288Zm60 0h-3.92v3.936h-.32v-3.936H927v-.288h3.904V536h.32v3.936h3.92v.288Zm60 0h-3.92v3.936h-.32v-3.936H987v-.288h3.904V536h.32v3.936h3.92v.288Zm59.996 0h-3.92v3.936h-.32v-3.936h-3.9v-.288h3.9V536h.32v3.936h3.92v.288Zm60 0h-3.92v3.936h-.32v-3.936h-3.9v-.288h3.9V536h.32v3.936h3.92v.288Zm60 0h-3.92v3.936h-.32v-3.936h-3.9v-.288h3.9V536h.32v3.936h3.92v.288Zm60 0h-3.92v3.936h-.32v-3.936h-3.9v-.288h3.9V536h.32v3.936h3.92v.288Zm60 0h-3.92v3.936h-.32v-3.936h-3.9v-.288h3.9V536h.32v3.936h3.92v.288Zm60 0h-3.92v3.936h-.32v-3.936h-3.9v-.288h3.9V536h.32v3.936h3.92v.288Zm60 0h-3.92v3.936h-.32v-3.936h-3.9v-.288h3.9V536h.32v3.936h3.92v.288Zm60 0h-3.92v3.936h-.32v-3.936h-3.9v-.288h3.9V536h.32v3.936h3.92v.288Zm60 0h-3.92v3.936h-.32v-3.936h-3.9v-.288h3.9V536h.32v3.936h3.92v.288Zm60 0h-3.92v3.936h-.32v-3.936h-3.9v-.288h3.9V536h.32v3.936h3.92v.288Zm60 0h-3.92v3.936h-.32v-3.936h-3.9v-.288h3.9V536h.32v3.936h3.92v.288Zm60 0h-3.92v3.936h-.32v-3.936h-3.9v-.288h3.9V536h.32v3.936h3.92v.288Zm60 0h-3.92v3.936h-.32v-3.936h-3.9v-.288h3.9V536h.32v3.936h3.92v.288Zm60 0h-3.92v3.936h-.32v-3.936h-3.9v-.288h3.9V536h.32v3.936h3.92v.288Zm60 0h-3.92v3.936h-.32v-3.936h-3.9v-.288h3.9V536h.32v3.936h3.92v.288Zm60 0h-3.92v3.936h-.32v-3.936h-3.9v-.288h3.9V536h.32v3.936h3.92v.288Zm60 0h-3.92v3.936h-.32v-3.936h-3.9v-.288h3.9V536h.32v3.936h3.92v.288Zm60 0h-3.92v3.936h-.32v-3.936h-3.9v-.288h3.9V536h.32v3.936h3.92v.288Zm60 0h-3.92v3.936h-.32v-3.936h-3.9v-.288h3.9V536h.32v3.936h3.92v.288Zm60 0h-3.92v3.936h-.32v-3.936h-3.9v-.288h3.9V536h.32v3.936h3.92v.288Zm60 0h-3.92v3.936h-.32v-3.936h-3.9v-.288h3.9V536h.32v3.936h3.92v.288Zm60 0h-3.92v3.936h-.32v-3.936h-3.9v-.288h3.9V536h.32v3.936h3.92v.288Zm60 0h-3.92v3.936h-.32v-3.936h-3.9v-.288h3.9V536h.32v3.936h3.92v.288Zm60 0h-3.92v3.936h-.32v-3.936h-3.9v-.288h3.9V536h.32v3.936h3.92v.288Zm60 0h-3.92v3.936h-.32v-3.936h-3.9v-.288h3.9V536h.32v3.936h3.92v.288Zm60 0h-3.92v3.936h-.32v-3.936h-3.9v-.288h3.9V536h.32v3.936h3.92v.288Zm60 0h-3.92v3.936h-.32v-3.936h-3.9v-.288h3.9V536h.32v3.936h3.92v.288Zm60 0h-3.92v3.936h-.32v-3.936h-3.9v-.288h3.9V536h.32v3.936h3.92v.288Zm60 0h-3.92v3.936h-.32v-3.936h-3.9v-.288h3.9V536h.32v3.936h3.92v.288Zm60 0h-3.92v3.936h-.32v-3.936h-3.9v-.288h3.9V536h.32v3.936h3.92v.288Zm60 0h-3.92v3.936h-.32v-3.936h-3.9v-.288h3.9V536h.32v3.936h3.92v.288Zm-2939.996 66h-3.92v3.936h-.32v-3.936H-93v-.288h3.904V602h.32v3.936h3.92v.288Zm60 0h-3.92v3.936h-.32v-3.936H-33v-.288h3.904V602h.32v3.936h3.92v.288Zm60 0h-3.92v3.936h-.32v-3.936H27v-.288h3.904V602h.32v3.936h3.92v.288Zm60 0h-3.92v3.936h-.32v-3.936H87v-.288h3.904V602h.32v3.936h3.92v.288Zm60 0h-3.92v3.936h-.32v-3.936H147v-.288h3.904V602h.32v3.936h3.92v.288Zm60 0h-3.92v3.936h-.32v-3.936H207v-.288h3.904V602h.32v3.936h3.92v.288Zm60 0h-3.92v3.936h-.32v-3.936H267v-.288h3.904V602h.32v3.936h3.92v.288Zm60 0h-3.92v3.936h-.32v-3.936H327v-.288h3.904V602h.32v3.936h3.92v.288Zm60 0h-3.92v3.936h-.32v-3.936H387v-.288h3.904V602h.32v3.936h3.92v.288Zm60 0h-3.92v3.936h-.32v-3.936H447v-.288h3.904V602h.32v3.936h3.92v.288Zm60 0h-3.92v3.936h-.32v-3.936H507v-.288h3.904V602h.32v3.936h3.92v.288Zm60 0h-3.92v3.936h-.32v-3.936H567v-.288h3.904V602h.32v3.936h3.92v.288Zm60 0h-3.92v3.936h-.32v-3.936H627v-.288h3.904V602h.32v3.936h3.92v.288Zm60 0h-3.92v3.936h-.32v-3.936H687v-.288h3.904V602h.32v3.936h3.92v.288Zm60 0h-3.92v3.936h-.32v-3.936H747v-.288h3.904V602h.32v3.936h3.92v.288Zm60 0h-3.92v3.936h-.32v-3.936H807v-.288h3.904V602h.32v3.936h3.92v.288Zm60 0h-3.92v3.936h-.32v-3.936H867v-.288h3.904V602h.32v3.936h3.92v.288Zm60 0h-3.92v3.936h-.32v-3.936H927v-.288h3.904V602h.32v3.936h3.92v.288Zm60 0h-3.92v3.936h-.32v-3.936H987v-.288h3.904V602h.32v3.936h3.92v.288Zm59.996 0h-3.92v3.936h-.32v-3.936h-3.9v-.288h3.9V602h.32v3.936h3.92v.288Zm60 0h-3.92v3.936h-.32v-3.936h-3.9v-.288h3.9V602h.32v3.936h3.92v.288Zm60 0h-3.92v3.936h-.32v-3.936h-3.9v-.288h3.9V602h.32v3.936h3.92v.288Zm60 0h-3.92v3.936h-.32v-3.936h-3.9v-.288h3.9V602h.32v3.936h3.92v.288Zm60 0h-3.92v3.936h-.32v-3.936h-3.9v-.288h3.9V602h.32v3.936h3.92v.288Zm60 0h-3.92v3.936h-.32v-3.936h-3.9v-.288h3.9V602h.32v3.936h3.92v.288Zm60 0h-3.92v3.936h-.32v-3.936h-3.9v-.288h3.9V602h.32v3.936h3.92v.288Zm60 0h-3.92v3.936h-.32v-3.936h-3.9v-.288h3.9V602h.32v3.936h3.92v.288Zm60 0h-3.92v3.936h-.32v-3.936h-3.9v-.288h3.9V602h.32v3.936h3.92v.288Zm60 0h-3.92v3.936h-.32v-3.936h-3.9v-.288h3.9V602h.32v3.936h3.92v.288Zm60 0h-3.92v3.936h-.32v-3.936h-3.9v-.288h3.9V602h.32v3.936h3.92v.288Zm60 0h-3.92v3.936h-.32v-3.936h-3.9v-.288h3.9V602h.32v3.936h3.92v.288Zm60 0h-3.92v3.936h-.32v-3.936h-3.9v-.288h3.9V602h.32v3.936h3.92v.288Zm60 0h-3.92v3.936h-.32v-3.936h-3.9v-.288h3.9V602h.32v3.936h3.92v.288Zm60 0h-3.92v3.936h-.32v-3.936h-3.9v-.288h3.9V602h.32v3.936h3.92v.288Zm60 0h-3.92v3.936h-.32v-3.936h-3.9v-.288h3.9V602h.32v3.936h3.92v.288Zm60 0h-3.92v3.936h-.32v-3.936h-3.9v-.288h3.9V602h.32v3.936h3.92v.288Zm60 0h-3.92v3.936h-.32v-3.936h-3.9v-.288h3.9V602h.32v3.936h3.92v.288Zm60 0h-3.92v3.936h-.32v-3.936h-3.9v-.288h3.9V602h.32v3.936h3.92v.288Zm60 0h-3.92v3.936h-.32v-3.936h-3.9v-.288h3.9V602h.32v3.936h3.92v.288Zm60 0h-3.92v3.936h-.32v-3.936h-3.9v-.288h3.9V602h.32v3.936h3.92v.288Zm60 0h-3.92v3.936h-.32v-3.936h-3.9v-.288h3.9V602h.32v3.936h3.92v.288Zm60 0h-3.92v3.936h-.32v-3.936h-3.9v-.288h3.9V602h.32v3.936h3.92v.288Zm60 0h-3.92v3.936h-.32v-3.936h-3.9v-.288h3.9V602h.32v3.936h3.92v.288Zm60 0h-3.92v3.936h-.32v-3.936h-3.9v-.288h3.9V602h.32v3.936h3.92v.288Zm60 0h-3.92v3.936h-.32v-3.936h-3.9v-.288h3.9V602h.32v3.936h3.92v.288Zm60 0h-3.92v3.936h-.32v-3.936h-3.9v-.288h3.9V602h.32v3.936h3.92v.288Zm60 0h-3.92v3.936h-.32v-3.936h-3.9v-.288h3.9V602h.32v3.936h3.92v.288Zm60 0h-3.92v3.936h-.32v-3.936h-3.9v-.288h3.9V602h.32v3.936h3.92v.288Zm60 0h-3.92v3.936h-.32v-3.936h-3.9v-.288h3.9V602h.32v3.936h3.92v.288Zm60 0h-3.92v3.936h-.32v-3.936h-3.9v-.288h3.9V602h.32v3.936h3.92v.288Zm-2939.996 66h-3.92v3.936h-.32v-3.936H-93v-.288h3.904V668h.32v3.936h3.92v.288Zm60 0h-3.92v3.936h-.32v-3.936H-33v-.288h3.904V668h.32v3.936h3.92v.288Zm60 0h-3.92v3.936h-.32v-3.936H27v-.288h3.904V668h.32v3.936h3.92v.288Zm60 0h-3.92v3.936h-.32v-3.936H87v-.288h3.904V668h.32v3.936h3.92v.288Zm60 0h-3.92v3.936h-.32v-3.936H147v-.288h3.904V668h.32v3.936h3.92v.288Zm60 0h-3.92v3.936h-.32v-3.936H207v-.288h3.904V668h.32v3.936h3.92v.288Zm60 0h-3.92v3.936h-.32v-3.936H267v-.288h3.904V668h.32v3.936h3.92v.288Zm60 0h-3.92v3.936h-.32v-3.936H327v-.288h3.904V668h.32v3.936h3.92v.288Zm60 0h-3.92v3.936h-.32v-3.936H387v-.288h3.904V668h.32v3.936h3.92v.288Zm60 0h-3.92v3.936h-.32v-3.936H447v-.288h3.904V668h.32v3.936h3.92v.288Zm60 0h-3.92v3.936h-.32v-3.936H507v-.288h3.904V668h.32v3.936h3.92v.288Zm60 0h-3.92v3.936h-.32v-3.936H567v-.288h3.904V668h.32v3.936h3.92v.288Zm60 0h-3.92v3.936h-.32v-3.936H627v-.288h3.904V668h.32v3.936h3.92v.288Zm60 0h-3.92v3.936h-.32v-3.936H687v-.288h3.904V668h.32v3.936h3.92v.288Zm60 0h-3.92v3.936h-.32v-3.936H747v-.288h3.904V668h.32v3.936h3.92v.288Zm60 0h-3.92v3.936h-.32v-3.936H807v-.288h3.904V668h.32v3.936h3.92v.288Zm60 0h-3.92v3.936h-.32v-3.936H867v-.288h3.904V668h.32v3.936h3.92v.288Zm60 0h-3.92v3.936h-.32v-3.936H927v-.288h3.904V668h.32v3.936h3.92v.288Zm60 0h-3.92v3.936h-.32v-3.936H987v-.288h3.904V668h.32v3.936h3.92v.288Zm59.996 0h-3.92v3.936h-.32v-3.936h-3.9v-.288h3.9V668h.32v3.936h3.92v.288Zm60 0h-3.92v3.936h-.32v-3.936h-3.9v-.288h3.9V668h.32v3.936h3.92v.288Zm60 0h-3.92v3.936h-.32v-3.936h-3.9v-.288h3.9V668h.32v3.936h3.92v.288Zm60 0h-3.92v3.936h-.32v-3.936h-3.9v-.288h3.9V668h.32v3.936h3.92v.288Zm60 0h-3.92v3.936h-.32v-3.936h-3.9v-.288h3.9V668h.32v3.936h3.92v.288Zm60 0h-3.92v3.936h-.32v-3.936h-3.9v-.288h3.9V668h.32v3.936h3.92v.288Zm60 0h-3.92v3.936h-.32v-3.936h-3.9v-.288h3.9V668h.32v3.936h3.92v.288Zm60 0h-3.92v3.936h-.32v-3.936h-3.9v-.288h3.9V668h.32v3.936h3.92v.288Zm60 0h-3.92v3.936h-.32v-3.936h-3.9v-.288h3.9V668h.32v3.936h3.92v.288Zm60 0h-3.92v3.936h-.32v-3.936h-3.9v-.288h3.9V668h.32v3.936h3.92v.288Zm60 0h-3.92v3.936h-.32v-3.936h-3.9v-.288h3.9V668h.32v3.936h3.92v.288Zm60 0h-3.92v3.936h-.32v-3.936h-3.9v-.288h3.9V668h.32v3.936h3.92v.288Zm60 0h-3.92v3.936h-.32v-3.936h-3.9v-.288h3.9V668h.32v3.936h3.92v.288Zm60 0h-3.92v3.936h-.32v-3.936h-3.9v-.288h3.9V668h.32v3.936h3.92v.288Zm60 0h-3.92v3.936h-.32v-3.936h-3.9v-.288h3.9V668h.32v3.936h3.92v.288Zm60 0h-3.92v3.936h-.32v-3.936h-3.9v-.288h3.9V668h.32v3.936h3.92v.288Zm60 0h-3.92v3.936h-.32v-3.936h-3.9v-.288h3.9V668h.32v3.936h3.92v.288Zm60 0h-3.92v3.936h-.32v-3.936h-3.9v-.288h3.9V668h.32v3.936h3.92v.288Zm60 0h-3.92v3.936h-.32v-3.936h-3.9v-.288h3.9V668h.32v3.936h3.92v.288Zm60 0h-3.92v3.936h-.32v-3.936h-3.9v-.288h3.9V668h.32v3.936h3.92v.288Zm60 0h-3.92v3.936h-.32v-3.936h-3.9v-.288h3.9V668h.32v3.936h3.92v.288Zm60 0h-3.92v3.936h-.32v-3.936h-3.9v-.288h3.9V668h.32v3.936h3.92v.288Zm60 0h-3.92v3.936h-.32v-3.936h-3.9v-.288h3.9V668h.32v3.936h3.92v.288Zm60 0h-3.92v3.936h-.32v-3.936h-3.9v-.288h3.9V668h.32v3.936h3.92v.288Zm60 0h-3.92v3.936h-.32v-3.936h-3.9v-.288h3.9V668h.32v3.936h3.92v.288Zm60 0h-3.92v3.936h-.32v-3.936h-3.9v-.288h3.9V668h.32v3.936h3.92v.288Zm60 0h-3.92v3.936h-.32v-3.936h-3.9v-.288h3.9V668h.32v3.936h3.92v.288Zm60 0h-3.92v3.936h-.32v-3.936h-3.9v-.288h3.9V668h.32v3.936h3.92v.288Zm60 0h-3.92v3.936h-.32v-3.936h-3.9v-.288h3.9V668h.32v3.936h3.92v.288Zm60 0h-3.92v3.936h-.32v-3.936h-3.9v-.288h3.9V668h.32v3.936h3.92v.288Zm60 0h-3.92v3.936h-.32v-3.936h-3.9v-.288h3.9V668h.32v3.936h3.92v.288Zm-2939.996 66h-3.92v3.936h-.32v-3.936H-93v-.288h3.904V734h.32v3.936h3.92v.288Zm60 0h-3.92v3.936h-.32v-3.936H-33v-.288h3.904V734h.32v3.936h3.92v.288Zm60 0h-3.92v3.936h-.32v-3.936H27v-.288h3.904V734h.32v3.936h3.92v.288Zm60 0h-3.92v3.936h-.32v-3.936H87v-.288h3.904V734h.32v3.936h3.92v.288Zm60 0h-3.92v3.936h-.32v-3.936H147v-.288h3.904V734h.32v3.936h3.92v.288Zm60 0h-3.92v3.936h-.32v-3.936H207v-.288h3.904V734h.32v3.936h3.92v.288Zm60 0h-3.92v3.936h-.32v-3.936H267v-.288h3.904V734h.32v3.936h3.92v.288Zm60 0h-3.92v3.936h-.32v-3.936H327v-.288h3.904V734h.32v3.936h3.92v.288Zm60 0h-3.92v3.936h-.32v-3.936H387v-.288h3.904V734h.32v3.936h3.92v.288Zm60 0h-3.92v3.936h-.32v-3.936H447v-.288h3.904V734h.32v3.936h3.92v.288Zm60 0h-3.92v3.936h-.32v-3.936H507v-.288h3.904V734h.32v3.936h3.92v.288Zm60 0h-3.92v3.936h-.32v-3.936H567v-.288h3.904V734h.32v3.936h3.92v.288Zm60 0h-3.92v3.936h-.32v-3.936H627v-.288h3.904V734h.32v3.936h3.92v.288Zm60 0h-3.92v3.936h-.32v-3.936H687v-.288h3.904V734h.32v3.936h3.92v.288Zm60 0h-3.92v3.936h-.32v-3.936H747v-.288h3.904V734h.32v3.936h3.92v.288Zm60 0h-3.92v3.936h-.32v-3.936H807v-.288h3.904V734h.32v3.936h3.92v.288Zm60 0h-3.92v3.936h-.32v-3.936H867v-.288h3.904V734h.32v3.936h3.92v.288Zm60 0h-3.92v3.936h-.32v-3.936H927v-.288h3.904V734h.32v3.936h3.92v.288Zm60 0h-3.92v3.936h-.32v-3.936H987v-.288h3.904V734h.32v3.936h3.92v.288Zm59.996 0h-3.92v3.936h-.32v-3.936h-3.9v-.288h3.9V734h.32v3.936h3.92v.288Zm60 0h-3.92v3.936h-.32v-3.936h-3.9v-.288h3.9V734h.32v3.936h3.92v.288Zm60 0h-3.92v3.936h-.32v-3.936h-3.9v-.288h3.9V734h.32v3.936h3.92v.288Zm60 0h-3.92v3.936h-.32v-3.936h-3.9v-.288h3.9V734h.32v3.936h3.92v.288Zm60 0h-3.92v3.936h-.32v-3.936h-3.9v-.288h3.9V734h.32v3.936h3.92v.288Zm60 0h-3.92v3.936h-.32v-3.936h-3.9v-.288h3.9V734h.32v3.936h3.92v.288Zm60 0h-3.92v3.936h-.32v-3.936h-3.9v-.288h3.9V734h.32v3.936h3.92v.288Zm60 0h-3.92v3.936h-.32v-3.936h-3.9v-.288h3.9V734h.32v3.936h3.92v.288Zm60 0h-3.92v3.936h-.32v-3.936h-3.9v-.288h3.9V734h.32v3.936h3.92v.288Zm60 0h-3.92v3.936h-.32v-3.936h-3.9v-.288h3.9V734h.32v3.936h3.92v.288Zm60 0h-3.92v3.936h-.32v-3.936h-3.9v-.288h3.9V734h.32v3.936h3.92v.288Zm60 0h-3.92v3.936h-.32v-3.936h-3.9v-.288h3.9V734h.32v3.936h3.92v.288Zm60 0h-3.92v3.936h-.32v-3.936h-3.9v-.288h3.9V734h.32v3.936h3.92v.288Zm60 0h-3.92v3.936h-.32v-3.936h-3.9v-.288h3.9V734h.32v3.936h3.92v.288Zm60 0h-3.92v3.936h-.32v-3.936h-3.9v-.288h3.9V734h.32v3.936h3.92v.288Zm60 0h-3.92v3.936h-.32v-3.936h-3.9v-.288h3.9V734h.32v3.936h3.92v.288Zm60 0h-3.92v3.936h-.32v-3.936h-3.9v-.288h3.9V734h.32v3.936h3.92v.288Zm60 0h-3.92v3.936h-.32v-3.936h-3.9v-.288h3.9V734h.32v3.936h3.92v.288Zm60 0h-3.92v3.936h-.32v-3.936h-3.9v-.288h3.9V734h.32v3.936h3.92v.288Zm60 0h-3.92v3.936h-.32v-3.936h-3.9v-.288h3.9V734h.32v3.936h3.92v.288Zm60 0h-3.92v3.936h-.32v-3.936h-3.9v-.288h3.9V734h.32v3.936h3.92v.288Zm60 0h-3.92v3.936h-.32v-3.936h-3.9v-.288h3.9V734h.32v3.936h3.92v.288Zm60 0h-3.92v3.936h-.32v-3.936h-3.9v-.288h3.9V734h.32v3.936h3.92v.288Zm60 0h-3.92v3.936h-.32v-3.936h-3.9v-.288h3.9V734h.32v3.936h3.92v.288Zm60 0h-3.92v3.936h-.32v-3.936h-3.9v-.288h3.9V734h.32v3.936h3.92v.288Zm60 0h-3.92v3.936h-.32v-3.936h-3.9v-.288h3.9V734h.32v3.936h3.92v.288Zm60 0h-3.92v3.936h-.32v-3.936h-3.9v-.288h3.9V734h.32v3.936h3.92v.288Zm60 0h-3.92v3.936h-.32v-3.936h-3.9v-.288h3.9V734h.32v3.936h3.92v.288Zm60 0h-3.92v3.936h-.32v-3.936h-3.9v-.288h3.9V734h.32v3.936h3.92v.288Zm60 0h-3.92v3.936h-.32v-3.936h-3.9v-.288h3.9V734h.32v3.936h3.92v.288Zm60 0h-3.92v3.936h-.32v-3.936h-3.9v-.288h3.9V734h.32v3.936h3.92v.288Zm-2939.996 66h-3.92v3.936h-.32v-3.936H-93v-.288h3.904V800h.32v3.936h3.92v.288Zm60 0h-3.92v3.936h-.32v-3.936H-33v-.288h3.904V800h.32v3.936h3.92v.288Zm60 0h-3.92v3.936h-.32v-3.936H27v-.288h3.904V800h.32v3.936h3.92v.288Zm60 0h-3.92v3.936h-.32v-3.936H87v-.288h3.904V800h.32v3.936h3.92v.288Zm60 0h-3.92v3.936h-.32v-3.936H147v-.288h3.904V800h.32v3.936h3.92v.288Zm60 0h-3.92v3.936h-.32v-3.936H207v-.288h3.904V800h.32v3.936h3.92v.288Zm60 0h-3.92v3.936h-.32v-3.936H267v-.288h3.904V800h.32v3.936h3.92v.288Zm60 0h-3.92v3.936h-.32v-3.936H327v-.288h3.904V800h.32v3.936h3.92v.288Zm60 0h-3.92v3.936h-.32v-3.936H387v-.288h3.904V800h.32v3.936h3.92v.288Zm60 0h-3.92v3.936h-.32v-3.936H447v-.288h3.904V800h.32v3.936h3.92v.288Zm60 0h-3.92v3.936h-.32v-3.936H507v-.288h3.904V800h.32v3.936h3.92v.288Zm60 0h-3.92v3.936h-.32v-3.936H567v-.288h3.904V800h.32v3.936h3.92v.288Zm60 0h-3.92v3.936h-.32v-3.936H627v-.288h3.904V800h.32v3.936h3.92v.288Zm60 0h-3.92v3.936h-.32v-3.936H687v-.288h3.904V800h.32v3.936h3.92v.288Zm60 0h-3.92v3.936h-.32v-3.936H747v-.288h3.904V800h.32v3.936h3.92v.288Zm60 0h-3.92v3.936h-.32v-3.936H807v-.288h3.904V800h.32v3.936h3.92v.288Zm60 0h-3.92v3.936h-.32v-3.936H867v-.288h3.904V800h.32v3.936h3.92v.288Zm60 0h-3.92v3.936h-.32v-3.936H927v-.288h3.904V800h.32v3.936h3.92v.288Zm60 0h-3.92v3.936h-.32v-3.936H987v-.288h3.904V800h.32v3.936h3.92v.288Zm59.996 0h-3.92v3.936h-.32v-3.936h-3.9v-.288h3.9V800h.32v3.936h3.92v.288Zm60 0h-3.92v3.936h-.32v-3.936h-3.9v-.288h3.9V800h.32v3.936h3.92v.288Zm60 0h-3.92v3.936h-.32v-3.936h-3.9v-.288h3.9V800h.32v3.936h3.92v.288Zm60 0h-3.92v3.936h-.32v-3.936h-3.9v-.288h3.9V800h.32v3.936h3.92v.288Zm60 0h-3.92v3.936h-.32v-3.936h-3.9v-.288h3.9V800h.32v3.936h3.92v.288Zm60 0h-3.92v3.936h-.32v-3.936h-3.9v-.288h3.9V800h.32v3.936h3.92v.288Zm60 0h-3.92v3.936h-.32v-3.936h-3.9v-.288h3.9V800h.32v3.936h3.92v.288Zm60 0h-3.92v3.936h-.32v-3.936h-3.9v-.288h3.9V800h.32v3.936h3.92v.288Zm60 0h-3.92v3.936h-.32v-3.936h-3.9v-.288h3.9V800h.32v3.936h3.92v.288Zm60 0h-3.92v3.936h-.32v-3.936h-3.9v-.288h3.9V800h.32v3.936h3.92v.288Zm60 0h-3.92v3.936h-.32v-3.936h-3.9v-.288h3.9V800h.32v3.936h3.92v.288Zm60 0h-3.92v3.936h-.32v-3.936h-3.9v-.288h3.9V800h.32v3.936h3.92v.288Zm60 0h-3.92v3.936h-.32v-3.936h-3.9v-.288h3.9V800h.32v3.936h3.92v.288Zm60 0h-3.92v3.936h-.32v-3.936h-3.9v-.288h3.9V800h.32v3.936h3.92v.288Zm60 0h-3.92v3.936h-.32v-3.936h-3.9v-.288h3.9V800h.32v3.936h3.92v.288Zm60 0h-3.92v3.936h-.32v-3.936h-3.9v-.288h3.9V800h.32v3.936h3.92v.288Zm60 0h-3.92v3.936h-.32v-3.936h-3.9v-.288h3.9V800h.32v3.936h3.92v.288Zm60 0h-3.92v3.936h-.32v-3.936h-3.9v-.288h3.9V800h.32v3.936h3.92v.288Zm60 0h-3.92v3.936h-.32v-3.936h-3.9v-.288h3.9V800h.32v3.936h3.92v.288Zm60 0h-3.92v3.936h-.32v-3.936h-3.9v-.288h3.9V800h.32v3.936h3.92v.288Zm60 0h-3.92v3.936h-.32v-3.936h-3.9v-.288h3.9V800h.32v3.936h3.92v.288Zm60 0h-3.92v3.936h-.32v-3.936h-3.9v-.288h3.9V800h.32v3.936h3.92v.288Zm60 0h-3.92v3.936h-.32v-3.936h-3.9v-.288h3.9V800h.32v3.936h3.92v.288Zm60 0h-3.92v3.936h-.32v-3.936h-3.9v-.288h3.9V800h.32v3.936h3.92v.288Zm60 0h-3.92v3.936h-.32v-3.936h-3.9v-.288h3.9V800h.32v3.936h3.92v.288Zm60 0h-3.92v3.936h-.32v-3.936h-3.9v-.288h3.9V800h.32v3.936h3.92v.288Zm60 0h-3.92v3.936h-.32v-3.936h-3.9v-.288h3.9V800h.32v3.936h3.92v.288Zm60 0h-3.92v3.936h-.32v-3.936h-3.9v-.288h3.9V800h.32v3.936h3.92v.288Zm60 0h-3.92v3.936h-.32v-3.936h-3.9v-.288h3.9V800h.32v3.936h3.92v.288Zm60 0h-3.92v3.936h-.32v-3.936h-3.9v-.288h3.9V800h.32v3.936h3.92v.288Zm60 0h-3.92v3.936h-.32v-3.936h-3.9v-.288h3.9V800h.32v3.936h3.92v.288Zm-2939.996 66h-3.92v3.936h-.32v-3.936H-93v-.288h3.904V866h.32v3.936h3.92v.288Zm60 0h-3.92v3.936h-.32v-3.936H-33v-.288h3.904V866h.32v3.936h3.92v.288Zm60 0h-3.92v3.936h-.32v-3.936H27v-.288h3.904V866h.32v3.936h3.92v.288Zm60 0h-3.92v3.936h-.32v-3.936H87v-.288h3.904V866h.32v3.936h3.92v.288Zm60 0h-3.92v3.936h-.32v-3.936H147v-.288h3.904V866h.32v3.936h3.92v.288Zm60 0h-3.92v3.936h-.32v-3.936H207v-.288h3.904V866h.32v3.936h3.92v.288Zm60 0h-3.92v3.936h-.32v-3.936H267v-.288h3.904V866h.32v3.936h3.92v.288Zm60 0h-3.92v3.936h-.32v-3.936H327v-.288h3.904V866h.32v3.936h3.92v.288Zm60 0h-3.92v3.936h-.32v-3.936H387v-.288h3.904V866h.32v3.936h3.92v.288Zm60 0h-3.92v3.936h-.32v-3.936H447v-.288h3.904V866h.32v3.936h3.92v.288Zm60 0h-3.92v3.936h-.32v-3.936H507v-.288h3.904V866h.32v3.936h3.92v.288Zm60 0h-3.92v3.936h-.32v-3.936H567v-.288h3.904V866h.32v3.936h3.92v.288Zm60 0h-3.92v3.936h-.32v-3.936H627v-.288h3.904V866h.32v3.936h3.92v.288Zm60 0h-3.92v3.936h-.32v-3.936H687v-.288h3.904V866h.32v3.936h3.92v.288Zm60 0h-3.92v3.936h-.32v-3.936H747v-.288h3.904V866h.32v3.936h3.92v.288Zm60 0h-3.92v3.936h-.32v-3.936H807v-.288h3.904V866h.32v3.936h3.92v.288Zm60 0h-3.92v3.936h-.32v-3.936H867v-.288h3.904V866h.32v3.936h3.92v.288Zm60 0h-3.92v3.936h-.32v-3.936H927v-.288h3.904V866h.32v3.936h3.92v.288Zm60 0h-3.92v3.936h-.32v-3.936H987v-.288h3.904V866h.32v3.936h3.92v.288Zm59.996 0h-3.92v3.936h-.32v-3.936h-3.9v-.288h3.9V866h.32v3.936h3.92v.288Zm60 0h-3.92v3.936h-.32v-3.936h-3.9v-.288h3.9V866h.32v3.936h3.92v.288Zm60 0h-3.92v3.936h-.32v-3.936h-3.9v-.288h3.9V866h.32v3.936h3.92v.288Zm60 0h-3.92v3.936h-.32v-3.936h-3.9v-.288h3.9V866h.32v3.936h3.92v.288Zm60 0h-3.92v3.936h-.32v-3.936h-3.9v-.288h3.9V866h.32v3.936h3.92v.288Zm60 0h-3.92v3.936h-.32v-3.936h-3.9v-.288h3.9V866h.32v3.936h3.92v.288Zm60 0h-3.92v3.936h-.32v-3.936h-3.9v-.288h3.9V866h.32v3.936h3.92v.288Zm60 0h-3.92v3.936h-.32v-3.936h-3.9v-.288h3.9V866h.32v3.936h3.92v.288Zm60 0h-3.92v3.936h-.32v-3.936h-3.9v-.288h3.9V866h.32v3.936h3.92v.288Zm60 0h-3.92v3.936h-.32v-3.936h-3.9v-.288h3.9V866h.32v3.936h3.92v.288Zm60 0h-3.92v3.936h-.32v-3.936h-3.9v-.288h3.9V866h.32v3.936h3.92v.288Zm60 0h-3.92v3.936h-.32v-3.936h-3.9v-.288h3.9V866h.32v3.936h3.92v.288Zm60 0h-3.92v3.936h-.32v-3.936h-3.9v-.288h3.9V866h.32v3.936h3.92v.288Zm60 0h-3.92v3.936h-.32v-3.936h-3.9v-.288h3.9V866h.32v3.936h3.92v.288Zm60 0h-3.92v3.936h-.32v-3.936h-3.9v-.288h3.9V866h.32v3.936h3.92v.288Zm60 0h-3.92v3.936h-.32v-3.936h-3.9v-.288h3.9V866h.32v3.936h3.92v.288Zm60 0h-3.92v3.936h-.32v-3.936h-3.9v-.288h3.9V866h.32v3.936h3.92v.288Zm60 0h-3.92v3.936h-.32v-3.936h-3.9v-.288h3.9V866h.32v3.936h3.92v.288Zm60 0h-3.92v3.936h-.32v-3.936h-3.9v-.288h3.9V866h.32v3.936h3.92v.288Zm60 0h-3.92v3.936h-.32v-3.936h-3.9v-.288h3.9V866h.32v3.936h3.92v.288Zm60 0h-3.92v3.936h-.32v-3.936h-3.9v-.288h3.9V866h.32v3.936h3.92v.288Zm60 0h-3.92v3.936h-.32v-3.936h-3.9v-.288h3.9V866h.32v3.936h3.92v.288Zm60 0h-3.92v3.936h-.32v-3.936h-3.9v-.288h3.9V866h.32v3.936h3.92v.288Zm60 0h-3.92v3.936h-.32v-3.936h-3.9v-.288h3.9V866h.32v3.936h3.92v.288Zm60 0h-3.92v3.936h-.32v-3.936h-3.9v-.288h3.9V866h.32v3.936h3.92v.288Zm60 0h-3.92v3.936h-.32v-3.936h-3.9v-.288h3.9V866h.32v3.936h3.92v.288Zm60 0h-3.92v3.936h-.32v-3.936h-3.9v-.288h3.9V866h.32v3.936h3.92v.288Zm60 0h-3.92v3.936h-.32v-3.936h-3.9v-.288h3.9V866h.32v3.936h3.92v.288Zm60 0h-3.92v3.936h-.32v-3.936h-3.9v-.288h3.9V866h.32v3.936h3.92v.288Zm60 0h-3.92v3.936h-.32v-3.936h-3.9v-.288h3.9V866h.32v3.936h3.92v.288Zm60 0h-3.92v3.936h-.32v-3.936h-3.9v-.288h3.9V866h.32v3.936h3.92v.288Zm-2939.996 66h-3.92v3.936h-.32v-3.936H-93v-.288h3.904V932h.32v3.936h3.92v.288Zm60 0h-3.92v3.936h-.32v-3.936H-33v-.288h3.904V932h.32v3.936h3.92v.288Zm60 0h-3.92v3.936h-.32v-3.936H27v-.288h3.904V932h.32v3.936h3.92v.288Zm60 0h-3.92v3.936h-.32v-3.936H87v-.288h3.904V932h.32v3.936h3.92v.288Zm60 0h-3.92v3.936h-.32v-3.936H147v-.288h3.904V932h.32v3.936h3.92v.288Zm60 0h-3.92v3.936h-.32v-3.936H207v-.288h3.904V932h.32v3.936h3.92v.288Zm60 0h-3.92v3.936h-.32v-3.936H267v-.288h3.904V932h.32v3.936h3.92v.288Zm60 0h-3.92v3.936h-.32v-3.936H327v-.288h3.904V932h.32v3.936h3.92v.288Zm60 0h-3.92v3.936h-.32v-3.936H387v-.288h3.904V932h.32v3.936h3.92v.288Zm60 0h-3.92v3.936h-.32v-3.936H447v-.288h3.904V932h.32v3.936h3.92v.288Zm60 0h-3.92v3.936h-.32v-3.936H507v-.288h3.904V932h.32v3.936h3.92v.288Zm60 0h-3.92v3.936h-.32v-3.936H567v-.288h3.904V932h.32v3.936h3.92v.288Zm60 0h-3.92v3.936h-.32v-3.936H627v-.288h3.904V932h.32v3.936h3.92v.288Zm60 0h-3.92v3.936h-.32v-3.936H687v-.288h3.904V932h.32v3.936h3.92v.288Zm60 0h-3.92v3.936h-.32v-3.936H747v-.288h3.904V932h.32v3.936h3.92v.288Zm60 0h-3.92v3.936h-.32v-3.936H807v-.288h3.904V932h.32v3.936h3.92v.288Zm60 0h-3.92v3.936h-.32v-3.936H867v-.288h3.904V932h.32v3.936h3.92v.288Zm60 0h-3.92v3.936h-.32v-3.936H927v-.288h3.904V932h.32v3.936h3.92v.288Zm60 0h-3.92v3.936h-.32v-3.936H987v-.288h3.904V932h.32v3.936h3.92v.288Zm59.996 0h-3.92v3.936h-.32v-3.936h-3.9v-.288h3.9V932h.32v3.936h3.92v.288Zm60 0h-3.92v3.936h-.32v-3.936h-3.9v-.288h3.9V932h.32v3.936h3.92v.288Zm60 0h-3.92v3.936h-.32v-3.936h-3.9v-.288h3.9V932h.32v3.936h3.92v.288Zm60 0h-3.92v3.936h-.32v-3.936h-3.9v-.288h3.9V932h.32v3.936h3.92v.288Zm60 0h-3.92v3.936h-.32v-3.936h-3.9v-.288h3.9V932h.32v3.936h3.92v.288Zm60 0h-3.92v3.936h-.32v-3.936h-3.9v-.288h3.9V932h.32v3.936h3.92v.288Zm60 0h-3.92v3.936h-.32v-3.936h-3.9v-.288h3.9V932h.32v3.936h3.92v.288Zm60 0h-3.92v3.936h-.32v-3.936h-3.9v-.288h3.9V932h.32v3.936h3.92v.288Zm60 0h-3.92v3.936h-.32v-3.936h-3.9v-.288h3.9V932h.32v3.936h3.92v.288Zm60 0h-3.92v3.936h-.32v-3.936h-3.9v-.288h3.9V932h.32v3.936h3.92v.288Zm60 0h-3.92v3.936h-.32v-3.936h-3.9v-.288h3.9V932h.32v3.936h3.92v.288Zm60 0h-3.92v3.936h-.32v-3.936h-3.9v-.288h3.9V932h.32v3.936h3.92v.288Zm60 0h-3.92v3.936h-.32v-3.936h-3.9v-.288h3.9V932h.32v3.936h3.92v.288Zm60 0h-3.92v3.936h-.32v-3.936h-3.9v-.288h3.9V932h.32v3.936h3.92v.288Zm60 0h-3.92v3.936h-.32v-3.936h-3.9v-.288h3.9V932h.32v3.936h3.92v.288Zm60 0h-3.92v3.936h-.32v-3.936h-3.9v-.288h3.9V932h.32v3.936h3.92v.288Zm60 0h-3.92v3.936h-.32v-3.936h-3.9v-.288h3.9V932h.32v3.936h3.92v.288Zm60 0h-3.92v3.936h-.32v-3.936h-3.9v-.288h3.9V932h.32v3.936h3.92v.288Zm60 0h-3.92v3.936h-.32v-3.936h-3.9v-.288h3.9V932h.32v3.936h3.92v.288Zm60 0h-3.92v3.936h-.32v-3.936h-3.9v-.288h3.9V932h.32v3.936h3.92v.288Zm60 0h-3.92v3.936h-.32v-3.936h-3.9v-.288h3.9V932h.32v3.936h3.92v.288Zm60 0h-3.92v3.936h-.32v-3.936h-3.9v-.288h3.9V932h.32v3.936h3.92v.288Zm60 0h-3.92v3.936h-.32v-3.936h-3.9v-.288h3.9V932h.32v3.936h3.92v.288Zm60 0h-3.92v3.936h-.32v-3.936h-3.9v-.288h3.9V932h.32v3.936h3.92v.288Zm60 0h-3.92v3.936h-.32v-3.936h-3.9v-.288h3.9V932h.32v3.936h3.92v.288Zm60 0h-3.92v3.936h-.32v-3.936h-3.9v-.288h3.9V932h.32v3.936h3.92v.288Zm60 0h-3.92v3.936h-.32v-3.936h-3.9v-.288h3.9V932h.32v3.936h3.92v.288Zm60 0h-3.92v3.936h-.32v-3.936h-3.9v-.288h3.9V932h.32v3.936h3.92v.288Zm60 0h-3.92v3.936h-.32v-3.936h-3.9v-.288h3.9V932h.32v3.936h3.92v.288Zm60 0h-3.92v3.936h-.32v-3.936h-3.9v-.288h3.9V932h.32v3.936h3.92v.288Zm60 0h-3.92v3.936h-.32v-3.936h-3.9v-.288h3.9V932h.32v3.936h3.92v.288ZM-84.856 1002.22h-3.92v3.94h-.32v-3.94H-93v-.28h3.904V998h.32v3.94h3.92v.28Zm60 0h-3.92v3.94h-.32v-3.94H-33v-.28h3.904V998h.32v3.94h3.92v.28Zm60 0h-3.92v3.94h-.32v-3.94H27v-.28h3.904V998h.32v3.94h3.92v.28Zm60 0h-3.92v3.94h-.32v-3.94H87v-.28h3.904V998h.32v3.94h3.92v.28Zm60 0h-3.92v3.94h-.32v-3.94H147v-.28h3.904V998h.32v3.94h3.92v.28Zm60 0h-3.92v3.94h-.32v-3.94H207v-.28h3.904V998h.32v3.94h3.92v.28Zm60 0h-3.92v3.94h-.32v-3.94H267v-.28h3.904V998h.32v3.94h3.92v.28Zm60 0h-3.92v3.94h-.32v-3.94H327v-.28h3.904V998h.32v3.94h3.92v.28Zm60 0h-3.92v3.94h-.32v-3.94H387v-.28h3.904V998h.32v3.94h3.92v.28Zm60 0h-3.92v3.94h-.32v-3.94H447v-.28h3.904V998h.32v3.94h3.92v.28Zm60 0h-3.92v3.94h-.32v-3.94H507v-.28h3.904V998h.32v3.94h3.92v.28Zm60 0h-3.92v3.94h-.32v-3.94H567v-.28h3.904V998h.32v3.94h3.92v.28Zm60 0h-3.92v3.94h-.32v-3.94H627v-.28h3.904V998h.32v3.94h3.92v.28Zm60 0h-3.92v3.94h-.32v-3.94H687v-.28h3.904V998h.32v3.94h3.92v.28Zm60 0h-3.92v3.94h-.32v-3.94H747v-.28h3.904V998h.32v3.94h3.92v.28Zm60 0h-3.92v3.94h-.32v-3.94H807v-.28h3.904V998h.32v3.94h3.92v.28Zm60 0h-3.92v3.94h-.32v-3.94H867v-.28h3.904V998h.32v3.94h3.92v.28Zm60 0h-3.92v3.94h-.32v-3.94H927v-.28h3.904V998h.32v3.94h3.92v.28Zm60 0h-3.92v3.94h-.32v-3.94H987v-.28h3.904V998h.32v3.94h3.92v.28Zm59.996 0h-3.92v3.94h-.32v-3.94h-3.9v-.28h3.9V998h.32v3.94h3.92v.28Zm60 0h-3.92v3.94h-.32v-3.94h-3.9v-.28h3.9V998h.32v3.94h3.92v.28Zm60 0h-3.92v3.94h-.32v-3.94h-3.9v-.28h3.9V998h.32v3.94h3.92v.28Zm60 0h-3.92v3.94h-.32v-3.94h-3.9v-.28h3.9V998h.32v3.94h3.92v.28Zm60 0h-3.92v3.94h-.32v-3.94h-3.9v-.28h3.9V998h.32v3.94h3.92v.28Zm60 0h-3.92v3.94h-.32v-3.94h-3.9v-.28h3.9V998h.32v3.94h3.92v.28Zm60 0h-3.92v3.94h-.32v-3.94h-3.9v-.28h3.9V998h.32v3.94h3.92v.28Zm60 0h-3.92v3.94h-.32v-3.94h-3.9v-.28h3.9V998h.32v3.94h3.92v.28Zm60 0h-3.92v3.94h-.32v-3.94h-3.9v-.28h3.9V998h.32v3.94h3.92v.28Zm60 0h-3.92v3.94h-.32v-3.94h-3.9v-.28h3.9V998h.32v3.94h3.92v.28Zm60 0h-3.92v3.94h-.32v-3.94h-3.9v-.28h3.9V998h.32v3.94h3.92v.28Zm60 0h-3.92v3.94h-.32v-3.94h-3.9v-.28h3.9V998h.32v3.94h3.92v.28Zm60 0h-3.92v3.94h-.32v-3.94h-3.9v-.28h3.9V998h.32v3.94h3.92v.28Zm60 0h-3.92v3.94h-.32v-3.94h-3.9v-.28h3.9V998h.32v3.94h3.92v.28Zm60 0h-3.92v3.94h-.32v-3.94h-3.9v-.28h3.9V998h.32v3.94h3.92v.28Zm60 0h-3.92v3.94h-.32v-3.94h-3.9v-.28h3.9V998h.32v3.94h3.92v.28Zm60 0h-3.92v3.94h-.32v-3.94h-3.9v-.28h3.9V998h.32v3.94h3.92v.28Zm60 0h-3.92v3.94h-.32v-3.94h-3.9v-.28h3.9V998h.32v3.94h3.92v.28Zm60 0h-3.92v3.94h-.32v-3.94h-3.9v-.28h3.9V998h.32v3.94h3.92v.28Zm60 0h-3.92v3.94h-.32v-3.94h-3.9v-.28h3.9V998h.32v3.94h3.92v.28Zm60 0h-3.92v3.94h-.32v-3.94h-3.9v-.28h3.9V998h.32v3.94h3.92v.28Zm60 0h-3.92v3.94h-.32v-3.94h-3.9v-.28h3.9V998h.32v3.94h3.92v.28Zm60 0h-3.92v3.94h-.32v-3.94h-3.9v-.28h3.9V998h.32v3.94h3.92v.28Zm60 0h-3.92v3.94h-.32v-3.94h-3.9v-.28h3.9V998h.32v3.94h3.92v.28Zm60 0h-3.92v3.94h-.32v-3.94h-3.9v-.28h3.9V998h.32v3.94h3.92v.28Zm60 0h-3.92v3.94h-.32v-3.94h-3.9v-.28h3.9V998h.32v3.94h3.92v.28Zm60 0h-3.92v3.94h-.32v-3.94h-3.9v-.28h3.9V998h.32v3.94h3.92v.28Zm60 0h-3.92v3.94h-.32v-3.94h-3.9v-.28h3.9V998h.32v3.94h3.92v.28Zm60 0h-3.92v3.94h-.32v-3.94h-3.9v-.28h3.9V998h.32v3.94h3.92v.28Zm60 0h-3.92v3.94h-.32v-3.94h-3.9v-.28h3.9V998h.32v3.94h3.92v.28Zm60 0h-3.92v3.94h-.32v-3.94h-3.9v-.28h3.9V998h.32v3.94h3.92v.28Zm-2939.996 66h-3.92v3.94h-.32v-3.94H-93v-.28h3.904V1064h.32v3.94h3.92v.28Zm60 0h-3.92v3.94h-.32v-3.94H-33v-.28h3.904V1064h.32v3.94h3.92v.28Zm60 0h-3.92v3.94h-.32v-3.94H27v-.28h3.904V1064h.32v3.94h3.92v.28Zm60 0h-3.92v3.94h-.32v-3.94H87v-.28h3.904V1064h.32v3.94h3.92v.28Zm60 0h-3.92v3.94h-.32v-3.94H147v-.28h3.904V1064h.32v3.94h3.92v.28Zm60 0h-3.92v3.94h-.32v-3.94H207v-.28h3.904V1064h.32v3.94h3.92v.28Zm60 0h-3.92v3.94h-.32v-3.94H267v-.28h3.904V1064h.32v3.94h3.92v.28Zm60 0h-3.92v3.94h-.32v-3.94H327v-.28h3.904V1064h.32v3.94h3.92v.28Zm60 0h-3.92v3.94h-.32v-3.94H387v-.28h3.904V1064h.32v3.94h3.92v.28Zm60 0h-3.92v3.94h-.32v-3.94H447v-.28h3.904V1064h.32v3.94h3.92v.28Zm60 0h-3.92v3.94h-.32v-3.94H507v-.28h3.904V1064h.32v3.94h3.92v.28Zm60 0h-3.92v3.94h-.32v-3.94H567v-.28h3.904V1064h.32v3.94h3.92v.28Zm60 0h-3.92v3.94h-.32v-3.94H627v-.28h3.904V1064h.32v3.94h3.92v.28Zm60 0h-3.92v3.94h-.32v-3.94H687v-.28h3.904V1064h.32v3.94h3.92v.28Zm60 0h-3.92v3.94h-.32v-3.94H747v-.28h3.904V1064h.32v3.94h3.92v.28Zm60 0h-3.92v3.94h-.32v-3.94H807v-.28h3.904V1064h.32v3.94h3.92v.28Zm60 0h-3.92v3.94h-.32v-3.94H867v-.28h3.904V1064h.32v3.94h3.92v.28Zm60 0h-3.92v3.94h-.32v-3.94H927v-.28h3.904V1064h.32v3.94h3.92v.28Zm60 0h-3.92v3.94h-.32v-3.94H987v-.28h3.904V1064h.32v3.94h3.92v.28Zm59.996 0h-3.92v3.94h-.32v-3.94h-3.9v-.28h3.9V1064h.32v3.94h3.92v.28Zm60 0h-3.92v3.94h-.32v-3.94h-3.9v-.28h3.9V1064h.32v3.94h3.92v.28Zm60 0h-3.92v3.94h-.32v-3.94h-3.9v-.28h3.9V1064h.32v3.94h3.92v.28Zm60 0h-3.92v3.94h-.32v-3.94h-3.9v-.28h3.9V1064h.32v3.94h3.92v.28Zm60 0h-3.92v3.94h-.32v-3.94h-3.9v-.28h3.9V1064h.32v3.94h3.92v.28Zm60 0h-3.92v3.94h-.32v-3.94h-3.9v-.28h3.9V1064h.32v3.94h3.92v.28Zm60 0h-3.92v3.94h-.32v-3.94h-3.9v-.28h3.9V1064h.32v3.94h3.92v.28Zm60 0h-3.92v3.94h-.32v-3.94h-3.9v-.28h3.9V1064h.32v3.94h3.92v.28Zm60 0h-3.92v3.94h-.32v-3.94h-3.9v-.28h3.9V1064h.32v3.94h3.92v.28Zm60 0h-3.92v3.94h-.32v-3.94h-3.9v-.28h3.9V1064h.32v3.94h3.92v.28Zm60 0h-3.92v3.94h-.32v-3.94h-3.9v-.28h3.9V1064h.32v3.94h3.92v.28Zm60 0h-3.92v3.94h-.32v-3.94h-3.9v-.28h3.9V1064h.32v3.94h3.92v.28Zm60 0h-3.92v3.94h-.32v-3.94h-3.9v-.28h3.9V1064h.32v3.94h3.92v.28Zm60 0h-3.92v3.94h-.32v-3.94h-3.9v-.28h3.9V1064h.32v3.94h3.92v.28Zm60 0h-3.92v3.94h-.32v-3.94h-3.9v-.28h3.9V1064h.32v3.94h3.92v.28Zm60 0h-3.92v3.94h-.32v-3.94h-3.9v-.28h3.9V1064h.32v3.94h3.92v.28Zm60 0h-3.92v3.94h-.32v-3.94h-3.9v-.28h3.9V1064h.32v3.94h3.92v.28Zm60 0h-3.92v3.94h-.32v-3.94h-3.9v-.28h3.9V1064h.32v3.94h3.92v.28Zm60 0h-3.92v3.94h-.32v-3.94h-3.9v-.28h3.9V1064h.32v3.94h3.92v.28Zm60 0h-3.92v3.94h-.32v-3.94h-3.9v-.28h3.9V1064h.32v3.94h3.92v.28Zm60 0h-3.92v3.94h-.32v-3.94h-3.9v-.28h3.9V1064h.32v3.94h3.92v.28Zm60 0h-3.92v3.94h-.32v-3.94h-3.9v-.28h3.9V1064h.32v3.94h3.92v.28Zm60 0h-3.92v3.94h-.32v-3.94h-3.9v-.28h3.9V1064h.32v3.94h3.92v.28Zm60 0h-3.92v3.94h-.32v-3.94h-3.9v-.28h3.9V1064h.32v3.94h3.92v.28Zm60 0h-3.92v3.94h-.32v-3.94h-3.9v-.28h3.9V1064h.32v3.94h3.92v.28Zm60 0h-3.92v3.94h-.32v-3.94h-3.9v-.28h3.9V1064h.32v3.94h3.92v.28Zm60 0h-3.92v3.94h-.32v-3.94h-3.9v-.28h3.9V1064h.32v3.94h3.92v.28Zm60 0h-3.92v3.94h-.32v-3.94h-3.9v-.28h3.9V1064h.32v3.94h3.92v.28Zm60 0h-3.92v3.94h-.32v-3.94h-3.9v-.28h3.9V1064h.32v3.94h3.92v.28Zm60 0h-3.92v3.94h-.32v-3.94h-3.9v-.28h3.9V1064h.32v3.94h3.92v.28Zm60 0h-3.92v3.94h-.32v-3.94h-3.9v-.28h3.9V1064h.32v3.94h3.92v.28Zm-2939.996 66h-3.92v3.94h-.32v-3.94H-93v-.28h3.904V1130h.32v3.94h3.92v.28Zm60 0h-3.92v3.94h-.32v-3.94H-33v-.28h3.904V1130h.32v3.94h3.92v.28Zm60 0h-3.92v3.94h-.32v-3.94H27v-.28h3.904V1130h.32v3.94h3.92v.28Zm60 0h-3.92v3.94h-.32v-3.94H87v-.28h3.904V1130h.32v3.94h3.92v.28Zm60 0h-3.92v3.94h-.32v-3.94H147v-.28h3.904V1130h.32v3.94h3.92v.28Zm60 0h-3.92v3.94h-.32v-3.94H207v-.28h3.904V1130h.32v3.94h3.92v.28Zm60 0h-3.92v3.94h-.32v-3.94H267v-.28h3.904V1130h.32v3.94h3.92v.28Zm60 0h-3.92v3.94h-.32v-3.94H327v-.28h3.904V1130h.32v3.94h3.92v.28Zm60 0h-3.92v3.94h-.32v-3.94H387v-.28h3.904V1130h.32v3.94h3.92v.28Zm60 0h-3.92v3.94h-.32v-3.94H447v-.28h3.904V1130h.32v3.94h3.92v.28Zm60 0h-3.92v3.94h-.32v-3.94H507v-.28h3.904V1130h.32v3.94h3.92v.28Zm60 0h-3.92v3.94h-.32v-3.94H567v-.28h3.904V1130h.32v3.94h3.92v.28Zm60 0h-3.92v3.94h-.32v-3.94H627v-.28h3.904V1130h.32v3.94h3.92v.28Zm60 0h-3.92v3.94h-.32v-3.94H687v-.28h3.904V1130h.32v3.94h3.92v.28Zm60 0h-3.92v3.94h-.32v-3.94H747v-.28h3.904V1130h.32v3.94h3.92v.28Zm60 0h-3.92v3.94h-.32v-3.94H807v-.28h3.904V1130h.32v3.94h3.92v.28Zm60 0h-3.92v3.94h-.32v-3.94H867v-.28h3.904V1130h.32v3.94h3.92v.28Zm60 0h-3.92v3.94h-.32v-3.94H927v-.28h3.904V1130h.32v3.94h3.92v.28Zm60 0h-3.92v3.94h-.32v-3.94H987v-.28h3.904V1130h.32v3.94h3.92v.28Zm59.996 0h-3.92v3.94h-.32v-3.94h-3.9v-.28h3.9V1130h.32v3.94h3.92v.28Zm60 0h-3.92v3.94h-.32v-3.94h-3.9v-.28h3.9V1130h.32v3.94h3.92v.28Zm60 0h-3.92v3.94h-.32v-3.94h-3.9v-.28h3.9V1130h.32v3.94h3.92v.28Zm60 0h-3.92v3.94h-.32v-3.94h-3.9v-.28h3.9V1130h.32v3.94h3.92v.28Zm60 0h-3.92v3.94h-.32v-3.94h-3.9v-.28h3.9V1130h.32v3.94h3.92v.28Zm60 0h-3.92v3.94h-.32v-3.94h-3.9v-.28h3.9V1130h.32v3.94h3.92v.28Zm60 0h-3.92v3.94h-.32v-3.94h-3.9v-.28h3.9V1130h.32v3.94h3.92v.28Zm60 0h-3.92v3.94h-.32v-3.94h-3.9v-.28h3.9V1130h.32v3.94h3.92v.28Zm60 0h-3.92v3.94h-.32v-3.94h-3.9v-.28h3.9V1130h.32v3.94h3.92v.28Zm60 0h-3.92v3.94h-.32v-3.94h-3.9v-.28h3.9V1130h.32v3.94h3.92v.28Zm60 0h-3.92v3.94h-.32v-3.94h-3.9v-.28h3.9V1130h.32v3.94h3.92v.28Zm60 0h-3.92v3.94h-.32v-3.94h-3.9v-.28h3.9V1130h.32v3.94h3.92v.28Zm60 0h-3.92v3.94h-.32v-3.94h-3.9v-.28h3.9V1130h.32v3.94h3.92v.28Zm60 0h-3.92v3.94h-.32v-3.94h-3.9v-.28h3.9V1130h.32v3.94h3.92v.28Zm60 0h-3.92v3.94h-.32v-3.94h-3.9v-.28h3.9V1130h.32v3.94h3.92v.28Zm60 0h-3.92v3.94h-.32v-3.94h-3.9v-.28h3.9V1130h.32v3.94h3.92v.28Zm60 0h-3.92v3.94h-.32v-3.94h-3.9v-.28h3.9V1130h.32v3.94h3.92v.28Zm60 0h-3.92v3.94h-.32v-3.94h-3.9v-.28h3.9V1130h.32v3.94h3.92v.28Zm60 0h-3.92v3.94h-.32v-3.94h-3.9v-.28h3.9V1130h.32v3.94h3.92v.28Zm60 0h-3.92v3.94h-.32v-3.94h-3.9v-.28h3.9V1130h.32v3.94h3.92v.28Zm60 0h-3.92v3.94h-.32v-3.94h-3.9v-.28h3.9V1130h.32v3.94h3.92v.28Zm60 0h-3.92v3.94h-.32v-3.94h-3.9v-.28h3.9V1130h.32v3.94h3.92v.28Zm60 0h-3.92v3.94h-.32v-3.94h-3.9v-.28h3.9V1130h.32v3.94h3.92v.28Zm60 0h-3.92v3.94h-.32v-3.94h-3.9v-.28h3.9V1130h.32v3.94h3.92v.28Zm60 0h-3.92v3.94h-.32v-3.94h-3.9v-.28h3.9V1130h.32v3.94h3.92v.28Zm60 0h-3.92v3.94h-.32v-3.94h-3.9v-.28h3.9V1130h.32v3.94h3.92v.28Zm60 0h-3.92v3.94h-.32v-3.94h-3.9v-.28h3.9V1130h.32v3.94h3.92v.28Zm60 0h-3.92v3.94h-.32v-3.94h-3.9v-.28h3.9V1130h.32v3.94h3.92v.28Zm60 0h-3.92v3.94h-.32v-3.94h-3.9v-.28h3.9V1130h.32v3.94h3.92v.28Zm60 0h-3.92v3.94h-.32v-3.94h-3.9v-.28h3.9V1130h.32v3.94h3.92v.28Zm60 0h-3.92v3.94h-.32v-3.94h-3.9v-.28h3.9V1130h.32v3.94h3.92v.28Zm-2939.996 66h-3.92v3.94h-.32v-3.94H-93v-.28h3.904V1196h.32v3.94h3.92v.28Zm60 0h-3.92v3.94h-.32v-3.94H-33v-.28h3.904V1196h.32v3.94h3.92v.28Zm60 0h-3.92v3.94h-.32v-3.94H27v-.28h3.904V1196h.32v3.94h3.92v.28Zm60 0h-3.92v3.94h-.32v-3.94H87v-.28h3.904V1196h.32v3.94h3.92v.28Zm60 0h-3.92v3.94h-.32v-3.94H147v-.28h3.904V1196h.32v3.94h3.92v.28Zm60 0h-3.92v3.94h-.32v-3.94H207v-.28h3.904V1196h.32v3.94h3.92v.28Zm60 0h-3.92v3.94h-.32v-3.94H267v-.28h3.904V1196h.32v3.94h3.92v.28Zm60 0h-3.92v3.94h-.32v-3.94H327v-.28h3.904V1196h.32v3.94h3.92v.28Zm60 0h-3.92v3.94h-.32v-3.94H387v-.28h3.904V1196h.32v3.94h3.92v.28Zm60 0h-3.92v3.94h-.32v-3.94H447v-.28h3.904V1196h.32v3.94h3.92v.28Zm60 0h-3.92v3.94h-.32v-3.94H507v-.28h3.904V1196h.32v3.94h3.92v.28Zm60 0h-3.92v3.94h-.32v-3.94H567v-.28h3.904V1196h.32v3.94h3.92v.28Zm60 0h-3.92v3.94h-.32v-3.94H627v-.28h3.904V1196h.32v3.94h3.92v.28Zm60 0h-3.92v3.94h-.32v-3.94H687v-.28h3.904V1196h.32v3.94h3.92v.28Zm60 0h-3.92v3.94h-.32v-3.94H747v-.28h3.904V1196h.32v3.94h3.92v.28Zm60 0h-3.92v3.94h-.32v-3.94H807v-.28h3.904V1196h.32v3.94h3.92v.28Zm60 0h-3.92v3.94h-.32v-3.94H867v-.28h3.904V1196h.32v3.94h3.92v.28Zm60 0h-3.92v3.94h-.32v-3.94H927v-.28h3.904V1196h.32v3.94h3.92v.28Zm60 0h-3.92v3.94h-.32v-3.94H987v-.28h3.904V1196h.32v3.94h3.92v.28Zm59.996 0h-3.92v3.94h-.32v-3.94h-3.9v-.28h3.9V1196h.32v3.94h3.92v.28Zm60 0h-3.92v3.94h-.32v-3.94h-3.9v-.28h3.9V1196h.32v3.94h3.92v.28Zm60 0h-3.92v3.94h-.32v-3.94h-3.9v-.28h3.9V1196h.32v3.94h3.92v.28Zm60 0h-3.92v3.94h-.32v-3.94h-3.9v-.28h3.9V1196h.32v3.94h3.92v.28Zm60 0h-3.92v3.94h-.32v-3.94h-3.9v-.28h3.9V1196h.32v3.94h3.92v.28Zm60 0h-3.92v3.94h-.32v-3.94h-3.9v-.28h3.9V1196h.32v3.94h3.92v.28Zm60 0h-3.92v3.94h-.32v-3.94h-3.9v-.28h3.9V1196h.32v3.94h3.92v.28Zm60 0h-3.92v3.94h-.32v-3.94h-3.9v-.28h3.9V1196h.32v3.94h3.92v.28Zm60 0h-3.92v3.94h-.32v-3.94h-3.9v-.28h3.9V1196h.32v3.94h3.92v.28Zm60 0h-3.92v3.94h-.32v-3.94h-3.9v-.28h3.9V1196h.32v3.94h3.92v.28Zm60 0h-3.92v3.94h-.32v-3.94h-3.9v-.28h3.9V1196h.32v3.94h3.92v.28Zm60 0h-3.92v3.94h-.32v-3.94h-3.9v-.28h3.9V1196h.32v3.94h3.92v.28Zm60 0h-3.92v3.94h-.32v-3.94h-3.9v-.28h3.9V1196h.32v3.94h3.92v.28Zm60 0h-3.92v3.94h-.32v-3.94h-3.9v-.28h3.9V1196h.32v3.94h3.92v.28Zm60 0h-3.92v3.94h-.32v-3.94h-3.9v-.28h3.9V1196h.32v3.94h3.92v.28Zm60 0h-3.92v3.94h-.32v-3.94h-3.9v-.28h3.9V1196h.32v3.94h3.92v.28Zm60 0h-3.92v3.94h-.32v-3.94h-3.9v-.28h3.9V1196h.32v3.94h3.92v.28Zm60 0h-3.92v3.94h-.32v-3.94h-3.9v-.28h3.9V1196h.32v3.94h3.92v.28Zm60 0h-3.92v3.94h-.32v-3.94h-3.9v-.28h3.9V1196h.32v3.94h3.92v.28Zm60 0h-3.92v3.94h-.32v-3.94h-3.9v-.28h3.9V1196h.32v3.94h3.92v.28Zm60 0h-3.92v3.94h-.32v-3.94h-3.9v-.28h3.9V1196h.32v3.94h3.92v.28Zm60 0h-3.92v3.94h-.32v-3.94h-3.9v-.28h3.9V1196h.32v3.94h3.92v.28Zm60 0h-3.92v3.94h-.32v-3.94h-3.9v-.28h3.9V1196h.32v3.94h3.92v.28Zm60 0h-3.92v3.94h-.32v-3.94h-3.9v-.28h3.9V1196h.32v3.94h3.92v.28Zm60 0h-3.92v3.94h-.32v-3.94h-3.9v-.28h3.9V1196h.32v3.94h3.92v.28Zm60 0h-3.92v3.94h-.32v-3.94h-3.9v-.28h3.9V1196h.32v3.94h3.92v.28Zm60 0h-3.92v3.94h-.32v-3.94h-3.9v-.28h3.9V1196h.32v3.94h3.92v.28Zm60 0h-3.92v3.94h-.32v-3.94h-3.9v-.28h3.9V1196h.32v3.94h3.92v.28Zm60 0h-3.92v3.94h-.32v-3.94h-3.9v-.28h3.9V1196h.32v3.94h3.92v.28Zm60 0h-3.92v3.94h-.32v-3.94h-3.9v-.28h3.9V1196h.32v3.94h3.92v.28Zm60 0h-3.92v3.94h-.32v-3.94h-3.9v-.28h3.9V1196h.32v3.94h3.92v.28Zm-2939.996 66h-3.92v3.94h-.32v-3.94H-93v-.28h3.904V1262h.32v3.94h3.92v.28Zm60 0h-3.92v3.94h-.32v-3.94H-33v-.28h3.904V1262h.32v3.94h3.92v.28Zm60 0h-3.92v3.94h-.32v-3.94H27v-.28h3.904V1262h.32v3.94h3.92v.28Zm60 0h-3.92v3.94h-.32v-3.94H87v-.28h3.904V1262h.32v3.94h3.92v.28Zm60 0h-3.92v3.94h-.32v-3.94H147v-.28h3.904V1262h.32v3.94h3.92v.28Zm60 0h-3.92v3.94h-.32v-3.94H207v-.28h3.904V1262h.32v3.94h3.92v.28Zm60 0h-3.92v3.94h-.32v-3.94H267v-.28h3.904V1262h.32v3.94h3.92v.28Zm60 0h-3.92v3.94h-.32v-3.94H327v-.28h3.904V1262h.32v3.94h3.92v.28Zm60 0h-3.92v3.94h-.32v-3.94H387v-.28h3.904V1262h.32v3.94h3.92v.28Zm60 0h-3.92v3.94h-.32v-3.94H447v-.28h3.904V1262h.32v3.94h3.92v.28Zm60 0h-3.92v3.94h-.32v-3.94H507v-.28h3.904V1262h.32v3.94h3.92v.28Zm60 0h-3.92v3.94h-.32v-3.94H567v-.28h3.904V1262h.32v3.94h3.92v.28Zm60 0h-3.92v3.94h-.32v-3.94H627v-.28h3.904V1262h.32v3.94h3.92v.28Zm60 0h-3.92v3.94h-.32v-3.94H687v-.28h3.904V1262h.32v3.94h3.92v.28Zm60 0h-3.92v3.94h-.32v-3.94H747v-.28h3.904V1262h.32v3.94h3.92v.28Zm60 0h-3.92v3.94h-.32v-3.94H807v-.28h3.904V1262h.32v3.94h3.92v.28Zm60 0h-3.92v3.94h-.32v-3.94H867v-.28h3.904V1262h.32v3.94h3.92v.28Zm60 0h-3.92v3.94h-.32v-3.94H927v-.28h3.904V1262h.32v3.94h3.92v.28Zm60 0h-3.92v3.94h-.32v-3.94H987v-.28h3.904V1262h.32v3.94h3.92v.28Zm59.996 0h-3.92v3.94h-.32v-3.94h-3.9v-.28h3.9V1262h.32v3.94h3.92v.28Zm60 0h-3.92v3.94h-.32v-3.94h-3.9v-.28h3.9V1262h.32v3.94h3.92v.28Zm60 0h-3.92v3.94h-.32v-3.94h-3.9v-.28h3.9V1262h.32v3.94h3.92v.28Zm60 0h-3.92v3.94h-.32v-3.94h-3.9v-.28h3.9V1262h.32v3.94h3.92v.28Zm60 0h-3.92v3.94h-.32v-3.94h-3.9v-.28h3.9V1262h.32v3.94h3.92v.28Zm60 0h-3.92v3.94h-.32v-3.94h-3.9v-.28h3.9V1262h.32v3.94h3.92v.28Zm60 0h-3.92v3.94h-.32v-3.94h-3.9v-.28h3.9V1262h.32v3.94h3.92v.28Zm60 0h-3.92v3.94h-.32v-3.94h-3.9v-.28h3.9V1262h.32v3.94h3.92v.28Zm60 0h-3.92v3.94h-.32v-3.94h-3.9v-.28h3.9V1262h.32v3.94h3.92v.28Zm60 0h-3.92v3.94h-.32v-3.94h-3.9v-.28h3.9V1262h.32v3.94h3.92v.28Zm60 0h-3.92v3.94h-.32v-3.94h-3.9v-.28h3.9V1262h.32v3.94h3.92v.28Zm60 0h-3.92v3.94h-.32v-3.94h-3.9v-.28h3.9V1262h.32v3.94h3.92v.28Zm60 0h-3.92v3.94h-.32v-3.94h-3.9v-.28h3.9V1262h.32v3.94h3.92v.28Zm60 0h-3.92v3.94h-.32v-3.94h-3.9v-.28h3.9V1262h.32v3.94h3.92v.28Zm60 0h-3.92v3.94h-.32v-3.94h-3.9v-.28h3.9V1262h.32v3.94h3.92v.28Zm60 0h-3.92v3.94h-.32v-3.94h-3.9v-.28h3.9V1262h.32v3.94h3.92v.28Zm60 0h-3.92v3.94h-.32v-3.94h-3.9v-.28h3.9V1262h.32v3.94h3.92v.28Zm60 0h-3.92v3.94h-.32v-3.94h-3.9v-.28h3.9V1262h.32v3.94h3.92v.28Zm60 0h-3.92v3.94h-.32v-3.94h-3.9v-.28h3.9V1262h.32v3.94h3.92v.28Zm60 0h-3.92v3.94h-.32v-3.94h-3.9v-.28h3.9V1262h.32v3.94h3.92v.28Zm60 0h-3.92v3.94h-.32v-3.94h-3.9v-.28h3.9V1262h.32v3.94h3.92v.28Zm60 0h-3.92v3.94h-.32v-3.94h-3.9v-.28h3.9V1262h.32v3.94h3.92v.28Zm60 0h-3.92v3.94h-.32v-3.94h-3.9v-.28h3.9V1262h.32v3.94h3.92v.28Zm60 0h-3.92v3.94h-.32v-3.94h-3.9v-.28h3.9V1262h.32v3.94h3.92v.28Zm60 0h-3.92v3.94h-.32v-3.94h-3.9v-.28h3.9V1262h.32v3.94h3.92v.28Zm60 0h-3.92v3.94h-.32v-3.94h-3.9v-.28h3.9V1262h.32v3.94h3.92v.28Zm60 0h-3.92v3.94h-.32v-3.94h-3.9v-.28h3.9V1262h.32v3.94h3.92v.28Zm60 0h-3.92v3.94h-.32v-3.94h-3.9v-.28h3.9V1262h.32v3.94h3.92v.28Zm60 0h-3.92v3.94h-.32v-3.94h-3.9v-.28h3.9V1262h.32v3.94h3.92v.28Zm60 0h-3.92v3.94h-.32v-3.94h-3.9v-.28h3.9V1262h.32v3.94h3.92v.28Zm60 0h-3.92v3.94h-.32v-3.94h-3.9v-.28h3.9V1262h.32v3.94h3.92v.28Z"></path></g><defs><radialGradient id="news-bg-a" cx="0" cy="0" r="1" gradientTransform="rotate(85.398 -75.95 1000.582) scale(722.831 751.808)" gradientUnits="userSpaceOnUse"><stop></stop><stop offset=".143"></stop><stop offset="1"></stop></radialGradient><radialGradient id="news-bg-b" cx="0" cy="0" r="1" gradientTransform="matrix(586.4998 -144.99955 150.81242 610.0119 -23.5 581.5)" gradientUnits="userSpaceOnUse"><stop></stop><stop offset=".143"></stop><stop offset="1"></stop></radialGradient><radialGradient id="news-bg-c" cx="0" cy="0" r="1" gradientTransform="rotate(-141.599 1038.796 -7.434) scale(639.929 674.003)" gradientUnits="userSpaceOnUse"><stop></stop><stop offset=".143"></stop><stop offset="1"></stop></radialGradient><radialGradient id="news-bg-d" cx="0" cy="0" r="1" gradientTransform="matrix(721.00044 -1.50002 .94459 454.02602 998.5 449.5)" gradientUnits="userSpaceOnUse"><stop></stop><stop offset=".143"></stop><stop offset="1"></stop></radialGradient></defs></svg>