<svg xmlns="http://www.w3.org/2000/svg" fill="none" class="absolute -left-[6.5vw] top-[50%] -z-10 h-[100%] -translate-y-[65%] transition-transform duration-500 -translate-x-[100vw]" viewBox="0 0 314 92"><path fill="#39CCFB" d="M313.999 4c-107.554.119-310.5 0-313.17-.285L27.998 49.5.828 94.715 302.871 95l11.127-9.5z"></path><path fill="url(#paint0_radial_412_917)" d="M313.999 4c-107.554.119-310.5 0-313.17-.285L27.998 49.5.828 94.715 302.871 95l11.127-9.5z"></path><path fill="url(#paint1_radial_412_917)" d="M313.999 4c-107.554.119-310.5 0-313.17-.285L27.998 49.5.828 94.715 302.871 95l11.127-9.5z"></path><path stroke="#fff" d="M126.527 4v38m0 15v38m7.735-45.514-7.778 7.778-7.778-7.778 7.778-7.778z"></path><path fill="#fff" d="M72.535 25.146c-.325.167-9.274 9.042-9.195 9.12.03.03.423.01.886-.04 2.658-.303 6.025.05 8.791.924l1.014.324 1.162-.413c.65-.225 1.19-.461 1.2-.51.07-.187-1.752-8.414-1.929-8.767a1.459 1.459 0 0 0-1.93-.638"></path><path fill="#fff" d="m79.987 35.022-6.143 1.856-.945-.295c-3.603-1.129-8.348-1.227-12.227-.245-8.072 2.032-13.95 8.57-15.396 17.15-.365 2.121-.365 5.283-.02 7.462.502 3.112 1.644 6.244 2.432 6.656.295.167 4.154.982 4.597.982.256 0 .413-.049.453-.147.03-.079.03-1.355-.01-2.827-.03-1.473-.03-2.798.01-2.946.04-.157.147-.284.285-.314.128-.04 1.526.246 3.16.629 1.615.382 3.052.697 3.2.697.325 0 .6-.275.6-.59 0-.127-.443-1.6-.984-3.259-1.152-3.544-1.3-4.32-1.103-5.979.394-3.357 2.451-5.94 5.297-6.666 3.278-.834 6.88.903 8.535 4.104 1.151 2.219 1.23 3.927.246 4.987-.758.825-1.448 1.11-4.716 1.993-5.276 1.433-5.7 1.59-5.847 2.278-.04.157.03 1.207.147 2.336.227 2.2.207 2.415-.226 2.514-.118.029-1.674-.138-3.465-.383-3.475-.462-3.633-.462-3.76.02-.05.215.147 3.072.334 4.692.049.442.02.54-.168.727-.226.225-.236.225-2.224.157-1.861-.069-2.009-.06-2.078.098-.157.422 1.792 1.59 3.367 2.013.995.265 3.495.363 4.932.196 1.91-.226 4.44-.835 7.423-1.787 5.395-1.728 14.333-4.978 18.33-6.656 2.885-1.218 3.574-1.924 3.554-3.643-.01-1.03-.187-1.826-1.24-5.596a342.491 342.491 0 0 1-1.201-4.368c-.197-.756-.581-2.15-.847-3.093l-.492-1.728 2.087-5.488c2.244-5.93 2.333-6.244 1.93-6.862-.227-.344-.72-.55-1.27-.54-.257 0-2.905.756-6.557 1.865M67 12l-5.196-9h10.392zm0 75 5.196 9H61.804z"></path><defs><radialGradient id="paint0_radial_412_917" cx="0" cy="0" r="1" gradientTransform="matrix(-93.00049 126.99928 -171.8851 -125.87 222.498 19.5)" gradientUnits="userSpaceOnUse"><stop stop-color="#212D3F"></stop><stop offset="1" stop-opacity="0"></stop></radialGradient><radialGradient id="paint1_radial_412_917" cx="0" cy="0" r="1" gradientTransform="matrix(2.00005 -59.99997 82.48479 2.74956 69.498 95)" gradientUnits="userSpaceOnUse"><stop stop-color="#C4F1FF"></stop><stop offset=".016" stop-color="#AEF0FF" stop-opacity=".984"></stop><stop offset="1" stop-color="#AEF0FF" stop-opacity="0"></stop></radialGradient></defs></svg>