<svg xmlns="http://www.w3.org/2000/svg" fill="none" class="-mt-[2vw] h-[6.66vw]" viewBox="0 0 132 133"><path fill="url(#paint0_radial_502_88)" d="m2.764 55 1.468-.305zm53.018 77.136a1.5 1.5 0 0 0 2.116-.156l8.818-10.222a1.5 1.5 0 1 0-2.271-1.959l-7.84 9.085-9.085-7.838a1.5 1.5 0 1 0-1.96 2.271zM49.885.549c-9.398 2.455-23.098 8.088-33.68 17.07C5.598 26.623-2.055 39.177 1.296 55.305l2.937-.61C1.184 40.023 8.03 28.493 18.147 19.906 28.29 11.296 41.54 5.83 50.643 3.451zM1.294 55.305C5.392 75.022 16.207 87.671 32.339 94.87c16.023 7.15 37.193 8.882 62.029 7.126l-.212-2.992c-24.664 1.744-45.244-.024-60.595-6.874C18.32 85.33 8.135 73.478 4.232 54.695zm93.073 46.691c25.123-1.776 36.211-13.458 36.829-25.481.608-11.824-9.105-23.015-23.435-23.015v3c12.67 0 20.956 9.809 20.439 19.86-.506 9.852-9.668 20.92-34.045 22.644zM107.762 53.5c-28.163 0-56.037 29.56-52.496 77.61l2.992-.22c-3.46-46.95 23.667-74.39 49.504-74.39z"></path><defs><radialGradient id="paint0_radial_502_88" cx="0" cy="0" r="1" gradientTransform="rotate(-130.875 58.686 52.36)scale(181.844 127.549)" gradientUnits="userSpaceOnUse"><stop stop-color="#425470"></stop><stop offset="1" stop-color="#425470" stop-opacity="0"></stop></radialGradient></defs></svg>