<svg xmlns="http://www.w3.org/2000/svg" fill="none" class="absolute right-[4vw] top-[50%] w-[7vw] -translate-y-[50%]" viewBox="0 0 145 1398"><path fill="url(#paint0_radial_489_552)" d="M142.4 34.6v3h3v-3zM2 34.6h-3v3h3zM2 .4v-3h-3v3zm140.4 0h3v-3h-3zm0 31.2H2v6h140.4zM5 34.6V.4h-6v34.2zM2 3.4h140.4v-6H2zm137.4-3v34.2h6V.4zM2 184.984h-3v3h3zm0-34.2-1.653-2.503-1.347.89v1.613zm86.6-57.2 1.653 2.504 8.332-5.504H88.6zm-86.6 0h-3v3h3zm0-34.2v-3h-3v3zm140.4 0h3v-3h-3zm0 34.2 1.648 2.507 1.352-.889v-1.618zm-87 57.2-1.648-2.506-8.376 5.506H55.4zm87 0h3v-3h-3zm0 34.2v3h3v-3zm-137.4 0v-34.2h-6v34.2zm-1.347-31.696 86.6-57.2-3.306-5.007-86.6 57.2zM88.6 90.584H2v6h86.6zm-83.6 3v-34.2h-6v34.2zm-3-31.2h140.4v-6H2zm137.4-3v34.2h6v-34.2zm1.352 31.694-87 57.2 3.296 5.013 87-57.2zM55.4 153.784h87v-6h-87zm84-3v34.2h6v-34.2zm3 31.2H2v6h140.4zM2 335.375h-3v3h3zm0-34.2-1.653-2.503-1.347.889v1.614zm86.6-57.2 1.653 2.503 8.332-5.503H88.6zm-86.6 0h-3v3h3zm0-34.2v-3h-3v3zm140.4 0h3v-3h-3zm0 34.2 1.648 2.507 1.352-.889v-1.618zm-87 57.2-1.648-2.507-8.376 5.507H55.4zm87 0h3v-3h-3zm0 34.2v3h3v-3zm-137.4 0v-34.2h-6v34.2zm-1.347-31.697 86.6-57.2-3.306-5.006-86.6 57.2zM88.6 240.975H2v6h86.6zm-83.6 3v-34.2h-6v34.2zm-3-31.2h140.4v-6H2zm137.4-3v34.2h6v-34.2zm1.352 31.693-87 57.2 3.296 5.014 87-57.2zM55.4 304.175h87v-6h-87zm84-3v34.2h6v-34.2zm3 31.2H2v6h140.4zM9.8 390.166l-2.616-1.468-.004.007-.004.006zm25.6-26.2-1.502-2.597-.019.01-.018.011zm74.2 0 1.539-2.576-.012-.007-.011-.006zm25.6 26.2 2.624-1.455-.004-.006-.004-.007zm0 72.6-2.616-1.468-.004.007-.004.006zm-25.6 26-1.492-2.603-.012.007-.012.007zm-74.2 0-1.516 2.589.007.004.007.004zm-25.6-26-2.616 1.467zm33.2-9.4 2.02-2.218-.01-.01-.012-.01zm59.2 0-1.998-2.238-.021.019-.021.019zm.2-54 2.04-2.2-.011-.01-.011-.01zm-59.6 0-1.998-2.238-.021.019-.02.019zm-39.2 27.2c0-12.714 2.948-24.344 8.824-34.946l-5.248-2.909C.786 400.243-2.4 412.88-2.4 426.566zm8.816-34.933c5.873-10.468 14.032-18.823 24.523-25.092l-3.078-5.151c-11.375 6.798-20.283 15.91-26.677 27.308zm24.486-25.07c10.576-6.117 22.451-9.197 35.698-9.197v-6c-14.22 0-27.145 3.319-38.702 10.003zm35.698-9.197c13.247 0 25.05 3.08 35.484 9.189l3.032-5.178c-11.432-6.692-24.296-10.011-38.516-10.011zm35.461 9.175c10.491 6.269 18.65 14.624 24.523 25.092l5.232-2.935c-6.394-11.398-15.302-20.51-26.677-27.308zm24.515 25.079c5.876 10.602 8.824 22.232 8.824 34.946h6c0-13.686-3.185-26.323-9.576-37.855zm8.824 34.946c0 12.714-2.948 24.271-8.816 34.732l5.232 2.935c6.399-11.405 9.584-23.982 9.584-37.667zm-8.824 34.745c-5.869 10.59-14.012 18.859-24.468 24.852l2.984 5.205c11.41-6.54 20.334-15.604 26.732-27.148zm-24.492 24.866c-10.435 6.108-22.237 9.189-35.484 9.189v6c14.22 0 27.084-3.32 38.516-10.011zM72.6 495.366c-13.246 0-25.122-3.081-35.698-9.197l-3.004 5.194c11.557 6.683 24.482 10.003 38.702 10.003zm-35.684-9.189c-10.479-6.134-18.63-14.416-24.5-24.879l-5.232 2.935c6.397 11.404 15.312 20.455 26.7 27.122zm-24.5-24.879C6.548 450.837 3.6 439.28 3.6 426.566h-6c0 13.685 3.185 26.262 9.584 37.667zM28.8 426.566c0 11.941 4.018 21.73 12.202 29.037l3.996-4.475c-6.75-6.026-10.198-14.104-10.198-24.562zm12.18 29.018c8.132 7.406 18.775 10.982 31.62 10.982v-6c-11.688 0-20.779-3.225-27.58-9.418zm31.62 10.982c12.967 0 23.627-3.57 31.64-11.001l-4.08-4.399c-6.653 6.169-15.727 9.4-27.56 9.4zm31.598-10.963c8.184-7.307 12.202-17.096 12.202-29.037h-6c0 10.458-3.449 18.536-10.198 24.562zm12.202-29.037c0-12.046-3.93-21.954-11.96-29.4l-4.08 4.399c6.637 6.154 10.04 14.38 10.04 25.001zm-11.982-29.42c-8.02-7.291-18.743-10.78-31.818-10.78v6c11.992 0 21.136 3.177 27.782 9.219zM72.6 386.366c-12.954 0-23.659 3.495-31.798 10.762l3.996 4.475c6.794-6.066 15.956-9.237 27.802-9.237zm-31.84 10.8c-8.03 7.446-11.96 17.354-11.96 29.4h6c0-10.621 3.403-18.847 10.04-25.001zM142.4 649.192l-1.003 2.828 4.003 1.419v-4.247zM2 599.392h-3v2.119l1.997.709zm0-42.8-1.003-2.827-1.997.708v2.119zm140.4-49.8h3v-4.247l-4.003 1.42zm0 36.4.936 2.851 2.064-.678v-2.173zm-106 34.8-.936-2.85-8.657 2.842 8.652 2.857zm106 35h3v-2.169l-2.059-.68zm1.003 33.373-140.4-49.8-2.006 5.655 140.4 49.8zM5 599.392v-42.8h-6v42.8zM3.003 559.42l140.4-49.8-2.006-5.655-140.4 49.8zM139.4 506.792v36.4h6v-36.4zm2.064 33.55-106 34.8 1.872 5.701 106-34.8zM35.459 580.841l106 35 1.882-5.698-106-35zM139.4 612.992v36.2h6v-36.2zM26.8 750.886l.962 2.841 2.038-.69v-2.151zm0-52.4h3v-2.151l-2.038-.69zm-24.8-8.4h-3v2.151l2.038.69zm0-35.8 1.02-2.821L-1 650.01v4.276zm140.4 50.8h3v-2.105l-1.979-.716zm0 39.6 1.021 2.821 1.979-.716v-2.105zM2 795.486h-3v4.276l4.02-1.455zm0-36.2-.962-2.841-2.038.69v2.151zm51.2-17.2h-3v4.183l3.962-1.341zm51.4-17.4.962 2.842 8.443-2.859-8.453-2.828zm-51.4-17.2.952-2.845-3.952-1.322v4.167zm-23.4 43.4v-52.4h-6v52.4zm-2.038-55.241-24.8-8.401-1.924 5.683 24.8 8.4zM5 690.086v-35.8h-6v35.8zM.98 657.107l140.399 50.8 2.042-5.642-140.4-50.8zm138.42 47.979v39.6h6v-39.6zm1.979 36.779-140.4 50.8 2.042 5.642 140.4-50.8zM5 795.486v-36.2h-6v36.2zm-2.038-33.359 24.8-8.4-1.924-5.683-24.8 8.401zm51.2-17.199 51.4-17.4-1.924-5.684-51.4 17.4zm51.39-23.087-51.4-17.2-1.904 5.69 51.4 17.2zM50.2 707.486v34.6h6v-34.6zm92.2 204.461v3h3v-3zm-27.4 0h-3v3h3zm0-37.2h3v-3h-3zm-113 0h-3v3h3zm0-34.2v-3h-3v3zm113 0v3h3v-3zm0-37.2v-3h-3v3zm27.4 0h3v-3h-3zm0 105.6H115v6h27.4zm-24.4 3v-37.2h-6v37.2zm-3-40.2H2v6h113zm-110 3v-34.2h-6v34.2zm-3-31.2h113v-6H2zm116-3v-37.2h-6v37.2zm-3-34.2h27.4v-6H115zm24.4-3v108.6h6v-108.6zm3 159.964v3h3v-3zm-140.4 0h-3v3h3zm0-34.2v-3h-3v3zm140.4 0h3v-3h-3zm0 31.2H2v6h140.4zm-137.4 3v-34.2h-6v34.2zm-3-31.2h140.4v-6H2zm137.4-3v34.2h6v-34.2zM9.8 1018.1l-2.616-1.47H7.18l-.004.01zm25.6-26.205-1.502-2.597-.019.011-.018.011zm74.2 0 1.539-2.575-.012-.007-.011-.007zm25.6 26.205 2.624-1.46-.004-.01h-.004zm0 72.6-2.616-1.47h-.004l-.004.01zm-25.6 26-1.492-2.61-.012.01-.012.01zm-74.2 0-1.516 2.58.007.01h.007zm-25.6-26-2.616 1.46zm33.2-9.4 2.02-2.22-.011-.01-.011-.01zm59.2 0-1.998-2.24-.021.02-.021.02zm.2-54 2.04-2.2-.011-.01-.011-.01zm-59.6 0-1.998-2.24-.021.02-.02.02zm-39.2 27.2c0-12.72 2.948-24.35 8.824-34.95l-5.248-2.91c-6.39 11.53-9.576 24.17-9.576 37.86zm8.816-34.94c5.873-10.47 14.032-18.82 24.523-25.089l-3.078-5.151c-11.375 6.798-20.284 15.91-26.677 27.31zm24.486-25.068c10.576-6.116 22.451-9.197 35.698-9.197v-6c-14.22 0-27.145 3.32-38.702 10.003zm35.698-9.197c13.247 0 25.05 3.081 35.484 9.189l3.032-5.178c-11.432-6.691-24.296-10.011-38.516-10.011zm35.461 9.176c10.491 6.269 18.65 14.619 24.523 25.089l5.232-2.93c-6.394-11.4-15.302-20.512-26.677-27.31zm24.515 25.079c5.876 10.6 8.824 22.23 8.824 34.95h6c0-13.69-3.185-26.33-9.576-37.86zm8.824 34.95c0 12.71-2.948 24.27-8.816 34.73l5.232 2.93c6.399-11.4 9.584-23.98 9.584-37.66zm-8.824 34.74c-5.869 10.59-14.012 18.86-24.468 24.85l2.984 5.21c11.41-6.54 20.334-15.61 26.732-27.15zm-24.492 24.87c-10.435 6.1-22.237 9.19-35.484 9.19v6c14.22 0 27.084-3.32 38.515-10.02zM72.6 1123.3c-13.246 0-25.122-3.09-35.698-9.2l-3.004 5.19c11.557 6.69 24.482 10.01 38.702 10.01zm-35.684-9.19c-10.479-6.14-18.63-14.42-24.5-24.88l-5.232 2.93c6.397 11.41 15.312 20.46 26.7 27.12zm-24.5-24.88c-5.868-10.46-8.816-22.02-8.816-34.73h-6c0 13.68 3.185 26.26 9.584 37.66zM28.8 1054.5c0 11.94 4.018 21.73 12.202 29.03l3.996-4.47c-6.75-6.03-10.198-14.11-10.198-24.56zm12.18 29.01c8.132 7.41 18.775 10.99 31.62 10.99v-6c-11.688 0-20.779-3.23-27.58-9.42zm31.62 10.99c12.966 0 23.627-3.57 31.64-11l-4.08-4.4c-6.653 6.17-15.727 9.4-27.56 9.4zm31.598-10.97c8.184-7.3 12.202-17.09 12.202-29.03h-6c0 10.45-3.449 18.53-10.198 24.56zm12.202-29.03c0-12.05-3.93-21.96-11.96-29.4l-4.08 4.4c6.637 6.15 10.04 14.37 10.04 25zm-11.982-29.42c-8.02-7.3-18.743-10.78-31.818-10.78v6c11.992 0 21.136 3.17 27.782 9.22zM72.6 1014.3c-12.954 0-23.659 3.49-31.798 10.76l3.996 4.47c6.794-6.06 15.956-9.23 27.802-9.23zm-31.84 10.8c-8.03 7.44-11.96 17.35-11.96 29.4h6c0-10.63 3.403-18.85 10.04-25zM2 1270.92h-3v3h3zm0-34.2-1.653-2.5-1.347.89v1.61zm86.6-57.2 1.653 2.51 8.332-5.51H88.6zm-86.6 0h-3v3h3zm0-34.2v-3h-3v3zm140.4 0h3v-3h-3zm0 34.2 1.648 2.51 1.352-.89v-1.62zm-87 57.2-1.648-2.5-8.376 5.5H55.4zm87 0h3v-3h-3zm0 34.2v3h3v-3zm-137.4 0v-34.2h-6v34.2zm-1.347-31.69 86.6-57.2-3.306-5.01-86.6 57.2zm84.947-62.71H2v6h86.6zm-83.6 3v-34.2h-6v34.2zm-3-31.2h140.4v-6H2zm137.4-3v34.2h6v-34.2zm1.352 31.7-87 57.2 3.296 5.01 87-57.2zm-85.352 62.7h87v-6h-87zm84-3v34.2h6v-34.2zm3 31.2H2v6h140.4zM5.6 1318.91l-2.776-1.14zm14.8-19.6-1.776-2.42-.016.02-.016.01zm23.6-7.6h3v-3.09l-3.087.09zm0 36.4.306 2.99 2.694-.28v-2.71zm-12 5.4-2.215-2.02-.025.03-.024.02zm-.6 24-2.374 1.84.026.03.026.03zm18.4.8-2.121-2.12-.03.03-.03.03zm5.6-8.6-2.746-1.21-.009.02-.008.02zm5-14.4-2.867-.88-.004.01-.004.02zm8.4-22.2-2.696-1.31zm12.4-14.8 1.81 2.4zm52 8-2.372 1.84.008.01.008.01zm0 74.4-2.356-1.86-.008.01-.008.02zm-30.8 15.2h-3v3.16l3.151-.16zm0-37-.176-2.99-2.824.16v2.83zm10.6-5-2.264-1.97-.025.03-.024.03zm.6-21.8-2.295 1.93.029.04.03.03zm-20 2.6 2.58 1.53zm-8.2 20 2.842.96.006-.02.006-.01zm-8.8 22-2.683-1.34-.007.01-.006.02zm-12.2 14.8-1.838-2.37zm-42.4 0 1.604-2.53-.019-.01-.019-.02zm-15.6-17.6 2.683-1.34zm-2.8-27.4c0-9.94 1.613-18.74 4.776-26.46l-5.552-2.28c-3.504 8.55-5.224 18.15-5.224 28.74zm4.776-26.46c3.145-7.67 7.76-13.76 13.832-18.34l-3.616-4.79c-6.994 5.28-12.246 12.26-15.768 20.85zm13.8-18.32c5.978-4.39 13.235-6.77 21.91-7.02l-.173-6c-9.724.29-18.2 2.98-25.29 8.18zM41 1291.71v36.4h6v-36.4zm2.694 33.42c-5.737.59-10.494 2.62-13.91 6.36l4.431 4.05c2.185-2.4 5.427-3.96 10.091-4.44zm-13.958 6.41c-3.238 3.73-4.736 8.48-4.736 13.97h6c0-4.37 1.168-7.62 3.264-10.03zM25 1345.51c0 5.49 1.227 10.22 4.026 13.84l4.748-3.67c-1.735-2.25-2.774-5.52-2.774-10.17zm4.078 13.9c3.026 3.7 7.182 5.5 12.122 5.5v-6c-3.326 0-5.704-1.13-7.478-3.3zm12.122 5.5c4.246 0 7.916-1.5 10.781-4.54l-4.362-4.12c-1.669 1.77-3.731 2.66-6.42 2.66zm10.721-4.48c2.583-2.58 4.65-5.79 6.242-9.55l-5.526-2.34c-1.342 3.18-3.008 5.7-4.958 7.65zm6.225-9.51c1.542-3.5 3.25-8.44 5.13-14.75l-5.751-1.71c-1.855 6.22-3.48 10.88-4.871 14.04zm5.12-14.72c2.774-8.98 5.522-16.23 8.23-21.77l-5.392-2.63c-2.892 5.92-5.745 13.48-8.57 22.63zm8.23-21.77c2.578-5.28 6.394-9.85 11.513-13.72l-3.618-4.79c-5.814 4.4-10.265 9.69-13.287 15.88zm11.513-13.72c4.814-3.64 11.257-5.6 19.591-5.6v-6c-9.266 0-17.09 2.18-23.21 6.81zm19.591-5.6c12.236 0 21.52 4.38 28.228 13.04l4.744-3.67c-7.959-10.28-19.075-15.37-32.972-15.37zm28.244 13.06c6.951 8.81 10.556 20.44 10.556 35.14h6c0-15.69-3.862-28.73-11.845-38.86zm10.556 35.14c0 14.99-3.612 26.74-10.556 35.54l4.711 3.72c7.99-10.13 11.845-23.31 11.845-39.26zm-10.572 35.57c-6.738 8.69-16.151 13.41-28.579 14.04l.302 5.99c13.972-.71 25.092-6.13 33.021-16.36zm-25.428 17.03v-37h-6v37zm-2.824-34c5.236-.31 9.595-2.28 12.737-6.09l-4.626-3.82c-1.925 2.33-4.632 3.69-8.463 3.92zm12.688-6.03c3.225-3.71 4.736-8.38 4.736-13.77h-6c0 4.22-1.155 7.41-3.264 9.83zm4.736-13.77c0-4.7-1.304-8.8-4.164-12l-4.472 4c1.674 1.87 2.636 4.44 2.636 8zm-4.105-11.93c-2.841-3.37-6.915-4.87-11.695-4.87v6c3.487 0 5.68 1.04 7.105 2.73zm-11.695-4.87c-5.708 0-10.168 2.8-13.18 7.87l5.16 3.06c2.054-3.46 4.661-4.93 8.02-4.93zm-13.18 7.87c-2.708 4.56-5.523 11.49-8.474 20.61l5.708 1.85c2.915-9.01 5.567-15.42 7.926-19.4zm-8.462 20.57c-3.043 9-5.926 16.19-8.641 21.62l5.366 2.68c2.885-5.77 5.868-13.24 8.959-22.38zm-8.654 21.65c-2.587 5.29-6.35 9.87-11.342 13.74l3.676 4.74c5.674-4.39 10.045-9.68 13.058-15.85zm-11.342 13.74c-4.69 3.64-10.861 5.57-18.762 5.57v6c8.899 0 16.46-2.19 22.438-6.83zm-18.762 5.57c-7.453 0-14.16-1.91-20.196-5.73l-3.208 5.07c7.03 4.45 14.857 6.66 23.404 6.66zm-20.234-5.76c-5.995-3.67-10.834-9.08-14.483-16.38l-5.366 2.68c4.084 8.17 9.645 14.49 16.716 18.82zm-14.483-16.38c-3.618-7.23-5.483-15.89-5.483-26.06h-6c0 10.9 2.001 20.51 6.117 28.74z"></path><defs><radialGradient id="paint0_radial_489_552" cx="0" cy="0" r="1" gradientTransform="matrix(-120.49967 -2.99966 19.19556 -771.10611 35 616)" gradientUnits="userSpaceOnUse"><stop stop-color="#475365"></stop><stop offset="1" stop-color="#475365" stop-opacity="0"></stop><stop offset="1" stop-color="#1F2630" stop-opacity="0"></stop></radialGradient></defs></svg>