<svg xmlns="http://www.w3.org/2000/svg" fill="none" class="absolute inset-1/2 w-1/2 -translate-x-1/2 -translate-y-1/2" viewBox="0 0 54 31"><path fill="#fff" d="M17.863 14.6C12.768 13.224 4.977 1.586 4.179 4.216c-.251 1.798 2.602 5.547 1.674 5.342C4.925 9.353 0 8.335 0 9.48s1.028 1.64 5.701 4.427c13.102 18.007 25.923 19.008 32.916 14.045C45.61 22.989 49.326 10.794 49.716 9.48c.39-1.315 2.128-1.067 3.802-2.9 1.673-1.833-4.331-7.863-8.892-6.334-4.561 1.528-12.088 12.29-15.66 13.818-3.573 1.528-6.005 1.907-11.1.536z"></path><path fill="#000" d="m47.495 5.035-.026-.148h-.044a4.244 4.244 0 0 1-.407.017c-.2 0-.425.013-.503.026-.16.022-.603.11-.928.183a30.25 30.25 0 0 0-1.184.292.198.198 0 0 0-.108.23c.017.075.043.118.087.14.069.035.065.039 1.188-.205.702-.152.992-.23 1.846-.51l.074-.025zm.137.879s0-.026-.01-.053l-.02-.039-.122.009c-.416.03-.824.161-1.448.466-.243.117-.265.13-.286.174-.048.104-.04.17.047.244.044.039.052.039.143.039.117 0 .143-.009.503-.161.343-.148.646-.296.763-.37a8.28 8.28 0 0 0 .43-.31m2.535-2.911c.19.718-.144 1.432-.746 1.593-.603.161-1.249-.287-1.44-1.005-.19-.719.143-1.433.746-1.594.603-.16 1.249.287 1.44 1.006"></path><path fill="#fff" d="M49.793 2.453c.065.24-.047.474-.247.531-.2.052-.416-.096-.477-.335-.065-.24.048-.475.247-.531.2-.053.417.095.477.335"></path></svg>