<svg viewBox="0 0 98 103" fill="none" xmlns="http://www.w3.org/2000/svg" class="w-4/5 animate-spin" style="animation-duration: 5s;"><path d="M14.6016 39.8762C14.4329 40.3597 14.1483 40.4973 13.6668 40.3314L1.18815 35.9805C0.706716 35.8111 0.569666 35.5252 0.73483 35.0418L2.98739 28.5242C4.11191 25.2742 5.88303 24.2014 8.56079 25.1365L14.57 27.2291C17.2477 28.1607 17.9787 30.1086 16.8541 33.3551L14.6016 39.8727V39.8762ZM12.2366 34.9148L13.0308 32.614C13.2451 31.9965 13.0554 31.6048 12.4017 31.3754L7.72092 29.7451C7.08486 29.5228 6.69479 29.7134 6.48043 30.3309L5.68624 32.6317L12.2331 34.9148H12.2366Z" fill="white"></path><path d="M20.8321 28.6053C20.4455 28.937 20.1292 28.9123 19.7989 28.5207L11.2315 18.4213C10.9011 18.0331 10.9257 17.7156 11.3158 17.3838L16.4851 12.9623C18.8115 10.9721 20.442 11.4061 21.7493 12.9482L22.3572 13.6645C23.0987 14.5361 23.4079 15.3477 22.9968 16.1841C24.2373 15.3407 25.6816 15.5277 26.792 16.8369L29.5963 20.1398C29.9266 20.528 29.902 20.8456 29.5155 21.1773L27.1118 23.2346C26.7253 23.5663 26.409 23.5416 26.0752 23.1499L24.051 20.7644C23.6539 20.2986 23.3271 20.228 22.8914 20.5986L20.7196 22.4582L23.3095 25.5141C23.6399 25.9023 23.6153 26.2199 23.2252 26.5516L20.8356 28.5948L20.8321 28.6053ZM18.3335 19.6634L19.4967 18.6683C20.0379 18.2025 19.9149 17.772 19.5564 17.3521L19.1066 16.8228C18.7482 16.4028 18.3441 16.2088 17.8029 16.6746L16.6397 17.6697L18.3335 19.6634Z" fill="white"></path><path d="M33.1748 17.7298L30.3249 18.6613C29.8399 18.8201 29.5588 18.6755 29.4007 18.1885L27.7315 13.0506C27.4784 12.2707 27.3941 11.2227 27.4749 9.68768L27.7279 4.71917C27.7385 4.22161 27.9845 3.92519 28.5081 3.75228L33.723 2.04436C34.2256 1.8785 34.6016 1.97378 34.9003 2.369L38.0208 6.23654C38.9872 7.42926 39.5354 8.32557 39.7884 9.1019L41.4576 14.2398C41.6158 14.7268 41.4717 15.0091 40.9867 15.1679L38.0595 16.1277C37.5359 16.3006 37.2337 16.163 37.0755 15.676L36.19 12.9518L32.7602 14.0739L33.6457 16.7982C33.8039 17.2851 33.6598 17.5674 33.1748 17.7262V17.7298ZM31.8043 10.4711L34.8476 9.47595L32.9745 6.81526C32.8023 6.61412 32.6547 6.55413 32.5001 6.60353L32.0152 6.76233C31.8606 6.81173 31.7762 6.94935 31.7551 7.21401L31.8043 10.4711Z" fill="white"></path><path d="M48.3196 15.6723C44.9038 15.9369 43.2171 14.7371 42.9992 11.9L42.5072 5.53056C42.2893 2.69343 43.7723 1.2431 47.1845 0.978446L52.2659 0.583223C52.7755 0.544406 53.0144 0.749075 53.0531 1.26075L53.2429 3.73089C53.2815 4.24256 53.0777 4.48252 52.5682 4.52133L48.3407 4.84951C47.4867 4.91656 47.1248 5.27296 47.181 5.96813L47.557 10.8449C47.6097 11.5401 47.94 11.8224 48.5691 11.773L50.5405 11.6177L50.2945 8.43474C50.2559 7.92307 50.4597 7.68311 50.9692 7.6443L54.1214 7.39728C54.6309 7.35847 54.8699 7.56667 54.9086 8.07481L55.397 14.3807C55.4357 14.8924 55.2319 15.1324 54.7223 15.1712L48.3196 15.6687V15.6723Z" fill="white"></path><path d="M60.5661 16.6569C60.1304 16.3887 60.0566 16.0782 60.3237 15.6441L67.2395 4.34148C67.5065 3.90391 67.8158 3.82981 68.248 4.09799L71.0453 5.82356C71.4107 6.04941 71.5513 6.32818 71.5232 6.83985L71.3475 10.6474C71.3405 10.9332 71.3405 11.0497 71.4775 11.1379L71.6356 11.2332C71.7762 11.3179 71.8816 11.2649 72.1311 11.1308L75.4168 9.24295C75.8596 8.98887 76.1724 8.98887 76.5343 9.21119L79.3492 10.9473C79.7849 11.2155 79.8587 11.5261 79.5916 11.9601L72.6758 23.2628C72.4088 23.7003 72.0995 23.7744 71.6673 23.5062L68.993 21.8548C68.5397 21.576 68.4835 21.2761 68.7505 20.842L72.5071 14.702L70.3178 15.9723C69.8645 16.244 69.5061 16.2405 69.0563 15.9617L68.3605 15.5347C67.9072 15.256 67.7455 14.9384 67.7806 14.4091L67.9177 11.8754L64.1611 18.0155C63.894 18.453 63.5848 18.5271 63.1525 18.259L60.5626 16.664L60.5661 16.6569Z" fill="white"></path><path d="M74.8266 24.1591C74.5279 23.7427 74.5806 23.4286 74.9918 23.1287L85.7134 15.376C86.128 15.076 86.4408 15.129 86.736 15.5418L92.2637 23.2487C92.5624 23.6651 92.5097 23.9791 92.0985 24.2755L90.1623 25.6765C89.7476 25.9764 89.4348 25.9235 89.1361 25.5106L85.8469 20.9267L84.5748 21.8477L86.8976 25.0872C87.1963 25.5036 87.1436 25.8176 86.7325 26.1176L84.9614 27.3985C84.5467 27.6985 84.2339 27.6455 83.9352 27.2291L81.6124 23.9897L80.1892 25.0201L83.4784 29.604C83.7771 30.0204 83.7244 30.3344 83.3132 30.6344L81.3769 32.0353C80.9623 32.3353 80.6495 32.2823 80.3508 31.8695L74.8231 24.1626L74.8266 24.1591Z" fill="white"></path><path d="M80.8893 35.3311C80.696 34.8582 80.8155 34.5654 81.2864 34.3677L83.7533 33.3444C84.2417 33.1397 84.5158 33.2703 84.7126 33.7431L86.1429 37.226C86.3362 37.6989 86.2342 37.9847 85.7458 38.1894L83.2789 39.2127C82.808 39.4068 82.5163 39.2868 82.3195 38.814L80.8893 35.3311ZM85.9355 33.5491C85.7423 33.0762 85.8617 32.7833 86.3256 32.5681L93.4839 29.2687C93.9478 29.0534 94.2324 29.1593 94.4257 29.6321L95.9122 33.2456C96.1054 33.7184 95.9789 33.9937 95.4975 34.1701L88.1143 36.9226C87.6364 37.099 87.3342 36.9579 87.1409 36.485L85.9355 33.5526V33.5491Z" fill="white"></path><path d="M83.4506 63.1837C83.6193 62.7003 83.904 62.5627 84.3854 62.7285L96.8641 67.0795C97.3455 67.2489 97.4826 67.5347 97.3174 68.0181L95.0648 74.5358C93.9403 77.7858 92.1692 78.8585 89.4914 77.9234L83.4823 75.8308C80.8045 74.8993 80.0736 72.9514 81.1981 69.7049L83.4506 63.1873V63.1837ZM85.8157 68.1452L85.0215 70.4459C84.8071 71.0635 84.9969 71.4552 85.6505 71.6845L90.3313 73.3148C90.9674 73.5371 91.3574 73.3466 91.5718 72.7291L92.366 70.4283L85.8192 68.1452H85.8157Z" fill="white"></path><path d="M77.2195 74.4583C77.6061 74.1266 77.9223 74.1513 78.2562 74.543L86.8236 84.6388C87.1539 85.0269 87.1293 85.3445 86.7393 85.6762L81.5735 90.0978C79.2472 92.088 77.6166 91.654 76.3093 90.1119L75.7014 89.3956C74.9599 88.524 74.6507 87.7123 75.0618 86.876C73.8213 87.7194 72.377 87.5324 71.2666 86.2232L68.4623 82.9203C68.132 82.5321 68.1566 82.2145 68.5431 81.8828L70.9468 79.8255C71.3333 79.4938 71.6496 79.5185 71.9835 79.9102L74.0076 82.2921C74.4047 82.7615 74.7315 82.8285 75.1637 82.458L77.3355 80.5983L74.742 77.5459C74.4117 77.1578 74.4363 76.8402 74.8264 76.5085L77.216 74.4618L77.2195 74.4583ZM79.7216 83.4002L78.5584 84.3953C78.0172 84.8611 78.1402 85.2916 78.4986 85.7115L78.9485 86.2408C79.3069 86.6608 79.711 86.8548 80.2522 86.389L81.4154 85.3939L79.7216 83.4002Z" fill="white"></path><path d="M64.8829 85.3375L67.7328 84.4059C68.2178 84.2471 68.4989 84.3918 68.657 84.8787L70.3262 90.0166C70.5793 90.7965 70.6636 91.8445 70.5793 93.3795L70.3262 98.3481C70.3157 98.8456 70.0697 99.142 69.5461 99.3149L64.3311 101.019C63.8286 101.185 63.4526 101.09 63.1539 100.695L60.0334 96.8272C59.067 95.6344 58.5188 94.7381 58.2658 93.9618L56.5965 88.8239C56.4384 88.3369 56.5825 88.0546 57.0674 87.8958L59.9947 86.9395C60.5183 86.7666 60.8205 86.9078 60.9787 87.3947L61.8642 90.119L65.294 88.9968L64.4084 86.2726C64.2503 85.7856 64.3944 85.5033 64.8793 85.3445L64.8829 85.3375ZM66.2534 92.5962L63.2101 93.5913L65.0832 96.252C65.2554 96.4531 65.4029 96.5131 65.5576 96.4637L66.0425 96.3049C66.1971 96.2555 66.2815 96.1179 66.3026 95.8532L66.2534 92.5962Z" fill="white"></path><path d="M49.7363 87.3912C53.1521 87.1266 54.8389 88.3263 55.0567 91.1635L55.5487 97.5329C55.7666 100.37 54.2836 101.82 50.8714 102.085L45.79 102.48C45.2804 102.519 45.0415 102.314 45.0028 101.803L44.813 99.3326C44.7744 98.8209 44.9782 98.581 45.4878 98.5421L49.7153 98.214C50.5692 98.1469 50.9311 97.7905 50.8749 97.0953L50.4989 92.2186C50.4462 91.5234 50.1159 91.2411 49.4868 91.2905L47.5154 91.4458L47.7614 94.6287C47.8001 95.1404 47.5962 95.3804 47.0867 95.4227L43.9345 95.6697C43.425 95.7085 43.186 95.5003 43.1474 94.9922L42.6589 88.6863C42.6202 88.1746 42.8241 87.9347 43.3336 87.8958L49.7363 87.3947V87.3912Z" fill="white"></path><path d="M37.4898 86.4102C37.9255 86.6784 37.9993 86.9889 37.7323 87.423L30.8165 98.7256C30.5494 99.1632 30.2401 99.2373 29.8079 98.9691L27.0106 97.2436C26.6452 97.0177 26.5046 96.739 26.5327 96.2273L26.7084 92.4197C26.7155 92.1339 26.7155 92.0175 26.5784 91.9292L26.4203 91.834C26.2797 91.7493 26.1743 91.8022 25.9248 91.9363L22.6391 93.8242C22.1963 94.0783 21.8835 94.0783 21.5216 93.8559L18.7068 92.1198C18.271 91.8516 18.1972 91.5411 18.4643 91.107L25.3801 79.8044C25.6472 79.3668 25.9564 79.2927 26.3886 79.5609L29.0629 81.2123C29.5162 81.4911 29.5724 81.7911 29.3054 82.2251L25.5488 88.3652L27.7381 87.0948C28.1914 86.8231 28.5498 86.8266 28.9996 87.1054L29.6954 87.5324C30.1488 87.8112 30.3104 88.1287 30.2753 88.6581L30.1382 91.1917L33.8948 85.0516C34.1619 84.6141 34.4711 84.54 34.9034 84.8082L37.4933 86.4032L37.4898 86.4102Z" fill="white"></path><path d="M23.2246 78.9079C23.5233 79.3243 23.4706 79.6384 23.0595 79.9383L12.3379 87.6911C11.9232 87.991 11.6105 87.9381 11.3153 87.5252L5.78754 79.8184C5.48884 79.402 5.54155 79.0879 5.95271 78.788L7.88899 77.387C8.30366 77.0871 8.61642 77.14 8.91512 77.5529L12.2043 82.1368L13.48 81.2158L11.1571 77.9763C10.8584 77.5599 10.9111 77.2459 11.3223 76.9459L13.0934 75.665C13.5081 75.365 13.8208 75.418 14.1195 75.8308L16.4424 79.0703L17.8656 78.0399L14.5764 73.456C14.2777 73.0396 14.3304 72.7255 14.7415 72.4256L16.6778 71.0247C17.0925 70.7247 17.4052 70.7776 17.704 71.1905L23.2317 78.8974L23.2246 78.9079Z" fill="white"></path><path d="M12.118 69.5145C12.3112 69.9873 12.1918 70.2802 11.7279 70.4955L4.56962 73.7949C4.10575 74.0101 3.82111 73.9043 3.62783 73.4314L2.14135 69.818C1.94808 69.3451 2.07458 69.0699 2.55602 68.8934L9.9392 66.141C10.4171 65.9645 10.7193 66.1057 10.9126 66.5785L12.118 69.511V69.5145ZM17.1643 67.7325C17.3575 68.2053 17.238 68.4982 16.7672 68.6958L14.3002 69.7192C13.8118 69.9238 13.5377 69.7933 13.3409 69.3204L11.9106 65.8375C11.7174 65.3646 11.8193 65.0788 12.3077 64.8741L14.7746 63.8508C15.2455 63.6567 15.5372 63.7767 15.734 64.2496L17.1643 67.7325Z" fill="white"></path></svg>