<svg xmlns="http://www.w3.org/2000/svg" fill="none" class="absolute bottom-[calc(3rem+3.5vw)] right-16 z-40 hidden w-6 translate-x-1/2 text-white sm:block" viewBox="0 0 32 32"><path fill="currentColor" d="M10.64 10.7h10.664l-.024-.023v9.807c0 .853 0 .856.848.856h9.088c.564 0 .774.112.767.721a484.124 484.124 0 0 0 0 9.178c0 .64-.197.768-.804.761-3.028-.03-6.056 0-9.087 0-.778 0-.782 0-.782-.807 0-3.034-.02-6.071 0-9.105 0-.659-.193-.768-.797-.761-3.052.03-6.103 0-9.158 0-.234 0-.467.033-.704.05h.02c.009-2.8.013-5.599.013-8.394v-2.306zm6.233 8.818c.685 0 1.373-.026 2.057 0 .48.023.688-.115.668-.619-.037-.659 0-1.318 0-1.977 0-1.126.073-.965-1.002-.971-.848 0-.848 0-.848.817 0 .161.05.352 0 .48a.827.827 0 0 1-.41.4c-.233.03-.468.039-.701.026-.481.046-.595-.175-.591-.616 0-1.23.203-1.1-1.132-1.11H14.7c-.36-.04-.504.105-.497.474.02.865.02 1.73 0 2.592 0 .363.117.498.49.485.712.003 1.446.02 2.18.02m-1.806-5.33h1.563c1.202 0 1.182 0 1.158-1.222 0-.398-.143-.52-.53-.514-1.159.02-2.32 0-3.48 0-1.592.023-1.245-.28-1.308 1.318 0 .33.1.395.397.392.735.003 1.466.023 2.2.026m13.414 10.624h-.494c-1.442 0-1.452 0-1.278 1.417.02.155.253.398.394.402.918.039 1.84.032 2.757 0 .137 0 .384-.169.39-.27a3.866 3.866 0 0 0-.083-1.434c-.053-.145-.667-.095-1.048-.122-.21-.006-.407.007-.638.007m-.046 5.366h.637c1.366-.04 1.179.293 1.216-1.228 0-.471-.198-.61-.635-.6h-1.696c-1.435.023-1.238-.22-1.272 1.265 0 .409.094.603.548.567.397-.033.811-.007 1.202-.004m-3.55-5.346v-.626c0-1.268 0-1.262-1.278-1.192-.317 0-.474.105-.47.44v2.794a.492.492 0 0 0 .273.383c1.105.296 1.46.02 1.46-1.1zm0 4.47c-.016-.988.154-.945-.874-.949-.871 0-.878 0-.871.903 0 1.028-.117.92.888.92 1.005 0 .845.105.858-.857zm-14.22-18.63L.867 10.64c-.975 0-.852.109-.855-.873C.002 6.753.022 3.74.002.725.002.22.075 0 .67 0c3.116.033 6.22.033 9.314 0 .544 0 .668.158.668.659-.02 3.34 0 6.68 0 10.024zM1.818 5.33v3.08c0 .33.057.458.42.455 1.49-.017 2.979 0 4.47-.027a.58.58 0 0 0 .398-.385c.154-1.275.14-1.298-1.165-1.318-.444 0-.56-.148-.57-.563-.03-1.206-.048-1.222-1.336-1.262-.374 0-.494-.125-.48-.487.022-.63 0-1.259 0-1.888 0-1.192 0-1.176-1.233-1.15-.4 0-.53.132-.52.524.033 1.015.016 2.016.016 3.021"></path><path fill="currentColor" d="M10.684 21.353c0 .988-.046 1.957-.05 2.935v7.08c0 .434-.093.606-.58.603a762.02 762.02 0 0 0-9.515 0c-.444.003-.538-.155-.538-.567v-9.53c0-.284-.043-.557.407-.554 3.43.024 6.86.04 10.29.046zm-3.595 5.3a9.2 9.2 0 0 0 1.335-.022.69.69 0 0 0 .46-.442c.201-1.262.114-1.37-1.198-1.367-.474 0-.637-.142-.587-.593.021-.28.021-.56 0-.84 0-.109-.057-.303-.1-.306a6.19 6.19 0 0 0-1.396 0c-.117.02-.197.444-.234.695-.06.389-.06.787-.1 1.18-.147 1.511.024 1.706 1.526 1.706zm-3.546 3.525h.638c1.319-.036 1.185.297 1.188-1.251 0-.046.017-.112 0-.139-.14-.148-.283-.405-.434-.412a34.452 34.452 0 0 0-2.67 0c-.14 0-.391.168-.398.267-.064.478-.037.963.08 1.43.047.142.685.086 1.052.112.167.003.357-.007.544-.007m.017-5.336v-.698c-.03-1.21.247-1.097-1.192-1.127-.554 0-.694.24-.668.725.047.6.087 1.199.097 1.798 0 1.203 0 1.19 1.262 1.12.36-.02.508-.135.49-.494-.006-.441.01-.883.01-1.324m4.43 5.336c.931 0 .931 0 .935-.81 0-1.018 0-1.018-.985-1.018-.858 0-.861 0-.855.926.007 1.008-.103.89.905.902m13.315-19.495c0-3.294.009-6.588.027-9.883 0-.787 0-.79.798-.79h9.154c.557 0 .72.145.718.701a533.357 533.357 0 0 0 0 9.244c0 .543-.14.708-.708.705-3.339-.02-6.677 0-10.016 0zm5.405-7.168c-.397 0-.801-.033-1.198 0-.471.036-.668-.096-.668-.606.02-1.134 0-1.134-1.175-1.1h-.07c-.354-.043-.501.092-.494.464.017 1.467.017 2.932 0 4.394 0 .373.143.478.497.475.354-.004.794.04 1.192.062 0 .139.037.277.04.415.02 1.302.02 1.302 1.335 1.242.07 0 .16.023.207 0 .114-.085.27-.18.297-.296.264-1.163.05-1.427-1.138-1.413-.256.013-.511.04-.765.079.027-.465.077-.926.07-1.387 0-.353.097-.481.478-.498 1.399-.052 1.399-.069 1.372-1.489 0-.115 0-.23-.02-.349 1.042 0 2.08.03 3.121.02.147 0 .414-.138.421-.224a3.76 3.76 0 0 0-.073-1.37c-.047-.132-.641-.093-.985-.112h-.851c-1.7-.017-1.7-.017-1.593 1.693m3.572 3.57v-.56c0-1.317 0-1.317-1.375-1.221-.334.023-.474.118-.471.45v2.663a.548.548 0 0 0 .314.418c1.248.28 1.516.06 1.516-1.19zM14.18 3.515c.047-.55-.097-1.275.204-1.598.3-.323 1.021-.089 1.562-.105h.357c.444 0 1.002-.109 1.299.108.22.162.073.778.157 1.18.033.161.24.293.387.421.04.033.137 0 .207 0 1.356.03 1.366.03 1.215 1.384a.589.589 0 0 1-.4.382c-.438.073-1.042-.099-1.286.129-.243.227-.14.823-.13 1.258.01.435-.17.451-.51.461-1.156.03-1.179.04-1.202 1.153 0 .432-.16.596-.581.54a1.544 1.544 0 0 0-.214 0c-1.235-.016-1.035.102-1.001-.988.02-.61-.197-.79-.765-.705-.16.023-.334 0-.494 0-.367.036-.538-.105-.497-.474a.653.653 0 0 0 0-.139c-.034-1.153-.034-1.179 1.128-1.162.517 0 .668-.178.62-.66-.033-.395 0-.793 0-1.192zm.04 21.32c0-.441.02-.886 0-1.318-.017-.372.15-.487.504-.48.851 0 1.703.026 2.554 0 .4 0 .47.167.47.503 0 .412-.106.989.117 1.193.224.204.795.128 1.212.115.417-.013.551.168.508.544a.47.47 0 0 0 0 .069c0 1.42.096 1.186-1.145 1.163-.561 0-.775.151-.702.705.044.33.034.659.05.988v-.02c-.333.027-.667.07-.974.076-.795 0-.858.07-.865.807 0 .988 0 .955-1.001.988-.578.023-.815-.128-.742-.721a8.89 8.89 0 0 0 0-1.117l-.02.023c.444 0 .895 0 1.336.023.44.023.514-.178.504-.54v-2.47c0-.41-.134-.6-.574-.57-.441.03-.848 0-1.272 0zm14.202-7.169H26.7l.023.023c.022-.439.016-.879-.017-1.317a.576.576 0 0 0-.39-.389 14.38 14.38 0 0 0-1.462 0l.023.023c0-.988.023-2.01 0-3.01 0-.396.127-.518.527-.531 1.252-.043 1.279-.06 1.276 1.166 0 .49.193.58.624.566.828-.026 1.67 0 2.484 0 .334 0 .5.08.457.426a.547.547 0 0 0 0 .072c.057 1.255.057 1.278-1.212 1.275-.477 0-.627.158-.6.606.023.369 0 .744-.024 1.117zm-21.27-1.633c0-.442-.053-.883-.027-1.318.027-.435-.16-.563-.577-.553-.805.023-1.61 0-2.41.016-.408 0-.605-.072-.581-.534.06-1.242-.248-1.169 1.148-1.172h3.262c.958 0 .958 0 .958.902v2.171c0 .33-.117.455-.454.448-.448 0-.895.023-1.336.04z"></path><path fill="currentColor" d="M26.709 17.66c-.024.576.177 1.41-.127 1.667-.36.31-1.152.148-1.76.151-1.652 0-1.652 0-1.652-1.647v-.21c0-1.648 0-1.648 1.716-1.648l-.023-.023c.036.55-.13 1.318.166 1.591.298.274 1.069.096 1.63.116h.05zM14.217 28.33c-1.736.172-1.736.172-1.736-1.508 0-.465.027-.932 0-1.394-.027-.46.167-.61.614-.576.374.03.755 0 1.132 0l-.027-.02v3.525zm14.191-10.65c.473-.014.947-.003 1.419.032a.595.595 0 0 1 .4.406c.158 1.337-.03 1.522-1.388 1.364a.584.584 0 0 1-.38-.402c-.038-.465-.05-.931-.037-1.397zm-10.62 10.614c.42.02.845.056 1.266.056.42 0 .524.162.537.547.047 1.242-.304 1.542-1.546 1.226a.514.514 0 0 1-.253-.386c-.024-.487 0-.988 0-1.463zM7.93 19.486c-.918-.024-.805.121-.811-.913 0-.823.08-.84 1.145-.893.727-.04.667.38.667.834-.016.922-.066.971-1.001.971m-6.107-.932c.134-.25-.3-.824.417-.85 1.132-.043 1.289.073 1.286.89 0 .988.1.892-.768.886-.988-.004-.928.158-.935-.926m5.31-2.536c-.017.392-.057.784-.043 1.175.013.392-.104.53-.481.482a.994.994 0 0 0-.14 0c-1.048 0-1.372-.406-1.052-1.414a.518.518 0 0 1 .404-.244c.444-.023.888 0 1.336.02z"></path></svg>