<svg xmlns="http://www.w3.org/2000/svg" width="760" height="440" fill="none" class="absolute w-full translate-y-[9cqw]" viewBox="0 0 760 440"><g filter="url(#filter0_ddddi_1061_1320)"><path fill="url(#paint0_radial_1061_1320)" d="M693.252 135.599s32.237-.373 25.93 9.449c-6.307 9.823-20.323 16.831-20.323 16.831-3.583 32.499-44.438 91.402-100.853 107.521-74.745 21.355-127.897 23.827-165.74 17.169-38.544 15.769-231.674 20.882-277.518-10.512-80.943-6.307-129.36-79.839-110.79-140.458 18.572-60.62 94.609-98.452 193.422-104.76 66.226-37.504 256.144-24.89 299.243 9.45 106.873 3.504 141.562 34.69 156.629 95.31" fill-opacity=".75"></path><path fill="url(#paint1_radial_1061_1320)" d="M693.252 135.599s32.237-.373 25.93 9.449c-6.307 9.823-20.323 16.831-20.323 16.831-3.583 32.499-44.438 91.402-100.853 107.521-74.745 21.355-127.897 23.827-165.74 17.169-38.544 15.769-231.674 20.882-277.518-10.512-80.943-6.307-129.36-79.839-110.79-140.458 18.572-60.62 94.609-98.452 193.422-104.76 66.226-37.504 256.144-24.89 299.243 9.45 106.873 3.504 141.562 34.69 156.629 95.31" fill-opacity=".75"></path><path fill="url(#paint2_radial_1061_1320)" d="M693.252 135.599s32.237-.373 25.93 9.449c-6.307 9.823-20.323 16.831-20.323 16.831-3.583 32.499-44.438 91.402-100.853 107.521-74.745 21.355-127.897 23.827-165.74 17.169-38.544 15.769-231.674 20.882-277.518-10.512-80.943-6.307-129.36-79.839-110.79-140.458 18.572-60.62 94.609-98.452 193.422-104.76 66.226-37.504 256.144-24.89 299.243 9.45 106.873 3.504 141.562 34.69 156.629 95.31" fill-opacity=".5"></path></g><defs><radialGradient id="paint0_radial_1061_1320" cx="0" cy="0" r="1" gradientTransform="matrix(-174.14881 -59.92005 91.37426 -265.56585 624.925 153.469)" gradientUnits="userSpaceOnUse"><stop stop-color="#00B2FF"></stop><stop stop-color="#4BC9FF"></stop><stop offset="1" stop-color="#FF51CE" stop-opacity="0"></stop></radialGradient><radialGradient id="paint1_radial_1061_1320" cx="0" cy="0" r="1" gradientTransform="rotate(146.31 170.167 112.914)scale(133.92 166.103)" gradientUnits="userSpaceOnUse"><stop stop-color="#00B3FF"></stop><stop stop-color="#00B2FF" stop-opacity=".67"></stop><stop offset="1" stop-color="white" stop-opacity=".03"></stop></radialGradient><radialGradient id="paint2_radial_1061_1320" cx="0" cy="0" r="1" gradientTransform="matrix(120.18815 -46.25316 61.9819 161.05908 187.685 200.02)" gradientUnits="userSpaceOnUse"><stop stop-color="#0075FF"></stop><stop offset="1" stop-color="#42FF00" stop-opacity=".03"></stop><stop offset="1" stop-color="#0085FF" stop-opacity=".03"></stop></radialGradient><filter id="filter0_ddddi_1061_1320" width="759.892" height="438.927" x=".054" y=".291" color-interpolation-filters="sRGB" filterUnits="userSpaceOnUse"><feFlood flood-opacity="0" result="BackgroundImageFix"></feFlood><feColorMatrix in="SourceAlpha" result="hardAlpha" type="matrix" values="0 0 0 0 0 0 0 0 0 0 0 0 0 0 0 0 0 0 127 0"></feColorMatrix><feOffset dy="6.307"></feOffset><feGaussianBlur stdDeviation="7.008"></feGaussianBlur><feColorMatrix type="matrix" values="0 0 0 0 0 0 0 0 0 0 0 0 0 0 0 0 0 0 0.1 0"></feColorMatrix><feBlend in2="BackgroundImageFix" mode="normal" result="effect1_dropShadow_1061_1320"></feBlend><feColorMatrix in="SourceAlpha" result="hardAlpha" type="matrix" values="0 0 0 0 0 0 0 0 0 0 0 0 0 0 0 0 0 0 127 0"></feColorMatrix><feOffset dy="25.229"></feOffset><feGaussianBlur stdDeviation="12.614"></feGaussianBlur><feColorMatrix type="matrix" values="0 0 0 0 0 0 0 0 0 0 0 0 0 0 0 0 0 0 0.09 0"></feColorMatrix><feBlend in2="effect1_dropShadow_1061_1320" mode="normal" result="effect2_dropShadow_1061_1320"></feBlend><feColorMatrix in="SourceAlpha" result="hardAlpha" type="matrix" values="0 0 0 0 0 0 0 0 0 0 0 0 0 0 0 0 0 0 127 0"></feColorMatrix><feOffset dy="56.765"></feOffset><feGaussianBlur stdDeviation="16.819"></feGaussianBlur><feColorMatrix type="matrix" values="0 0 0 0 0 0 0 0 0 0 0 0 0 0 0 0 0 0 0.05 0"></feColorMatrix><feBlend in2="effect2_dropShadow_1061_1320" mode="normal" result="effect3_dropShadow_1061_1320"></feBlend><feColorMatrix in="SourceAlpha" result="hardAlpha" type="matrix" values="0 0 0 0 0 0 0 0 0 0 0 0 0 0 0 0 0 0 127 0"></feColorMatrix><feOffset dy="100.215"></feOffset><feGaussianBlur stdDeviation="19.973"></feGaussianBlur><feColorMatrix type="matrix" values="0 0 0 0 0 0 0 0 0 0 0 0 0 0 0 0 0 0 0.01 0"></feColorMatrix><feBlend in2="effect3_dropShadow_1061_1320" mode="normal" result="effect4_dropShadow_1061_1320"></feBlend><feBlend in="SourceGraphic" in2="effect4_dropShadow_1061_1320" mode="normal" result="shape"></feBlend><feColorMatrix in="SourceAlpha" result="hardAlpha" type="matrix" values="0 0 0 0 0 0 0 0 0 0 0 0 0 0 0 0 0 0 127 0"></feColorMatrix><feOffset dx="-.701" dy="7.008"></feOffset><feGaussianBlur stdDeviation="13.981"></feGaussianBlur><feComposite in2="hardAlpha" k2="-1" k3="1" operator="arithmetic"></feComposite><feColorMatrix type="matrix" values="0 0 0 0 0.875 0 0 0 0 0.875 0 0 0 0 0.875 0 0 0 1 0"></feColorMatrix><feBlend in2="shape" mode="normal" result="effect5_innerShadow_1061_1320"></feBlend></filter></defs></svg>