<svg xmlns="http://www.w3.org/2000/svg" fill="none" class="absolute w-full transition-all delay-0 duration-500 -top-full" viewBox="0 0 73 147"><path fill="#D9D9D9" d="M73 0H0v74l7 5-7 5v21l35.5 41.5L73 105V84l-7-5 7-5z"></path><path fill="#39CCFB" d="M73 0H0v74l7 5-7 5v21l35.5 41.5L73 105V84l-7-5 7-5z"></path><path fill="#39CCFB" d="M73 0H0v74l7 5-7 5v21l35.5 41.5L73 105V84l-7-5 7-5z"></path><path fill="url(#paint0_radial_417_33)" d="M73 0H0v74l7 5-7 5v21l35.5 41.5L73 105V84l-7-5 7-5z"></path><path fill="url(#paint1_radial_417_33)" d="M73 0H0v74l7 5-7 5v21l35.5 41.5L73 105V84l-7-5 7-5z"></path><path fill="#fff" d="M41.88 65.121c-.27.14-7.706 7.534-7.64 7.6.024.024.351.008.735-.033 2.21-.254 5.007.04 7.305.769l.843.27.965-.344c.54-.188.99-.384.998-.425.057-.156-1.456-7.01-1.603-7.305a1.21 1.21 0 0 0-1.604-.532"></path><path fill="#fff" d="m48.072 73.35-5.105 1.546-.785-.245c-2.994-.94-6.937-1.022-10.16-.204-6.707 1.693-11.59 7.14-12.793 14.29-.303 1.767-.303 4.4-.016 6.217.417 2.593 1.366 5.202 2.02 5.546.246.139 3.452.818 3.82.818.213 0 .344-.041.377-.123.024-.065.024-1.129-.009-2.356-.024-1.227-.024-2.331.009-2.454.032-.13.122-.237.237-.262.106-.032 1.268.205 2.625.524 1.342.319 2.536.58 2.659.58.27 0 .499-.228.499-.49 0-.106-.368-1.333-.818-2.716-.957-2.953-1.08-3.599-.916-4.981.327-2.798 2.037-4.95 4.4-5.555 2.724-.695 5.718.753 7.093 3.42.957 1.848 1.022 3.272.204 4.155-.63.687-1.202.924-3.918 1.66-4.384 1.195-4.736 1.326-4.859 1.898-.033.131.025 1.007.123 1.947.188 1.832.172 2.012-.188 2.094-.099.025-1.391-.114-2.88-.319-2.887-.384-3.018-.384-3.124.017-.041.18.122 2.56.278 3.91.04.368.016.449-.14.605-.188.188-.196.188-1.848.131-1.546-.057-1.669-.049-1.726.082-.131.351 1.489 1.325 2.797 1.676.827.221 2.904.303 4.099.164 1.586-.188 3.689-.695 6.167-1.489 4.483-1.439 11.91-4.147 15.231-5.546 2.397-1.014 2.97-1.603 2.953-3.034-.008-.86-.155-1.522-1.03-4.663-.385-1.374-.835-3.01-.998-3.64a166.45 166.45 0 0 0-.704-2.577l-.409-1.44 1.734-4.572c1.865-4.94 1.94-5.203 1.604-5.718-.189-.286-.598-.458-1.056-.45-.212 0-2.413.63-5.447 1.554"></path><defs><radialGradient id="paint0_radial_417_33" cx="0" cy="0" r="1" gradientTransform="matrix(57.49995 31.5 -41.27975 75.35186 51.5 31.5)" gradientUnits="userSpaceOnUse"><stop stop-color="#212D3F"></stop><stop offset="1" stop-opacity="0"></stop></radialGradient><radialGradient id="paint1_radial_417_33" cx="0" cy="0" r="1" gradientTransform="matrix(-6.50002 -50.5 57.84173 -7.445 37 120.5)" gradientUnits="userSpaceOnUse"><stop stop-color="#C4F1FF"></stop><stop offset=".016" stop-color="#AEF0FF" stop-opacity=".984"></stop><stop offset="1" stop-color="#AEF0FF" stop-opacity="0"></stop></radialGradient></defs></svg>