<svg xmlns="http://www.w3.org/2000/svg" fill="none" class="absolute -left-[30%] hidden w-[40cqw] sm:block" viewBox="0 0 260 212"><path fill="url(#paint0_radial_1116_1070)" d="M.78 105.5c0-32.565 6.248-58.22 18.744-76.964C32.209 9.792 52.563.42 80.584.42s48.28 9.372 60.776 28.116c12.685 18.744 19.028 44.399 19.028 76.964 0 32.944-6.343 58.788-19.028 77.532-12.496 18.744-32.755 28.116-60.776 28.116s-48.375-9.372-61.06-28.116C7.028 164.288.78 138.444.78 105.5m111.896 0c0-19.123-2.083-33.796-6.248-44.02-4.165-10.413-12.78-15.62-25.844-15.62-13.064 0-21.679 5.207-25.844 15.62-4.165 10.224-6.248 24.897-6.248 44.02 0 12.875.757 23.572 2.272 32.092 1.515 8.331 4.544 15.147 9.088 20.448 4.733 5.112 11.644 7.668 20.732 7.668s15.904-2.556 20.448-7.668c4.733-5.301 7.857-12.117 9.372-20.448 1.515-8.52 2.272-19.217 2.272-32.092m68.258-55.664V4.68h78.668V212H209.05V49.836z"></path><defs><radialGradient id="paint0_radial_1116_1070" cx="0" cy="0" r="1" gradientTransform="rotate(-164.518 139.763 57.897)scale(335.906 578.179)" gradientUnits="userSpaceOnUse"><stop stop-opacity=".67"></stop><stop offset="1" stop-color="#1328DA" stop-opacity="0"></stop></radialGradient></defs></svg>