<svg xmlns="http://www.w3.org/2000/svg" fill="none" class="w-full" viewBox="0 0 413 413"><path fill="#F0F0F0" d="M7.027 3.927H3.954v3.1H3.06v-3.1H0V3.1h3.06V0h.895v3.1h3.073zm13.999 0h-3.072v3.1h-.896v-3.1H14V3.1h3.06V0h.895v3.1h3.072zm13.999 0h-3.072v3.1h-.896v-3.1H28V3.1h3.058V0h.896v3.1h3.072zm13.999 0h-3.072v3.1h-.896v-3.1h-3.058V3.1h3.058V0h.896v3.1h3.072zm13.999 0h-3.072v3.1h-.895v-3.1h-3.06V3.1h3.06V0h.895v3.1h3.072zm14 0H73.95v3.1h-.895v-3.1h-3.059V3.1h3.059V0h.895v3.1h3.072zm13.999 0h-3.073v3.1h-.895v-3.1h-3.059V3.1h3.059V0h.895v3.1h3.073zm13.999 0h-3.073v3.1h-.895v-3.1h-3.059V3.1h3.059V0h.895v3.1h3.073zm13.998 0h-3.072v3.1h-.896v-3.1h-3.058V3.1h3.058V0h.896v3.1h3.072zm13.999 0h-3.072v3.1h-.896v-3.1h-3.058V3.1h3.058V0h.896v3.1h3.072zm13.999 0h-3.072v3.1h-.896v-3.1h-3.058V3.1h3.058V0h.896v3.1h3.072zm13.999 0h-3.072v3.1h-.895v-3.1h-3.059V3.1h3.059V0h.895v3.1h3.072zm14 0h-3.073v3.1h-.895v-3.1h-3.059V3.1h3.059V0h.895v3.1h3.073zm13.999 0h-3.073v3.1h-.895v-3.1h-3.059V3.1h3.059V0h.895v3.1h3.073zm13.999 0h-3.072v3.1h-.896v-3.1h-3.059V3.1h3.059V0h.896v3.1h3.072zm13.999 0h-3.072v3.1h-.896v-3.1h-3.058V3.1h3.058V0h.896v3.1h3.072zm13.999 0h-3.072v3.1h-.896v-3.1h-3.058V3.1h3.058V0h.896v3.1h3.072zm13.999 0h-3.072v3.1h-.896v-3.1h-3.058V3.1h3.058V0h.896v3.1h3.072zm13.998 0h-3.072v3.1h-.895v-3.1h-3.059V3.1h3.059V0h.895v3.1h3.072zm14 0h-3.073v3.1h-.895v-3.1h-3.059V3.1h3.059V0h.895v3.1h3.073zm13.999 0h-3.073v3.1h-.895v-3.1h-3.059V3.1h3.059V0h.895v3.1h3.073zm13.999 0h-3.072v3.1h-.896v-3.1h-3.059V3.1h3.059V0h.896v3.1h3.072zm14 0h-3.072v3.1h-.896v-3.1h-3.058V3.1h3.058V0h.896v3.1h3.072zm13.999 0h-3.072v3.1h-.896v-3.1h-3.058V3.1h3.058V0h.896v3.1h3.072zm13.998 0h-3.072v3.1h-.896v-3.1h-3.058V3.1h3.058V0h.896v3.1h3.072zm13.999 0h-3.072v3.1h-.895v-3.1h-3.059V3.1h3.059V0h.895v3.1h3.072zm14 0h-3.073v3.1h-.895v-3.1h-3.059V3.1h3.059V0h.895v3.1h3.073zm13.999 0h-3.073v3.1h-.895v-3.1h-3.059V3.1h3.059V0h.895v3.1h3.073zm13.999 0h-3.072v3.1h-.896v-3.1h-3.059V3.1h3.059V0h.896v3.1h3.072zm13.999 0h-3.072v3.1h-.896v-3.1h-3.058V3.1h3.058V0h.896v3.1H413zM7.028 17.926H3.955v3.1H3.06v-3.1H0v-.827h3.06V14h.895v3.1h3.073zm13.998 0h-3.072v3.1h-.896v-3.1H14v-.827h3.06v-3.1h.895v3.1h3.072zm13.999 0h-3.072v3.1h-.896v-3.1H28v-.827h3.058v-3.1h.896v3.1h3.072zm13.999 0h-3.072v3.1h-.896v-3.1h-3.058v-.827h3.058V14h.896v3.1h3.072zm13.999 0h-3.072v3.1h-.895v-3.1h-3.06v-.827h3.06V14h.895v3.1h3.072zm14 0H73.95v3.1h-.895v-3.1h-3.059v-.827h3.059v-3.1h.895v3.1h3.072zm13.999 0h-3.073v3.1h-.895v-3.1h-3.059v-.827h3.059v-3.1h.895v3.1h3.073zm13.999 0h-3.073v3.1h-.895v-3.1h-3.059v-.827h3.059v-3.1h.895v3.1h3.073zm13.999 0h-3.072v3.1h-.896v-3.1h-3.059v-.827h3.059v-3.1h.896v3.1h3.072zm13.999 0h-3.072v3.1h-.896v-3.1h-3.058v-.827h3.058V14h.896v3.1h3.072zm13.999 0h-3.072v3.1h-.896v-3.1h-3.058v-.827h3.058V14h.896v3.1h3.072zm13.998 0h-3.072v3.1h-.895v-3.1h-3.059v-.827h3.059V14h.895v3.1h3.072zm14 0h-3.073v3.1h-.895v-3.1h-3.059v-.827h3.059V14h.895v3.1h3.073zm13.999 0h-3.073v3.1h-.895v-3.1h-3.059v-.827h3.059V14h.895v3.1h3.073zm13.999 0h-3.073v3.1h-.895v-3.1h-3.059v-.827h3.059v-3.1h.895v3.1h3.073zm13.999 0h-3.072v3.1h-.896v-3.1h-3.058v-.827h3.058v-3.1h.896v3.1h3.072zm13.999 0h-3.072v3.1h-.896v-3.1h-3.058v-.827h3.058v-3.1h.896v3.1h3.072zm13.999 0h-3.072v3.1h-.896v-3.1h-3.058v-.827h3.058V14h.896v3.1h3.072zm13.999 0h-3.072v3.1h-.895v-3.1h-3.059v-.827h3.059V14h.895v3.1h3.072zm14 0h-3.073v3.1h-.895v-3.1h-3.059v-.827h3.059V14h.895v3.1h3.073zm13.998 0h-3.073v3.1h-.895v-3.1h-3.059v-.827h3.059V14h.895v3.1h3.073zm13.999 0h-3.072v3.1h-.896v-3.1h-3.059v-.827h3.059V14h.896v3.1h3.072zm13.999 0h-3.072v3.1h-.896v-3.1h-3.058v-.827h3.058v-3.1h.896v3.1h3.072zm13.999 0h-3.072v3.1h-.896v-3.1h-3.058v-.827h3.058v-3.1h.896v3.1h3.072zm13.999 0h-3.072v3.1h-.896v-3.1h-3.058v-.827h3.058v-3.1h.896v3.1h3.072zm13.999 0h-3.072v3.1h-.895v-3.1h-3.059v-.827h3.059v-3.1h.895v3.1h3.072zm14 0h-3.073v3.1h-.895v-3.1h-3.059v-.827h3.059V14h.895v3.1h3.073zm13.999 0h-3.073v3.1h-.895v-3.1h-3.059v-.827h3.059V14h.895v3.1h3.073zm13.999 0h-3.072v3.1h-.896v-3.1h-3.059v-.827h3.059V14h.896v3.1h3.072zm13.998 0h-3.072v3.1h-.896v-3.1h-3.058v-.827h3.058V14h.896v3.1h3.072zM7.027 31.925H3.954v3.1H3.06v-3.1H0v-.827h3.06v-3.1h.895v3.1h3.073zm13.999 0h-3.072v3.1h-.896v-3.1H14v-.827h3.06v-3.1h.895v3.1h3.072zm13.999 0h-3.072v3.1h-.896v-3.1H28v-.827h3.058v-3.1h.896v3.1h3.072zm13.999 0h-3.072v3.1h-.896v-3.1h-3.058v-.827h3.058v-3.1h.896v3.1h3.072zm13.999 0h-3.072v3.1h-.895v-3.1h-3.06v-.827h3.06v-3.1h.895v3.1h3.072zm14 0H73.95v3.1h-.895v-3.1h-3.059v-.827h3.059v-3.1h.895v3.1h3.072zm13.999 0h-3.073v3.1h-.895v-3.1h-3.059v-.827h3.059v-3.1h.895v3.1h3.073zm13.998 0h-3.072v3.1h-.896v-3.1h-3.059v-.827h3.059v-3.1h.896v3.1h3.072zm13.999 0h-3.072v3.1h-.896v-3.1h-3.058v-.827h3.058v-3.1h.896v3.1h3.072zm13.999 0h-3.072v3.1h-.896v-3.1h-3.058v-.827h3.058v-3.1h.896v3.1h3.072zm13.999 0h-3.072v3.1h-.896v-3.1h-3.058v-.827h3.058v-3.1h.896v3.1h3.072zm14 0h-3.072v3.1h-.896v-3.1h-3.058v-.827h3.058v-3.1h.896v3.1h3.072zm13.999 0h-3.072v3.1h-.895v-3.1h-3.059v-.827h3.059v-3.1h.895v3.1h3.072zm13.999 0h-3.073v3.1h-.895v-3.1h-3.059v-.827h3.059v-3.1h.895v3.1h3.073zm13.999 0h-3.073v3.1h-.895v-3.1h-3.059v-.827h3.059v-3.1h.895v3.1h3.073zm13.999 0h-3.072v3.1h-.896v-3.1h-3.058v-.827h3.058v-3.1h.896v3.1h3.072zm13.999 0h-3.072v3.1h-.896v-3.1h-3.058v-.827h3.058v-3.1h.896v3.1h3.072zm13.999 0h-3.072v3.1h-.896v-3.1h-3.058v-.827h3.058v-3.1h.896v3.1h3.072zm13.999 0h-3.072v3.1h-.895v-3.1h-3.059v-.827h3.059v-3.1h.895v3.1h3.072zm14 0h-3.073v3.1h-.895v-3.1h-3.059v-.827h3.059v-3.1h.895v3.1h3.073zm13.999 0h-3.073v3.1h-.895v-3.1h-3.059v-.827h3.059v-3.1h.895v3.1h3.073zm13.999 0h-3.073v3.1h-.895v-3.1h-3.059v-.827h3.059v-3.1h.895v3.1h3.073zm13.999 0h-3.072v3.1h-.896v-3.1h-3.059v-.827h3.059v-3.1h.896v3.1h3.072zm13.998 0h-3.072v3.1h-.896v-3.1h-3.058v-.827h3.058v-3.1h.896v3.1h3.072zm13.999 0h-3.072v3.1h-.896v-3.1h-3.058v-.827h3.058v-3.1h.896v3.1h3.072zm13.999 0h-3.072v3.1h-.895v-3.1h-3.059v-.827h3.059v-3.1h.895v3.1h3.072zm14 0h-3.073v3.1h-.895v-3.1h-3.059v-.827h3.059v-3.1h.895v3.1h3.073zm13.999 0h-3.073v3.1h-.895v-3.1h-3.059v-.827h3.059v-3.1h.895v3.1h3.073zm13.999 0h-3.073v3.1h-.895v-3.1h-3.059v-.827h3.059v-3.1h.895v3.1h3.073zm13.999 0h-3.072v3.1h-.896v-3.1h-3.058v-.827h3.058v-3.1h.896v3.1H413zM7.027 45.924H3.954v3.1H3.06v-3.1H0v-.827h3.06v-3.1h.895v3.1h3.073zm13.999 0h-3.072v3.1h-.896v-3.1h-3.059v-.827h3.059v-3.1h.896v3.1h3.072zm13.999 0h-3.072v3.1h-.896v-3.1H28v-.827h3.058v-3.1h.896v3.1h3.072zm13.999 0h-3.072v3.1h-.896v-3.1h-3.058v-.827h3.058v-3.1h.896v3.1h3.072zm13.999 0h-3.072v3.1h-.895v-3.1h-3.06v-.827h3.06v-3.1h.895v3.1h3.072zm14 0H73.95v3.1h-.895v-3.1h-3.059v-.827h3.059v-3.1h.895v3.1h3.072zm13.999 0h-3.073v3.1h-.895v-3.1h-3.059v-.827h3.059v-3.1h.895v3.1h3.073zm13.999 0h-3.073v3.1h-.895v-3.1h-3.059v-.827h3.059v-3.1h.895v3.1h3.073zm13.999 0h-3.072v3.1h-.896v-3.1h-3.059v-.827h3.059v-3.1h.896v3.1h3.072zm13.998 0h-3.072v3.1h-.896v-3.1h-3.058v-.827h3.058v-3.1h.896v3.1h3.072zm13.999 0h-3.072v3.1h-.896v-3.1h-3.058v-.827h3.058v-3.1h.896v3.1h3.072zm13.999 0h-3.072v3.1h-.895v-3.1h-3.059v-.827h3.059v-3.1h.895v3.1h3.072zm14 0h-3.073v3.1h-.895v-3.1h-3.059v-.827h3.059v-3.1h.895v3.1h3.073zm13.999 0h-3.073v3.1h-.895v-3.1h-3.059v-.827h3.059v-3.1h.895v3.1h3.073zm13.999 0h-3.073v3.1h-.895v-3.1h-3.059v-.827h3.059v-3.1h.895v3.1h3.073zm13.999 0h-3.072v3.1h-.896v-3.1h-3.058v-.827h3.058v-3.1h.896v3.1h3.072zm13.999 0h-3.072v3.1h-.896v-3.1h-3.058v-.827h3.058v-3.1h.896v3.1h3.072zm13.999 0h-3.072v3.1h-.896v-3.1h-3.058v-.827h3.058v-3.1h.896v3.1h3.072zm13.998 0h-3.072v3.1h-.895v-3.1h-3.059v-.827h3.059v-3.1h.895v3.1h3.072zm14 0h-3.073v3.1h-.895v-3.1h-3.059v-.827h3.059v-3.1h.895v3.1h3.073zm13.999 0h-3.073v3.1h-.895v-3.1h-3.059v-.827h3.059v-3.1h.895v3.1h3.073zm13.999 0h-3.072v3.1h-.896v-3.1h-3.059v-.827h3.059v-3.1h.896v3.1h3.072zm13.999 0h-3.072v3.1h-.896v-3.1h-3.058v-.827h3.058v-3.1h.896v3.1h3.072zm13.999 0h-3.072v3.1h-.896v-3.1h-3.058v-.827h3.058v-3.1h.896v3.1h3.072zm13.999 0h-3.072v3.1h-.896v-3.1h-3.058v-.827h3.058v-3.1h.896v3.1h3.072zm13.999 0h-3.072v3.1h-.895v-3.1h-3.059v-.827h3.059v-3.1h.895v3.1h3.072zm14 0h-3.073v3.1h-.895v-3.1h-3.059v-.827h3.059v-3.1h.895v3.1h3.073zm13.999 0h-3.073v3.1h-.895v-3.1h-3.059v-.827h3.059v-3.1h.895v3.1h3.073zm13.999 0h-3.073v3.1h-.895v-3.1h-3.059v-.827h3.059v-3.1h.895v3.1h3.073zm13.999 0h-3.072v3.1h-.896v-3.1h-3.058v-.827h3.058v-3.1h.896v3.1H413zM7.028 59.923H3.955v3.1H3.06v-3.1H0v-.827h3.06v-3.1h.895v3.1h3.073zm13.999 0h-3.073v3.1h-.895v-3.1H14v-.827h3.059v-3.1h.895v3.1h3.073zm13.998 0h-3.072v3.1h-.896v-3.1H28v-.827h3.058v-3.1h.896v3.1h3.072zm13.999 0h-3.072v3.1h-.896v-3.1h-3.058v-.827h3.058v-3.1h.896v3.1h3.072zm13.999 0h-3.072v3.1h-.895v-3.1h-3.06v-.827h3.06v-3.1h.895v3.1h3.072zm14 0H73.95v3.1h-.895v-3.1h-3.059v-.827h3.059v-3.1h.895v3.1h3.072zm13.999 0h-3.073v3.1h-.895v-3.1h-3.059v-.827h3.059v-3.1h.895v3.1h3.073zm13.999 0h-3.073v3.1h-.895v-3.1h-3.059v-.827h3.059v-3.1h.895v3.1h3.073zm13.999 0h-3.072v3.1h-.896v-3.1h-3.059v-.827h3.059v-3.1h.896v3.1h3.072zm13.999 0h-3.072v3.1h-.896v-3.1h-3.058v-.827h3.058v-3.1h.896v3.1h3.072zm13.999 0h-3.072v3.1h-.896v-3.1h-3.058v-.827h3.058v-3.1h.896v3.1h3.072zm13.999 0h-3.072v3.1h-.896v-3.1h-3.058v-.827h3.058v-3.1h.896v3.1h3.072zm13.999 0h-3.073v3.1h-.895v-3.1h-3.059v-.827h3.059v-3.1h.895v3.1h3.073zm13.999 0h-3.073v3.1h-.895v-3.1h-3.059v-.827h3.059v-3.1h.895v3.1h3.073zm13.999 0h-3.073v3.1h-.895v-3.1h-3.059v-.827h3.059v-3.1h.895v3.1h3.073zm13.999 0h-3.072v3.1h-.896v-3.1h-3.059v-.827h3.059v-3.1h.896v3.1h3.072zm13.999 0h-3.072v3.1h-.896v-3.1h-3.058v-.827h3.058v-3.1h.896v3.1h3.072zm13.999 0h-3.072v3.1h-.896v-3.1h-3.058v-.827h3.058v-3.1h.896v3.1h3.072zm13.999 0h-3.072v3.1h-.896v-3.1h-3.058v-.827h3.058v-3.1h.896v3.1h3.072zm13.999 0h-3.072v3.1h-.895v-3.1h-3.059v-.827h3.059v-3.1h.895v3.1h3.072zm14 0h-3.073v3.1h-.895v-3.1h-3.059v-.827h3.059v-3.1h.895v3.1h3.073zm13.998 0h-3.072v3.1h-.896v-3.1h-3.059v-.827h3.059v-3.1h.896v3.1h3.072zm13.999 0h-3.072v3.1h-.896v-3.1h-3.058v-.827h3.058v-3.1h.896v3.1h3.072zm13.999 0h-3.072v3.1h-.896v-3.1h-3.058v-.827h3.058v-3.1h.896v3.1h3.072zm13.999 0h-3.072v3.1h-.896v-3.1h-3.058v-.827h3.058v-3.1h.896v3.1h3.072zm13.999 0h-3.072v3.1h-.895v-3.1h-3.059v-.827h3.059v-3.1h.895v3.1h3.072zm14 0h-3.073v3.1h-.895v-3.1h-3.059v-.827h3.059v-3.1h.895v3.1h3.073zm13.999 0h-3.073v3.1h-.895v-3.1h-3.059v-.827h3.059v-3.1h.895v3.1h3.073zm13.999 0h-3.073v3.1h-.895v-3.1h-3.059v-.827h3.059v-3.1h.895v3.1h3.073zm13.999 0h-3.072v3.1h-.896v-3.1h-3.058v-.827h3.058v-3.1h.896v3.1H413zM7.027 73.922H3.954v3.1H3.06v-3.1H0v-.827h3.06v-3.1h.895v3.1h3.073zm13.999 0h-3.073v3.1h-.895v-3.1h-3.059v-.827h3.059v-3.1h.895v3.1h3.073zm13.999 0h-3.072v3.1h-.896v-3.1H28v-.827h3.058v-3.1h.896v3.1h3.072zm13.999 0h-3.072v3.1h-.896v-3.1h-3.058v-.827h3.058v-3.1h.896v3.1h3.072zm13.999 0h-3.072v3.1h-.896v-3.1h-3.058v-.827h3.058v-3.1h.896v3.1h3.072zm13.999 0H73.95v3.1h-.895v-3.1h-3.059v-.827h3.059v-3.1h.895v3.1h3.072zm14 0h-3.073v3.1h-.895v-3.1h-3.059v-.827h3.059v-3.1h.895v3.1h3.073zm13.999 0h-3.073v3.1h-.895v-3.1h-3.059v-.827h3.059v-3.1h.895v3.1h3.073zm13.998 0h-3.072v3.1h-.896v-3.1h-3.058v-.827h3.058v-3.1h.896v3.1h3.072zm13.999 0h-3.072v3.1h-.896v-3.1h-3.058v-.827h3.058v-3.1h.896v3.1h3.072zm13.999 0h-3.072v3.1h-.896v-3.1h-3.058v-.827h3.058v-3.1h.896v3.1h3.072zm13.999 0h-3.072v3.1h-.895v-3.1h-3.059v-.827h3.059v-3.1h.895v3.1h3.072zm14 0h-3.073v3.1h-.895v-3.1h-3.059v-.827h3.059v-3.1h.895v3.1h3.073zm13.999 0h-3.073v3.1h-.895v-3.1h-3.059v-.827h3.059v-3.1h.895v3.1h3.073zm13.999 0h-3.073v3.1h-.895v-3.1h-3.059v-.827h3.059v-3.1h.895v3.1h3.073zm13.999 0h-3.072v3.1h-.896v-3.1h-3.059v-.827h3.059v-3.1h.896v3.1h3.072zm13.999 0h-3.072v3.1h-.896v-3.1h-3.058v-.827h3.058v-3.1h.896v3.1h3.072zm13.999 0h-3.072v3.1h-.896v-3.1h-3.058v-.827h3.058v-3.1h.896v3.1h3.072zm13.999 0h-3.072v3.1h-.896v-3.1h-3.058v-.827h3.058v-3.1h.896v3.1h3.072zm13.999 0h-3.072v3.1h-.895v-3.1h-3.059v-.827h3.059v-3.1h.895v3.1h3.072zm14 0h-3.073v3.1h-.895v-3.1h-3.059v-.827h3.059v-3.1h.895v3.1h3.073zm13.999 0h-3.073v3.1h-.895v-3.1h-3.059v-.826h3.059v-3.1h.895v3.1h3.073zm13.999 0h-3.072v3.1h-.896v-3.1h-3.059v-.826h3.059v-3.1h.896v3.1h3.072zm13.999 0h-3.072v3.1h-.896v-3.1h-3.058v-.826h3.058v-3.1h.896v3.1h3.072zm13.998 0h-3.072v3.1h-.896v-3.1h-3.058v-.826h3.058v-3.1h.896v3.1h3.072zm13.999 0h-3.072v3.1h-.895v-3.1h-3.059v-.827h3.059v-3.1h.895v3.1h3.072zm14 0h-3.073v3.1h-.895v-3.1h-3.059v-.827h3.059v-3.1h.895v3.1h3.073zm13.999 0h-3.073v3.1h-.895v-3.1h-3.059v-.827h3.059v-3.1h.895v3.1h3.073zm13.999 0h-3.073v3.1h-.895v-3.1h-3.059v-.827h3.059v-3.1h.895v3.1h3.073zm13.999 0h-3.072v3.1h-.896v-3.1h-3.058v-.827h3.058v-3.1h.896v3.1H413zM7.028 87.921H3.955v3.1H3.06v-3.1H0v-.827h3.06v-3.1h.895v3.1h3.073zm13.998 0h-3.073v3.1h-.895v-3.1h-3.059v-.827h3.059v-3.1h.895v3.1h3.073zm13.999 0h-3.072v3.1h-.896v-3.1H28v-.827h3.058v-3.1h.896v3.1h3.072zm13.999 0h-3.072v3.1h-.896v-3.1h-3.058v-.827h3.058v-3.1h.896v3.1h3.072zm13.999 0h-3.072v3.1h-.896v-3.1h-3.058v-.827h3.058v-3.1h.896v3.1h3.072zm13.999 0H73.95v3.1h-.895v-3.1h-3.059v-.827h3.059v-3.1h.895v3.1h3.072zm14 0h-3.073v3.1h-.895v-3.1h-3.059v-.827h3.059v-3.1h.895v3.1h3.073zm13.999 0h-3.073v3.1h-.895v-3.1h-3.059v-.827h3.059v-3.1h.895v3.1h3.073zm13.999 0h-3.072v3.1h-.896v-3.1h-3.059v-.827h3.059v-3.1h.896v3.1h3.072zm13.999 0h-3.072v3.1h-.896v-3.1h-3.058v-.827h3.058v-3.1h.896v3.1h3.072zm13.998 0h-3.072v3.1h-.896v-3.1h-3.058v-.827h3.058v-3.1h.896v3.1h3.072zm13.999 0h-3.072v3.1h-.896v-3.1h-3.058v-.827h3.058v-3.1h.896v3.1h3.072zm14 0h-3.073v3.1h-.895v-3.1h-3.059v-.827h3.059v-3.1h.895v3.1h3.073zm13.999 0h-3.073v3.1h-.895v-3.1h-3.059v-.827h3.059v-3.1h.895v3.1h3.073zm13.999 0h-3.073v3.1h-.895v-3.1h-3.059v-.827h3.059v-3.1h.895v3.1h3.073zm13.999 0h-3.072v3.1h-.896v-3.1h-3.059v-.827h3.059v-3.1h.896v3.1h3.072zm13.999 0h-3.072v3.1h-.896v-3.1h-3.058v-.827h3.058v-3.1h.896v3.1h3.072zm13.999 0h-3.072v3.1h-.896v-3.1h-3.058v-.827h3.058v-3.1h.896v3.1h3.072zm13.999 0h-3.072v3.1h-.896v-3.1h-3.058v-.827h3.058v-3.1h.896v3.1h3.072zm13.999 0h-3.072v3.1h-.895v-3.1h-3.059v-.827h3.059v-3.1h.895v3.1h3.072zm13.999 0h-3.073v3.1h-.895v-3.1h-3.059v-.827h3.059v-3.1h.895v3.1h3.073zm13.999 0h-3.073v3.1h-.895v-3.1h-3.059v-.827h3.059v-3.1h.895v3.1h3.073zm13.999 0h-3.072v3.1h-.896v-3.1h-3.059v-.827h3.059v-3.1h.896v3.1h3.072zm13.999 0h-3.072v3.1h-.896v-3.1h-3.058v-.827h3.058v-3.1h.896v3.1h3.072zm13.999 0h-3.072v3.1h-.896v-3.1h-3.058v-.827h3.058v-3.1h.896v3.1h3.072zm13.999 0h-3.072v3.1h-.895v-3.1h-3.059v-.827h3.059v-3.1h.895v3.1h3.072zm14 0h-3.073v3.1h-.895v-3.1h-3.059v-.827h3.059v-3.1h.895v3.1h3.073zm13.999 0h-3.073v3.1h-.895v-3.1h-3.059v-.827h3.059v-3.1h.895v3.1h3.073zm13.999 0h-3.073v3.1h-.895v-3.1h-3.059v-.827h3.059v-3.1h.895v3.1h3.073zm13.998 0h-3.072v3.1h-.896v-3.1h-3.058v-.827h3.058v-3.1h.896v3.1h3.072zM7.027 101.92H3.954v3.1H3.06v-3.1H0v-.826h3.06v-3.1h.895v3.1h3.073zm13.999 0h-3.073v3.1h-.895v-3.1h-3.059v-.826h3.059v-3.1h.895v3.1h3.073zm13.999 0h-3.072v3.1h-.896v-3.1H28v-.827h3.058v-3.1h.896v3.1h3.072zm13.999 0h-3.072v3.1h-.896v-3.1h-3.058v-.827h3.058v-3.1h.896v3.1h3.072zm13.999 0h-3.072v3.1h-.896v-3.1h-3.058v-.827h3.058v-3.1h.896v3.1h3.072zm13.999 0H73.95v3.1h-.895v-3.1h-3.059v-.826h3.059v-3.1h.895v3.1h3.072zm14 0h-3.073v3.1h-.895v-3.1h-3.059v-.826h3.059v-3.1h.895v3.1h3.073zm13.999 0h-3.073v3.1h-.895v-3.1h-3.059v-.826h3.059v-3.1h.895v3.1h3.073zm13.999 0h-3.072v3.1h-.896v-3.1h-3.059v-.826h3.059v-3.1h.896v3.1h3.072zm13.999 0h-3.072v3.1h-.896v-3.1h-3.058v-.826h3.058v-3.1h.896v3.1h3.072zm13.999 0h-3.072v3.1h-.896v-3.1h-3.058v-.827h3.058v-3.1h.896v3.1h3.072zm13.999 0h-3.072v3.1h-.896v-3.1h-3.058v-.826h3.058v-3.1h.896v3.1h3.072zm13.999 0h-3.072v3.1h-.895v-3.1h-3.059v-.826h3.059v-3.1h.895v3.1h3.072zm13.999 0h-3.073v3.1h-.895v-3.1h-3.059v-.826h3.059v-3.1h.895v3.1h3.073zm13.999 0h-3.073v3.1h-.895v-3.1h-3.059v-.826h3.059v-3.1h.895v3.1h3.073zm13.999 0h-3.072v3.1h-.896v-3.1h-3.059v-.826h3.059v-3.1h.896v3.1h3.072zm13.999 0h-3.072v3.1h-.896v-3.1h-3.058v-.826h3.058v-3.1h.896v3.1h3.072zm13.999 0h-3.072v3.1h-.896v-3.1h-3.058v-.826h3.058v-3.1h.896v3.1h3.072zm13.999 0h-3.072v3.1h-.896v-3.1h-3.058v-.826h3.058v-3.1h.896v3.1h3.072zm13.999 0h-3.072v3.1h-.895v-3.1h-3.059v-.826h3.059v-3.1h.895v3.1h3.072zm14 0h-3.073v3.1h-.895v-3.1h-3.059v-.826h3.059v-3.1h.895v3.1h3.073zm13.999 0h-3.073v3.1h-.895v-3.1h-3.059v-.826h3.059v-3.1h.895v3.1h3.073zm13.998 0h-3.072v3.1h-.896v-3.1h-3.059v-.826h3.059v-3.1h.896v3.1h3.072zm13.999 0h-3.072v3.1h-.896v-3.1h-3.058v-.826h3.058v-3.1h.896v3.1h3.072zm13.999 0h-3.072v3.1h-.896v-3.1h-3.058v-.826h3.058v-3.1h.896v3.1h3.072zm13.999 0h-3.072v3.1h-.896v-3.1h-3.058v-.826h3.058v-3.1h.896v3.1h3.072zm14 0h-3.073v3.1h-.895v-3.1h-3.059v-.826h3.059v-3.1h.895v3.1h3.073zm13.999 0h-3.073v3.1h-.895v-3.1h-3.059v-.827h3.059v-3.1h.895v3.1h3.073zm13.999 0h-3.073v3.1h-.895v-3.1h-3.059v-.826h3.059v-3.1h.895v3.1h3.073zm13.999 0h-3.072v3.1h-.896v-3.1h-3.059v-.826h3.059v-3.1h.896v3.1H413zM7.027 115.919H3.954v3.1H3.06v-3.1H0v-.826h3.06v-3.1h.895v3.1h3.073zm13.999 0h-3.073v3.1h-.895v-3.1h-3.059v-.826h3.059v-3.1h.895v3.1h3.073zm13.999 0h-3.072v3.1h-.896v-3.1H28v-.826h3.058v-3.1h.896v3.1h3.072zm13.999 0h-3.072v3.1h-.896v-3.1h-3.058v-.826h3.058v-3.1h.896v3.1h3.072zm13.999 0h-3.072v3.1h-.896v-3.1h-3.058v-.826h3.058v-3.1h.896v3.1h3.072zm13.999 0H73.95v3.1h-.895v-3.1h-3.059v-.826h3.059v-3.1h.895v3.1h3.072zm14 0h-3.073v3.1h-.895v-3.1h-3.059v-.826h3.059v-3.1h.895v3.1h3.073zm13.999 0h-3.073v3.1h-.895v-3.1h-3.059v-.826h3.059v-3.1h.895v3.1h3.073zm13.999 0h-3.073v3.1h-.895v-3.1h-3.059v-.826h3.059v-3.1h.895v3.1h3.073zm13.998 0h-3.072v3.1h-.896v-3.1h-3.058v-.826h3.058v-3.1h.896v3.1h3.072zm13.999 0h-3.072v3.1h-.896v-3.1h-3.058v-.826h3.058v-3.1h.896v3.1h3.072zm13.999 0h-3.072v3.1h-.896v-3.1h-3.058v-.826h3.058v-3.1h.896v3.1h3.072zm13.999 0h-3.072v3.1h-.895v-3.1h-3.059v-.826h3.059v-3.1h.895v3.1h3.072zm14 0h-3.073v3.1h-.895v-3.1h-3.059v-.826h3.059v-3.1h.895v3.1h3.073zm13.999 0h-3.073v3.1h-.895v-3.1h-3.059v-.826h3.059v-3.1h.895v3.1h3.073zm13.999 0h-3.072v3.1h-.896v-3.1h-3.059v-.826h3.059v-3.1h.896v3.1h3.072zm13.999 0h-3.072v3.1h-.896v-3.1h-3.058v-.826h3.058v-3.1h.896v3.1h3.072zm13.999 0h-3.072v3.1h-.896v-3.1h-3.058v-.826h3.058v-3.1h.896v3.1h3.072zm13.998 0h-3.072v3.1h-.896v-3.1h-3.058v-.826h3.058v-3.1h.896v3.1h3.072zm13.999 0h-3.072v3.1h-.895v-3.1h-3.059v-.826h3.059v-3.1h.895v3.1h3.072zm14 0h-3.073v3.1h-.895v-3.1h-3.059v-.826h3.059v-3.1h.895v3.1h3.073zm13.999 0h-3.073v3.1h-.895v-3.1h-3.059v-.826h3.059v-3.1h.895v3.1h3.073zm14 0h-3.072v3.1h-.896v-3.1h-3.059v-.826h3.059v-3.1h.896v3.1h3.072zm13.999 0h-3.072v3.1h-.896v-3.1h-3.058v-.826h3.058v-3.1h.896v3.1h3.072zm13.999 0h-3.072v3.1h-.896v-3.1h-3.058v-.826h3.058v-3.1h.896v3.1h3.072zm13.998 0h-3.072v3.1h-.896v-3.1h-3.058v-.826h3.058v-3.1h.896v3.1h3.072zm14 0h-3.073v3.1h-.895v-3.1h-3.059v-.826h3.059v-3.1h.895v3.1h3.073zm13.999 0h-3.073v3.1h-.895v-3.1h-3.059v-.826h3.059v-3.1h.895v3.1h3.073zm13.999 0h-3.073v3.1h-.895v-3.1h-3.059v-.826h3.059v-3.1h.895v3.1h3.073zm13.999 0h-3.072v3.1h-.896v-3.1h-3.059v-.826h3.059v-3.1h.896v3.1H413zM7.028 129.918H3.955v3.1H3.06v-3.1H0v-.826h3.06v-3.1h.895v3.1h3.073zm13.999 0h-3.073v3.1h-.895v-3.1H14v-.826h3.059v-3.1h.895v3.1h3.073zm13.998 0h-3.072v3.1h-.896v-3.1H28v-.826h3.058v-3.1h.896v3.1h3.072zm13.999 0h-3.072v3.1h-.896v-3.1h-3.058v-.826h3.058v-3.1h.896v3.1h3.072zm13.999 0h-3.072v3.1h-.896v-3.1h-3.058v-.826h3.058v-3.1h.896v3.1h3.072zm13.999 0H73.95v3.1h-.895v-3.1h-3.06v-.826h3.06v-3.1h.895v3.1h3.072zm14 0h-3.073v3.1h-.895v-3.1h-3.059v-.826h3.059v-3.1h.895v3.1h3.073zm13.999 0h-3.073v3.1h-.895v-3.1h-3.059v-.826h3.059v-3.1h.895v3.1h3.073zm13.999 0h-3.073v3.1h-.895v-3.1h-3.059v-.826h3.059v-3.1h.895v3.1h3.073zm13.999 0h-3.072v3.1h-.896v-3.1h-3.058v-.826h3.058v-3.1h.896v3.1h3.072zm13.999 0h-3.072v3.1h-.896v-3.1h-3.058v-.826h3.058v-3.1h.896v3.1h3.072zm13.999 0h-3.072v3.1h-.896v-3.1h-3.058v-.826h3.058v-3.1h.896v3.1h3.072zm13.998 0h-3.072v3.1h-.895v-3.1h-3.059v-.826h3.059v-3.1h.895v3.1h3.072zm14 0h-3.073v3.1h-.895v-3.1h-3.059v-.826h3.059v-3.1h.895v3.1h3.073zm13.999 0h-3.073v3.1h-.895v-3.1h-3.059v-.826h3.059v-3.1h.895v3.1h3.073zm13.999 0h-3.072v3.1h-.896v-3.1h-3.059v-.826h3.059v-3.1h.896v3.1h3.072zm13.999 0h-3.072v3.1h-.896v-3.1h-3.058v-.826h3.058v-3.1h.896v3.1h3.072zm13.999 0h-3.072v3.1h-.896v-3.1h-3.058v-.826h3.058v-3.1h.896v3.1h3.072zm13.999 0h-3.072v3.1h-.896v-3.1h-3.058v-.826h3.058v-3.1h.896v3.1h3.072zm13.999 0h-3.072v3.1h-.895v-3.1h-3.059v-.826h3.059v-3.1h.895v3.1h3.072zm14 0h-3.073v3.1h-.895v-3.1h-3.059v-.826h3.059v-3.1h.895v3.1h3.073zm13.998 0h-3.073v3.1h-.895v-3.1h-3.059v-.826h3.059v-3.1h.895v3.1h3.073zm13.999 0h-3.072v3.1h-.896v-3.1h-3.059v-.826h3.059v-3.1h.896v3.1h3.072zm13.999 0h-3.072v3.1h-.896v-3.1h-3.058v-.826h3.058v-3.1h.896v3.1h3.072zm13.999 0h-3.072v3.1h-.896v-3.1h-3.058v-.826h3.058v-3.1h.896v3.1h3.072zm13.999 0h-3.072v3.1h-.896v-3.1h-3.058v-.826h3.058v-3.1h.896v3.1h3.072zm13.999 0h-3.072v3.1h-.895v-3.1h-3.059v-.826h3.059v-3.1h.895v3.1h3.072zm14 0h-3.073v3.1h-.895v-3.1h-3.059v-.826h3.059v-3.1h.895v3.1h3.073zm13.999 0h-3.073v3.1h-.895v-3.1h-3.059v-.826h3.059v-3.1h.895v3.1h3.073zm13.999 0h-3.072v3.1h-.896v-3.1h-3.059v-.826h3.059v-3.1h.896v3.1H413zM7.027 143.917H3.954v3.1H3.06v-3.1H0v-.826h3.06v-3.1h.895v3.1h3.073zm13.999 0h-3.073v3.1h-.895v-3.1h-3.059v-.826h3.059v-3.1h.895v3.1h3.073zm13.999 0h-3.072v3.1h-.896v-3.1H28v-.826h3.058v-3.1h.896v3.1h3.072zm13.999 0h-3.072v3.1h-.896v-3.1h-3.058v-.826h3.058v-3.1h.896v3.1h3.072zm13.999 0h-3.072v3.1h-.896v-3.1h-3.058v-.826h3.058v-3.1h.896v3.1h3.072zm13.999 0H73.95v3.1h-.895v-3.1h-3.06v-.826h3.06v-3.1h.895v3.1h3.072zm14 0h-3.073v3.1h-.895v-3.1h-3.059v-.826h3.059v-3.1h.895v3.1h3.073zm13.999 0h-3.073v3.1h-.895v-3.1h-3.059v-.826h3.059v-3.1h.895v3.1h3.073zm13.998 0h-3.072v3.1h-.896v-3.1h-3.059v-.826h3.059v-3.1h.896v3.1h3.072zm13.999 0h-3.072v3.1h-.896v-3.1h-3.058v-.826h3.058v-3.1h.896v3.1h3.072zm14 .001h-3.072v3.099h-.896v-3.099h-3.058v-.827h3.058v-3.1h.896v3.1h3.072zm13.999 0h-3.072v3.099h-.896v-3.099h-3.058v-.827h3.058v-3.1h.896v3.1h3.072zm13.999-.001h-3.072v3.1h-.896v-3.1h-3.058v-.826h3.058v-3.1h.896v3.1h3.072zm14 0h-3.073v3.1h-.895v-3.1h-3.059v-.826h3.059v-3.1h.895v3.1h3.073zm13.998 0h-3.073v3.1h-.895v-3.1h-3.059v-.826h3.059v-3.1h.895v3.1h3.073zm13.999 0h-3.073v3.1h-.895v-3.1h-3.059v-.826h3.059v-3.1h.895v3.1h3.073zm13.999 0h-3.072v3.1h-.896v-3.1h-3.058v-.826h3.058v-3.1h.896v3.1h3.072zm13.999 0h-3.072v3.1h-.896v-3.1h-3.058v-.826h3.058v-3.1h.896v3.1h3.072zm13.999.001h-3.072v3.099h-.896v-3.099h-3.058v-.827h3.058v-3.1h.896v3.1h3.072zm13.999 0h-3.072v3.099h-.895v-3.099h-3.059v-.827h3.059v-3.1h.895v3.1h3.072zm14-.001h-3.073v3.1h-.895v-3.1h-3.059v-.826h3.059v-3.1h.895v3.1h3.073zm13.999 0h-3.073v3.1h-.895v-3.1h-3.059v-.826h3.059v-3.1h.895v3.1h3.073zm13.999 0h-3.072v3.1h-.896v-3.1h-3.059v-.826h3.059v-3.1h.896v3.1h3.072zm13.999 0h-3.072v3.1h-.896v-3.1h-3.058v-.826h3.058v-3.1h.896v3.1h3.072zm13.998 0h-3.072v3.1h-.896v-3.1h-3.058v-.826h3.058v-3.1h.896v3.1h3.072zm13.999 0h-3.072v3.1h-.896v-3.1h-3.058v-.826h3.058v-3.1h.896v3.1h3.072zm13.999 0h-3.072v3.1h-.895v-3.1h-3.059v-.826h3.059v-3.1h.895v3.1h3.072zm14 0h-3.073v3.1h-.895v-3.1h-3.059v-.826h3.059v-3.1h.895v3.1h3.073zm13.999 0h-3.073v3.1h-.895v-3.1h-3.059v-.826h3.059v-3.1h.895v3.1h3.073zm13.999 0h-3.072v3.1h-.896v-3.1h-3.059v-.826h3.059v-3.1h.896v3.1H413zm-405.972 14H3.955v3.099H3.06v-3.099H0v-.827h3.06v-3.1h.895v3.1h3.073zm13.998 0h-3.073v3.099h-.895v-3.099h-3.059v-.827h3.059v-3.1h.895v3.1h3.073zm13.999 0h-3.072v3.099h-.896v-3.099H28v-.827h3.058v-3.1h.896v3.1h3.072zm13.999 0h-3.072v3.099h-.896v-3.099h-3.058v-.827h3.058v-3.1h.896v3.1h3.072zm13.999 0h-3.072v3.099h-.896v-3.099h-3.058v-.827h3.058v-3.1h.896v3.1h3.072zm13.999-.001H73.95v3.1h-.895v-3.1h-3.06v-.826h3.06v-3.1h.895v3.1h3.072zm14 .001h-3.073v3.099h-.895v-3.099h-3.059v-.827h3.059v-3.1h.895v3.1h3.073zm13.999 0h-3.073v3.099h-.895v-3.099h-3.059v-.827h3.059v-3.1h.895v3.1h3.073zm13.999 0h-3.073v3.099h-.895v-3.099h-3.059v-.827h3.059v-3.1h.895v3.1h3.073zm13.999 0h-3.072v3.099h-.896v-3.099h-3.058v-.827h3.058v-3.1h.896v3.1h3.072zm13.998 0h-3.072v3.099h-.896v-3.099h-3.058v-.827h3.058v-3.1h.896v3.1h3.072zm13.999 0h-3.072v3.099h-.896v-3.099h-3.058v-.827h3.058v-3.1h.896v3.1h3.072zm13.999 0h-3.072v3.099h-.895v-3.099h-3.059v-.827h3.059v-3.1h.895v3.1h3.072zm14-.001h-3.073v3.1h-.895v-3.1h-3.059v-.826h3.059v-3.1h.895v3.1h3.073zm13.999 0h-3.073v3.1h-.895v-3.1h-3.059v-.826h3.059v-3.1h.895v3.1h3.073zm13.999.001h-3.073v3.099h-.895v-3.099h-3.059v-.827h3.059v-3.1h.895v3.1h3.073zm13.999 0h-3.072v3.099h-.896v-3.099h-3.058v-.827h3.058v-3.1h.896v3.1h3.072zm13.999 0h-3.072v3.099h-.896v-3.099h-3.058v-.827h3.058v-3.1h.896v3.1h3.072zm13.999 0h-3.072v3.099h-.896v-3.099h-3.058v-.827h3.058v-3.1h.896v3.1h3.072zm13.999 0h-3.072v3.099h-.895v-3.099h-3.059v-.827h3.059v-3.1h.895v3.1h3.072zm13.999 0h-3.073v3.099h-.895v-3.099h-3.059v-.827h3.059v-3.1h.895v3.1h3.073zm13.999-.001h-3.073v3.1h-.895v-3.1h-3.059v-.826h3.059v-3.1h.895v3.1h3.073zm13.999 0h-3.072v3.1h-.896v-3.1h-3.059v-.826h3.059v-3.1h.896v3.1h3.072zm13.999 0h-3.072v3.1h-.896v-3.1h-3.058v-.826h3.058v-3.1h.896v3.1h3.072zm13.999.001h-3.072v3.099h-.896v-3.099h-3.058v-.827h3.058v-3.1h.896v3.1h3.072zm13.999 0h-3.072v3.099h-.896v-3.099h-3.058v-.827h3.058v-3.1h.896v3.1h3.072zm13.999 0h-3.072v3.099h-.895v-3.099h-3.059v-.827h3.059v-3.1h.895v3.1h3.072zm14 0h-3.073v3.099h-.895v-3.099h-3.059v-.827h3.059v-3.1h.895v3.1h3.073zm13.999 0h-3.073v3.099h-.895v-3.099h-3.059v-.827h3.059v-3.1h.895v3.1h3.073zm13.999 0h-3.072v3.1h-.896v-3.1h-3.059v-.827h3.059v-3.1h.896v3.1H413zM7.028 171.916H3.955v3.1H3.06v-3.1H0v-.827h3.06v-3.1h.895v3.1h3.073zm13.999 0h-3.073v3.1h-.895v-3.1H14v-.827h3.059v-3.1h.895v3.1h3.073zm13.999 0h-3.073v3.1h-.895v-3.1h-3.059v-.827h3.059v-3.1h.895v3.1h3.073zm13.998 0h-3.072v3.1h-.896v-3.1h-3.058v-.827h3.058v-3.1h.896v3.1h3.072zm13.999 0h-3.072v3.1h-.896v-3.1h-3.058v-.827h3.058v-3.1h.896v3.1h3.072zm13.999 0H73.95v3.099h-.895v-3.099h-3.06v-.827h3.06v-3.1h.895v3.1h3.072zm14 0h-3.073v3.099h-.895v-3.099h-3.059v-.827h3.059v-3.1h.895v3.1h3.073zm13.999 0h-3.073v3.099h-.895v-3.099h-3.059v-.827h3.059v-3.1h.895v3.1h3.073zm13.999 0h-3.073v3.1h-.895v-3.1h-3.059v-.827h3.059v-3.1h.895v3.1h3.073zm13.999 0h-3.072v3.1h-.896v-3.1h-3.059v-.827h3.059v-3.1h.896v3.1h3.072zm13.999 0h-3.072v3.1h-.896v-3.1h-3.058v-.827h3.058v-3.1h.896v3.1h3.072zm13.999 0h-3.072v3.1h-.896v-3.1h-3.058v-.827h3.058v-3.1h.896v3.1h3.072zm13.999 0h-3.072v3.1h-.896v-3.1h-3.058v-.827h3.058v-3.1h.896v3.1h3.072zm13.999 0h-3.073v3.1h-.895v-3.1h-3.059v-.827h3.059v-3.1h.895v3.1h3.073zm13.999 0h-3.073v3.1h-.895v-3.1h-3.059v-.827h3.059v-3.1h.895v3.1h3.073zm13.999 0h-3.073v3.099h-.895v-3.099h-3.059v-.827h3.059v-3.1h.895v3.1h3.073zm13.999 0h-3.072v3.099h-.896v-3.099h-3.058v-.827h3.058v-3.1h.896v3.1h3.072zm13.999 0h-3.072v3.1h-.896v-3.1h-3.058v-.827h3.058v-3.1h.896v3.1h3.072zm13.999 0h-3.072v3.1h-.896v-3.1h-3.058v-.827h3.058v-3.1h.896v3.1h3.072zm13.999 0h-3.072v3.1h-.895v-3.1h-3.059v-.827h3.059v-3.1h.895v3.1h3.072zm14 0h-3.073v3.1h-.895v-3.1h-3.059v-.827h3.059v-3.1h.895v3.1h3.073zm13.999 0h-3.073v3.1h-.895v-3.1h-3.059v-.827h3.059v-3.1h.895v3.1h3.073zm13.998 0h-3.072v3.1h-.896v-3.1h-3.059v-.827h3.059v-3.1h.896v3.1h3.072zm13.999 0h-3.072v3.099h-.896v-3.099h-3.058v-.827h3.058v-3.1h.896v3.1h3.072zm13.999 0h-3.072v3.099h-.896v-3.099h-3.058v-.827h3.058v-3.1h.896v3.1h3.072zm13.999 0h-3.072v3.1h-.896v-3.1h-3.058v-.827h3.058v-3.1h.896v3.1h3.072zm13.999 0h-3.072v3.1h-.895v-3.1h-3.059v-.827h3.059v-3.1h.895v3.1h3.072zm14 0h-3.073v3.1h-.895v-3.1h-3.059v-.827h3.059v-3.1h.895v3.1h3.073zm13.999 0h-3.073v3.1h-.895v-3.1h-3.059v-.827h3.059v-3.1h.895v3.1h3.073zm13.999 0h-3.072v3.1h-.896v-3.1h-3.059v-.827h3.059v-3.1h.896v3.1H413zM7.027 185.915H3.954v3.1H3.06v-3.1H0v-.827h3.06v-3.1h.895v3.1h3.073zm13.999 0h-3.073v3.1h-.895v-3.1h-3.059v-.827h3.059v-3.1h.895v3.1h3.073zm13.999 0h-3.072v3.1h-.896v-3.1h-3.058v-.827h3.058v-3.1h.896v3.1h3.072zm13.999 0h-3.072v3.1h-.896v-3.1h-3.058v-.827h3.058v-3.1h.896v3.1h3.072zm13.999 0h-3.072v3.1h-.896v-3.1h-3.058v-.827h3.058v-3.1h.896v3.1h3.072zm13.999 0H73.95v3.1h-.895v-3.1h-3.06v-.827h3.06v-3.1h.895v3.1h3.072zm14 0h-3.073v3.1h-.895v-3.1h-3.059v-.827h3.059v-3.1h.895v3.1h3.073zm13.999 0h-3.073v3.1h-.895v-3.1h-3.059v-.827h3.059v-3.1h.895v3.1h3.073zm13.999 0h-3.073v3.1h-.895v-3.1h-3.059v-.827h3.059v-3.1h.895v3.1h3.073zm13.998 0h-3.072v3.1h-.896v-3.1h-3.058v-.827h3.058v-3.1h.896v3.1h3.072zm13.999 0h-3.072v3.1h-.896v-3.1h-3.058v-.827h3.058v-3.1h.896v3.1h3.072zm13.999 0h-3.072v3.1h-.896v-3.1h-3.058v-.827h3.058v-3.1h.896v3.1h3.072zm13.999 0h-3.072v3.1h-.895v-3.1h-3.059v-.827h3.059v-3.1h.895v3.1h3.072zm14 0h-3.073v3.1h-.895v-3.1h-3.059v-.827h3.059v-3.1h.895v3.1h3.073zm13.999 0h-3.073v3.1h-.895v-3.1h-3.059v-.827h3.059v-3.1h.895v3.1h3.073zm14 0h-3.073v3.1h-.895v-3.1h-3.059v-.827h3.059v-3.1h.895v3.1h3.073zm13.998 0h-3.072v3.1h-.896v-3.1h-3.058v-.827h3.058v-3.1h.896v3.1h3.072zm13.999 0h-3.072v3.1h-.896v-3.1h-3.058v-.827h3.058v-3.1h.896v3.1h3.072zm13.999 0h-3.072v3.1h-.896v-3.1h-3.058v-.827h3.058v-3.1h.896v3.1h3.072zm13.999 0h-3.072v3.1h-.895v-3.1h-3.059v-.827h3.059v-3.1h.895v3.1h3.072zm14 0h-3.073v3.1h-.895v-3.1h-3.059v-.827h3.059v-3.1h.895v3.1h3.073zm13.999 0h-3.073v3.1h-.895v-3.1h-3.059v-.827h3.059v-3.1h.895v3.1h3.073zm13.999 0h-3.073v3.1h-.895v-3.1h-3.059v-.827h3.059v-3.1h.895v3.1h3.073zm13.999 0h-3.072v3.1h-.896v-3.1h-3.059v-.827h3.059v-3.1h.896v3.1h3.072zm13.999 0h-3.072v3.1h-.896v-3.1h-3.058v-.827h3.058v-3.1h.896v3.1h3.072zm13.998 0h-3.072v3.1h-.896v-3.1h-3.058v-.827h3.058v-3.1h.896v3.1h3.072zm13.999 0h-3.072v3.1h-.895v-3.1h-3.059v-.827h3.059v-3.1h.895v3.1h3.072zm14 0h-3.073v3.1h-.895v-3.1h-3.059v-.827h3.059v-3.1h.895v3.1h3.073zm13.999 0h-3.073v3.1h-.895v-3.1h-3.059v-.827h3.059v-3.1h.895v3.1h3.073zm13.999 0h-3.073v3.1h-.895v-3.1h-3.059v-.827h3.059v-3.1h.895v3.1H413zM7.028 199.914H3.955v3.1H3.06v-3.1H0v-.827h3.06v-3.1h.895v3.1h3.073zm13.999 0h-3.073v3.1h-.895v-3.1H14v-.827h3.059v-3.1h.895v3.1h3.073zm13.998 0h-3.072v3.1h-.896v-3.1h-3.058v-.827h3.058v-3.1h.896v3.1h3.072zm13.999 0h-3.072v3.1h-.896v-3.1h-3.058v-.827h3.058v-3.1h.896v3.1h3.072zm13.999 0h-3.072v3.1h-.896v-3.1h-3.058v-.827h3.058v-3.1h.896v3.1h3.072zm13.999 0H73.95v3.1h-.896v-3.1h-3.058v-.827h3.058v-3.1h.896v3.1h3.072zm14 0h-3.073v3.1h-.895v-3.1h-3.059v-.827h3.059v-3.1h.895v3.1h3.073zm13.999 0h-3.073v3.1h-.895v-3.1h-3.059v-.827h3.059v-3.1h.895v3.1h3.073zm13.999 0h-3.073v3.1h-.895v-3.1h-3.059v-.827h3.059v-3.1h.895v3.1h3.073zm13.999 0h-3.072v3.1h-.896v-3.1h-3.059v-.827h3.059v-3.1h.896v3.1h3.072zm13.999 0h-3.072v3.1h-.896v-3.1h-3.058v-.827h3.058v-3.1h.896v3.1h3.072zm13.999 0h-3.072v3.1h-.896v-3.1h-3.058v-.827h3.058v-3.1h.896v3.1h3.072zm13.998 0h-3.072v3.1h-.895v-3.1h-3.059v-.827h3.059v-3.1h.895v3.1h3.072zm14 0h-3.073v3.1h-.895v-3.1h-3.059v-.827h3.059v-3.1h.895v3.1h3.073zm13.999 0h-3.073v3.1h-.895v-3.1h-3.059v-.827h3.059v-3.1h.895v3.1h3.073zm13.999 0h-3.073v3.1h-.895v-3.1h-3.059v-.827h3.059v-3.1h.895v3.1h3.073zm13.999 0h-3.072v3.1h-.896v-3.1h-3.059v-.827h3.059v-3.1h.896v3.1h3.072zm13.999 0h-3.072v3.1h-.896v-3.1h-3.058v-.827h3.058v-3.1h.896v3.1h3.072zm13.999 0h-3.072v3.1h-.896v-3.1h-3.058v-.827h3.058v-3.1h.896v3.1h3.072zm13.999 0h-3.072v3.1h-.896v-3.1h-3.058v-.827h3.058v-3.1h.896v3.1h3.072zm13.999 0h-3.072v3.1h-.895v-3.1h-3.059v-.827h3.059v-3.1h.895v3.1h3.072zm13.999 0h-3.073v3.1h-.895v-3.1h-3.059v-.827h3.059v-3.1h.895v3.1h3.073zm13.999 0h-3.072v3.1h-.896v-3.1h-3.059v-.827h3.059v-3.1h.896v3.1h3.072zm13.999 0h-3.072v3.1h-.896v-3.1h-3.058v-.827h3.058v-3.1h.896v3.1h3.072zm13.999 0h-3.072v3.1h-.896v-3.1h-3.058v-.827h3.058v-3.1h.896v3.1h3.072zm13.999 0h-3.072v3.1h-.896v-3.1h-3.058v-.827h3.058v-3.1h.896v3.1h3.072zm13.999 0h-3.072v3.1h-.895v-3.1h-3.059v-.827h3.059v-3.1h.895v3.1h3.072zm14 0h-3.073v3.1h-.895v-3.1h-3.059v-.827h3.059v-3.1h.895v3.1h3.073zm13.999 0h-3.073v3.1h-.895v-3.1h-3.059v-.827h3.059v-3.1h.895v3.1h3.073zm13.999 0h-3.073v3.1h-.895v-3.1h-3.059v-.827h3.059v-3.1h.895v3.1H413zM7.027 213.913H3.954v3.1H3.06v-3.1H0v-.827h3.06v-3.1h.895v3.1h3.073zm13.999 0h-3.073v3.1h-.895v-3.1h-3.059v-.827h3.059v-3.1h.895v3.1h3.073zm13.999 0h-3.072v3.1h-.896v-3.1h-3.059v-.827h3.059v-3.1h.896v3.1h3.072zm13.999 0h-3.072v3.1h-.896v-3.1h-3.058v-.827h3.058v-3.1h.896v3.1h3.072zm13.999 0h-3.072v3.1h-.896v-3.1h-3.058v-.827h3.058v-3.1h.896v3.1h3.072zm13.999 0H73.95v3.1h-.896v-3.1h-3.058v-.827h3.058v-3.1h.896v3.1h3.072zm13.999 0H87.95v3.1h-.895v-3.1h-3.059v-.827h3.059v-3.1h.895v3.1h3.072zm14 0h-3.073v3.1h-.895v-3.1h-3.059v-.827h3.059v-3.1h.895v3.1h3.073zm13.999 0h-3.073v3.1h-.895v-3.1h-3.059v-.827h3.059v-3.1h.895v3.1h3.073zm13.999 0h-3.072v3.1h-.896v-3.1h-3.059v-.827h3.059v-3.1h.896v3.1h3.072zm13.999 0h-3.072v3.1h-.896v-3.1h-3.058v-.827h3.058v-3.1h.896v3.1h3.072zm13.999 0h-3.072v3.1h-.896v-3.1h-3.058v-.827h3.058v-3.1h.896v3.1h3.072zm13.999 0h-3.072v3.1h-.896v-3.1h-3.058v-.827h3.058v-3.1h.896v3.1h3.072zm13.999 0h-3.072v3.1h-.895v-3.1h-3.059v-.827h3.059v-3.1h.895v3.1h3.072zm13.999 0h-3.073v3.1h-.895v-3.1h-3.059v-.827h3.059v-3.1h.895v3.1h3.073zm13.999 0h-3.073v3.1h-.895v-3.1h-3.059v-.827h3.059v-3.1h.895v3.1h3.073zm13.999 0h-3.072v3.1h-.896v-3.1h-3.059v-.827h3.059v-3.1h.896v3.1h3.072zm13.999 0h-3.072v3.1h-.896v-3.1h-3.058v-.827h3.058v-3.1h.896v3.1h3.072zm13.999 0h-3.072v3.1h-.896v-3.1h-3.058v-.827h3.058v-3.1h.896v3.1h3.072zm13.999 0h-3.072v3.1h-.896v-3.1h-3.058v-.827h3.058v-3.1h.896v3.1h3.072zm13.999 0h-3.072v3.1h-.895v-3.1h-3.059v-.827h3.059v-3.1h.895v3.1h3.072zm14 0h-3.073v3.1h-.895v-3.1h-3.059v-.827h3.059v-3.1h.895v3.1h3.073zm13.999 0h-3.073v3.1h-.895v-3.1h-3.059v-.827h3.059v-3.1h.895v3.1h3.073zm13.999 0h-3.072v3.1h-.896v-3.1h-3.059v-.827h3.059v-3.1h.896v3.1h3.072zm13.998 0h-3.072v3.1h-.896v-3.1h-3.058v-.827h3.058v-3.1h.896v3.1h3.072zm13.999 0h-3.072v3.1h-.896v-3.1h-3.058v-.827h3.058v-3.1h.896v3.1h3.072zm13.999 0h-3.072v3.1h-.895v-3.1h-3.059v-.827h3.059v-3.1h.895v3.1h3.072zm14 0h-3.073v3.1h-.895v-3.1h-3.059v-.827h3.059v-3.1h.895v3.1h3.073zm13.999 0h-3.073v3.1h-.895v-3.1h-3.059v-.827h3.059v-3.1h.895v3.1h3.073zm13.999 0h-3.073v3.1h-.895v-3.1h-3.059v-.827h3.059v-3.1h.895v3.1H413zM7.028 227.912H3.955v3.1H3.06v-3.1H0v-.827h3.06v-3.1h.895v3.1h3.073zm13.998 0h-3.073v3.1h-.895v-3.1h-3.059v-.827h3.059v-3.1h.895v3.1h3.073zm13.999 0h-3.072v3.1h-.896v-3.1h-3.059v-.827h3.059v-3.1h.896v3.1h3.072zm13.999 0h-3.072v3.1h-.896v-3.1h-3.058v-.827h3.058v-3.1h.896v3.1h3.072zm13.999 0h-3.072v3.1h-.896v-3.1h-3.058v-.827h3.058v-3.1h.896v3.1h3.072zm13.999 0H73.95v3.1h-.896v-3.1h-3.058v-.827h3.058v-3.1h.896v3.1h3.072zm13.999 0H87.95v3.1h-.895v-3.1h-3.059v-.827h3.059v-3.1h.895v3.1h3.072zm14 0h-3.073v3.1h-.895v-3.1h-3.059v-.827h3.059v-3.1h.895v3.1h3.073zm13.999 0h-3.073v3.1h-.895v-3.1h-3.059v-.827h3.059v-3.1h.895v3.1h3.073zm13.999 0h-3.072v3.1h-.896v-3.1h-3.059v-.827h3.059v-3.1h.896v3.1h3.072zm13.998 0h-3.072v3.1h-.896v-3.1h-3.058v-.827h3.058v-3.1h.896v3.1h3.072zm13.999 0h-3.072v3.1h-.896v-3.1h-3.058v-.827h3.058v-3.1h.896v3.1h3.072zm13.999 0h-3.072v3.1h-.896v-3.1h-3.058v-.827h3.058v-3.1h.896v3.1h3.072zm13.999 0h-3.072v3.1h-.895v-3.1h-3.059v-.827h3.059v-3.1h.895v3.1h3.072zm14 0h-3.073v3.1h-.895v-3.1h-3.059v-.827h3.059v-3.1h.895v3.1h3.073zm13.999 0h-3.073v3.1h-.895v-3.1h-3.059v-.827h3.059v-3.1h.895v3.1h3.073zm13.999 0h-3.072v3.1h-.896v-3.1h-3.059v-.827h3.059v-3.1h.896v3.1h3.072zm13.999 0h-3.072v3.1h-.896v-3.1h-3.058v-.827h3.058v-3.1h.896v3.1h3.072zm13.999 0h-3.072v3.1h-.896v-3.1h-3.058v-.827h3.058v-3.1h.896v3.1h3.072zm13.998 0h-3.072v3.1h-.895v-3.1h-3.059v-.827h3.059v-3.1h.895v3.1h3.072zm14 0h-3.073v3.1h-.895v-3.1h-3.059v-.827h3.059v-3.1h.895v3.1h3.073zm14 0h-3.073v3.1h-.895v-3.1h-3.059v-.827h3.059v-3.1h.895v3.1h3.073zm13.999 0h-3.073v3.1h-.895v-3.1h-3.059v-.827h3.059v-3.1h.895v3.1h3.073zm13.999 0h-3.072v3.1h-.896v-3.1h-3.059v-.827h3.059v-3.1h.896v3.1h3.072zm13.999 0h-3.072v3.1h-.896v-3.1h-3.058v-.827h3.058v-3.1h.896v3.1h3.072zm13.999 0h-3.072v3.1h-.896v-3.1h-3.058v-.827h3.058v-3.1h.896v3.1h3.072zm13.998 0h-3.072v3.1h-.896v-3.1h-3.058v-.827h3.058v-3.1h.896v3.1h3.072zm13.999 0h-3.072v3.1h-.895v-3.1h-3.059v-.827h3.059v-3.1h.895v3.1h3.072zm14 0h-3.073v3.1h-.895v-3.1h-3.059v-.827h3.059v-3.1h.895v3.1h3.073zm13.999 0h-3.073v3.1h-.895v-3.1h-3.059v-.827h3.059v-3.1h.895v3.1H413zM7.028 241.911H3.955v3.1H3.06v-3.1H0v-.827h3.06v-3.099h.895v3.099h3.073zm13.999 0h-3.073v3.1h-.895v-3.1H14v-.827h3.059v-3.1h.895v3.1h3.073zm13.999 0h-3.073v3.1h-.895v-3.1h-3.059v-.827h3.059v-3.1h.895v3.1h3.073zm13.998 0h-3.072v3.1h-.896v-3.1h-3.058v-.827h3.058v-3.1h.896v3.1h3.072zm13.999 0h-3.072v3.1h-.896v-3.1h-3.058v-.827h3.058v-3.1h.896v3.1h3.072zm13.999 0H73.95v3.1h-.896v-3.1h-3.058v-.827h3.058v-3.1h.896v3.1h3.072zm13.999 0H87.95v3.1h-.895v-3.1h-3.059v-.827h3.058v-3.1h.896v3.1h3.072zm14 0h-3.073v3.1h-.895v-3.1h-3.059v-.827h3.059v-3.1h.895v3.1h3.073zm13.999 0h-3.073v3.1h-.895v-3.1h-3.059v-.827h3.059v-3.099h.895v3.099h3.073zm13.999 0h-3.073v3.1h-.895v-3.1h-3.059v-.827h3.059v-3.1h.895v3.1h3.073zm13.999 0h-3.072v3.1h-.896v-3.1h-3.058v-.827h3.058v-3.1h.896v3.1h3.072zm13.999 0h-3.072v3.1h-.896v-3.1h-3.058v-.827h3.058v-3.1h.896v3.1h3.072zm13.999 0h-3.072v3.1h-.896v-3.1h-3.058v-.827h3.058v-3.1h.896v3.1h3.072zm13.998 0h-3.072v3.1h-.895v-3.1h-3.059v-.827h3.059v-3.1h.895v3.1h3.072zm14 0h-3.073v3.1h-.895v-3.1h-3.059v-.827h3.059v-3.1h.895v3.1h3.073zm13.999 0h-3.073v3.1h-.895v-3.1h-3.059v-.827h3.059v-3.1h.895v3.1h3.073zm13.999 0h-3.072v3.1h-.896v-3.1h-3.059v-.827h3.059v-3.1h.896v3.1h3.072zm13.999 0h-3.072v3.1h-.896v-3.1h-3.058v-.827h3.058v-3.099h.896v3.099h3.072zm13.999 0h-3.072v3.1h-.896v-3.1h-3.058v-.827h3.058v-3.099h.896v3.099h3.072zm13.999 0h-3.072v3.1h-.896v-3.1h-3.058v-.827h3.058v-3.1h.896v3.1h3.072zm13.999 0h-3.072v3.1h-.895v-3.1h-3.059v-.827h3.059v-3.1h.895v3.1h3.072zm14 0h-3.073v3.1h-.895v-3.1h-3.059v-.827h3.059v-3.1h.895v3.1h3.073zm13.998 0h-3.073v3.1h-.895v-3.1h-3.059v-.827h3.059v-3.1h.895v3.1h3.073zm13.999 0h-3.072v3.1h-.896v-3.1h-3.059v-.827h3.059v-3.1h.896v3.1h3.072zm13.999 0h-3.072v3.1h-.896v-3.1h-3.058v-.827h3.058v-3.1h.896v3.1h3.072zm13.999 0h-3.072v3.1h-.896v-3.1h-3.058v-.827h3.058v-3.099h.896v3.099h3.072zm13.999 0h-3.072v3.1h-.896v-3.1h-3.058v-.827h3.058v-3.099h.896v3.099h3.072zm13.999 0h-3.072v3.1h-.895v-3.1h-3.059v-.827h3.059v-3.1h.895v3.1h3.072zm14 0h-3.073v3.1h-.895v-3.1h-3.059v-.827h3.059v-3.1h.895v3.1h3.073zm13.999 0h-3.073v3.1h-.895v-3.1h-3.059v-.827h3.059v-3.1h.895v3.1H413zM7.027 255.91H3.954v3.1H3.06v-3.1H0v-.827h3.06v-3.099h.895v3.099h3.073zm13.999 0h-3.073v3.1h-.895v-3.1h-3.059v-.827h3.059v-3.099h.895v3.099h3.073zm13.999 0h-3.072v3.1h-.896v-3.1h-3.059v-.827h3.059v-3.099h.896v3.099h3.072zm13.999 0h-3.072v3.1h-.896v-3.1h-3.058v-.827h3.058v-3.1h.896v3.1h3.072zm13.999 0h-3.072v3.1h-.896v-3.1h-3.058v-.827h3.058v-3.1h.896v3.1h3.072zm13.999 0H73.95v3.1h-.896v-3.1h-3.058v-.827h3.058v-3.099h.896v3.099h3.072zm13.999 0H87.95v3.1h-.895v-3.1h-3.059v-.827h3.058v-3.099h.896v3.099h3.072zm14 0h-3.073v3.1h-.895v-3.1h-3.059v-.827h3.059v-3.099h.895v3.099h3.073zm13.999 0h-3.073v3.1h-.895v-3.1h-3.059v-.827h3.059v-3.099h.895v3.099h3.073zm13.998 0h-3.072v3.1h-.896v-3.1h-3.059v-.827h3.059v-3.099h.896v3.099h3.072zm14 0h-3.072v3.1h-.896v-3.1h-3.058v-.826h3.058v-3.1h.896v3.1h3.072zm13.999 0h-3.072v3.1h-.896v-3.1h-3.058v-.827h3.058v-3.099h.896v3.099h3.072zm13.999 0h-3.072v3.1h-.896v-3.1h-3.058v-.827h3.058v-3.099h.896v3.099h3.072zm13.999 0h-3.072v3.1h-.895v-3.1h-3.059v-.827h3.059v-3.099h.895v3.099h3.072zm14 0h-3.073v3.1h-.895v-3.1h-3.059v-.827h3.059v-3.099h.895v3.099h3.073zm13.998 0h-3.073v3.1h-.895v-3.1h-3.059v-.827h3.059v-3.099h.895v3.099h3.073zm13.999 0h-3.072v3.1h-.896v-3.1h-3.059v-.827h3.059v-3.099h.896v3.099h3.072zm13.999 0h-3.072v3.1h-.896v-3.1h-3.058v-.827h3.058v-3.099h.896v3.099h3.072zm13.999 0h-3.072v3.1h-.896v-3.1h-3.058v-.827h3.058v-3.099h.896v3.099h3.072zm13.999 0h-3.072v3.1h-.896v-3.1h-3.058v-.826h3.058v-3.1h.896v3.1h3.072zm13.999 0h-3.072v3.1h-.895v-3.1h-3.059v-.826h3.059v-3.1h.895v3.1h3.072zm14 0h-3.073v3.1h-.895v-3.1h-3.059v-.827h3.059v-3.099h.895v3.099h3.073zm13.999 0h-3.073v3.1h-.895v-3.1h-3.059v-.827h3.059v-3.099h.895v3.099h3.073zm13.999 0h-3.072v3.1h-.896v-3.1h-3.059v-.827h3.059v-3.099h.896v3.099h3.072zm13.999 0h-3.072v3.1h-.896v-3.1h-3.058v-.827h3.058v-3.099h.896v3.099h3.072zm13.998 0h-3.072v3.1h-.896v-3.1h-3.058v-.827h3.058v-3.099h.896v3.099h3.072zm13.999 0h-3.072v3.1h-.896v-3.1h-3.058v-.827h3.058v-3.099h.896v3.099h3.072zm13.999 0h-3.072v3.1h-.895v-3.1h-3.059v-.826h3.059v-3.1h.895v3.1h3.072zm14 0h-3.073v3.1h-.895v-3.1h-3.059v-.826h3.059v-3.1h.895v3.1h3.073zm13.999 0h-3.073v3.1h-.895v-3.1h-3.059v-.826h3.059v-3.1h.895v3.1H413zM7.027 269.909H3.955v3.1H3.06v-3.1H0v-.826h3.06v-3.1h.895v3.1h3.072zm14 0h-3.073v3.1h-.895v-3.1H14v-.826h3.059v-3.1h.895v3.1h3.073zm13.998 0h-3.072v3.1h-.896v-3.1h-3.059v-.826h3.059v-3.1h.896v3.1h3.072zm13.999 0h-3.072v3.1h-.896v-3.1h-3.058v-.826h3.058v-3.1h.896v3.1h3.072zm13.999 0h-3.072v3.1h-.896v-3.1h-3.058v-.826h3.058v-3.1h.896v3.1h3.072zm13.999 0H73.95v3.1h-.896v-3.1h-3.058v-.827h3.058v-3.099h.896v3.099h3.072zm13.999 0H87.95v3.1h-.895v-3.1h-3.06v-.826h3.06v-3.1h.895v3.1h3.072zm14 0h-3.073v3.1h-.895v-3.1h-3.059v-.826h3.059v-3.1h.895v3.1h3.073zm13.999 0h-3.073v3.1h-.895v-3.1h-3.059v-.826h3.059v-3.1h.895v3.1h3.073zm13.999 0h-3.073v3.1h-.895v-3.1h-3.059v-.826h3.059v-3.1h.895v3.1h3.073zm13.999 0h-3.072v3.1h-.896v-3.1h-3.058v-.826h3.058v-3.1h.896v3.1h3.072zm13.998 0h-3.072v3.1h-.896v-3.1h-3.058v-.826h3.058v-3.1h.896v3.1h3.072zm13.999 0h-3.072v3.1h-.896v-3.1h-3.058v-.826h3.058v-3.1h.896v3.1h3.072zm13.999 0h-3.072v3.1h-.895v-3.1h-3.059v-.827h3.059v-3.099h.895v3.099h3.072zm14 0h-3.073v3.1h-.895v-3.1h-3.059v-.827h3.059v-3.099h.895v3.099h3.073zm13.999 0h-3.073v3.1h-.895v-3.1h-3.059v-.826h3.059v-3.1h.895v3.1h3.073zm13.999 0h-3.073v3.1h-.895v-3.1h-3.059v-.826h3.059v-3.1h.895v3.1h3.073zm13.999 0h-3.072v3.1h-.896v-3.1h-3.058v-.826h3.058v-3.1h.896v3.1h3.072zm13.999 0h-3.072v3.1h-.896v-3.1h-3.058v-.826h3.058v-3.1h.896v3.1h3.072zm13.999 0h-3.072v3.1h-.896v-3.1h-3.058v-.826h3.058v-3.1h.896v3.1h3.072zm13.999 0h-3.072v3.1h-.895v-3.1h-3.059v-.826h3.059v-3.1h.895v3.1h3.072zm13.999 0h-3.073v3.1h-.895v-3.1h-3.059v-.827h3.059v-3.099h.895v3.099h3.073zm13.999 0h-3.073v3.1h-.895v-3.1h-3.059v-.827h3.059v-3.099h.895v3.099h3.073zm13.999 0h-3.072v3.1h-.896v-3.1h-3.059v-.827h3.059v-3.099h.896v3.099h3.072zm13.999 0h-3.072v3.1h-.896v-3.1h-3.058v-.826h3.058v-3.1h.896v3.1h3.072zm13.999 0h-3.072v3.1h-.896v-3.1h-3.058v-.826h3.058v-3.1h.896v3.1h3.072zm13.999 0h-3.072v3.1h-.896v-3.1h-3.058v-.826h3.058v-3.1h.896v3.1h3.072zm13.999 0h-3.072v3.1h-.895v-3.1h-3.059v-.826h3.059v-3.1h.895v3.1h3.072zm14 0h-3.073v3.1h-.895v-3.1h-3.059v-.826h3.059v-3.1h.895v3.1h3.073zm13.999 0h-3.073v3.1h-.895v-3.1h-3.059v-.826h3.059v-3.1h.895v3.1H413zM7.027 283.908H3.955v3.1H3.06v-3.1H0v-.826h3.06v-3.1h.895v3.1h3.072zm14 0h-3.073v3.1h-.895v-3.1H14v-.826h3.059v-3.1h.895v3.1h3.073zm13.999 0h-3.073v3.1h-.895v-3.1h-3.059v-.826h3.059v-3.1h.895v3.1h3.073zm13.999 0h-3.072v3.1h-.896v-3.1h-3.059v-.826h3.059v-3.1h.895v3.1h3.073zm13.999 0h-3.072v3.1h-.896v-3.1h-3.058v-.826h3.058v-3.1h.896v3.1h3.072zm13.998 0H73.95v3.1h-.896v-3.1h-3.058v-.826h3.058v-3.1h.896v3.1h3.072zm13.999 0H87.95v3.1h-.895v-3.1h-3.06v-.826h3.06v-3.1h.895v3.1h3.072zm14 0h-3.073v3.1h-.895v-3.1h-3.059v-.826h3.059v-3.1h.895v3.1h3.073zm13.999 0h-3.073v3.1h-.895v-3.1h-3.059v-.826h3.059v-3.1h.895v3.1h3.073zm13.999 0h-3.073v3.1h-.895v-3.1h-3.059v-.826h3.059v-3.1h.895v3.1h3.073zm13.999 0h-3.072v3.1h-.896v-3.1h-3.059v-.826h3.059v-3.1h.896v3.1h3.072zm13.999 0h-3.072v3.1h-.896v-3.1h-3.058v-.826h3.058v-3.1h.896v3.1h3.072zm13.999 0h-3.072v3.1h-.896v-3.1h-3.058v-.826h3.058v-3.1h.896v3.1h3.072zm13.999 0h-3.072v3.1h-.896v-3.1h-3.058v-.826h3.058v-3.1h.896v3.1h3.072zm13.999 0h-3.073v3.1h-.895v-3.1h-3.059v-.826h3.059v-3.1h.895v3.1h3.073zm13.999 0h-3.073v3.1h-.895v-3.1h-3.059v-.826h3.059v-3.1h.895v3.1h3.073zm13.999 0h-3.073v3.1h-.895v-3.1h-3.059v-.826h3.059v-3.1h.895v3.1h3.073zm13.999 0h-3.072v3.1h-.896v-3.1h-3.058v-.826h3.058v-3.1h.896v3.1h3.072zm13.999 0h-3.072v3.1h-.896v-3.1h-3.058v-.826h3.058v-3.1h.896v3.1h3.072zm13.999 0h-3.072v3.1h-.896v-3.1h-3.058v-.826h3.058v-3.1h.896v3.1h3.072zm13.999 0h-3.072v3.1h-.895v-3.1h-3.059v-.826h3.059v-3.1h.895v3.1h3.072zm14 0h-3.073v3.1h-.895v-3.1h-3.059v-.826h3.059v-3.1h.895v3.1h3.073zm13.999 0h-3.073v3.1h-.895v-3.1h-3.059v-.826h3.059v-3.1h.895v3.1h3.073zm13.998 0h-3.072v3.1h-.896v-3.1h-3.059v-.826h3.059v-3.1h.896v3.1h3.072zm13.999 0h-3.072v3.1h-.896v-3.1h-3.058v-.826h3.058v-3.1h.896v3.1h3.072zm13.999 0h-3.072v3.1h-.896v-3.1h-3.058v-.826h3.058v-3.1h.896v3.1h3.072zm13.999 0h-3.072v3.1h-.896v-3.1h-3.058v-.826h3.058v-3.1h.896v3.1h3.072zm13.999 0h-3.072v3.1h-.895v-3.1h-3.059v-.826h3.059v-3.1h.895v3.1h3.072zm14 0h-3.073v3.1h-.895v-3.1h-3.059v-.826h3.059v-3.1h.895v3.1h3.073zm13.999 0h-3.073v3.1h-.895v-3.1h-3.059v-.826h3.059v-3.1h.895v3.1H413zM7.027 297.907H3.955v3.1H3.06v-3.1H0v-.826h3.06v-3.1h.895v3.1h3.072zm13.999 0h-3.073v3.1h-.895v-3.1h-3.059v-.826h3.059v-3.1h.895v3.1h3.073zm13.999 0h-3.072v3.1h-.896v-3.1h-3.059v-.826h3.059v-3.1h.896v3.1h3.072zm13.999 0h-3.072v3.1h-.896v-3.1h-3.058v-.826h3.058v-3.1h.896v3.1h3.072zm13.999 0h-3.072v3.1h-.896v-3.1h-3.058v-.826h3.058v-3.1h.896v3.1h3.072zm13.999 0H73.95v3.1h-.896v-3.1h-3.058v-.826h3.058v-3.1h.896v3.1h3.072zm13.999 0H87.95v3.1h-.895v-3.1h-3.06v-.826h3.06v-3.1h.895v3.1h3.072zm13.999 0h-3.072v3.1h-.895v-3.1h-3.059v-.826h3.059v-3.1h.895v3.1h3.072zm14 0h-3.073v3.1h-.895v-3.1h-3.059v-.826h3.059v-3.1h.895v3.1h3.073zm13.999 0h-3.073v3.1h-.895v-3.1h-3.059v-.826h3.059v-3.1h.895v3.1h3.073zm13.998 0h-3.072v3.1h-.896v-3.1h-3.058v-.826h3.058v-3.1h.896v3.1h3.072zm13.999 0h-3.072v3.1h-.896v-3.1h-3.058v-.826h3.058v-3.1h.896v3.1h3.072zm13.999 0h-3.072v3.1h-.896v-3.1h-3.058v-.826h3.058v-3.1h.896v3.1h3.072zm13.999 0h-3.072v3.1h-.895v-3.1h-3.059v-.826h3.059v-3.1h.895v3.1h3.072zm14 0h-3.073v3.1h-.895v-3.1h-3.059v-.826h3.059v-3.1h.895v3.1h3.073zm14 0h-3.073v3.1h-.895v-3.1h-3.059v-.826h3.059v-3.1h.895v3.1h3.073zm13.999 0h-3.073v3.1h-.895v-3.1h-3.059v-.826h3.059v-3.1h.895v3.1h3.073zm13.998 0h-3.072v3.1h-.896v-3.1h-3.058v-.826h3.058v-3.1h.896v3.1h3.072zm13.999 0h-3.072v3.1h-.896v-3.1h-3.058v-.826h3.058v-3.1h.896v3.1h3.072zm13.999 0h-3.072v3.1h-.896v-3.1h-3.058v-.826h3.058v-3.1h.896v3.1h3.072zm13.999 0h-3.072v3.1h-.896v-3.1h-3.058v-.826h3.058v-3.1h.896v3.1h3.072zm14 0h-3.073v3.1h-.895v-3.1h-3.059v-.826h3.059v-3.1h.895v3.1h3.073zm13.999 0h-3.073v3.1h-.895v-3.1h-3.059v-.826h3.059v-3.1h.895v3.1h3.073zm13.999 0h-3.073v3.1h-.895v-3.1h-3.059v-.826h3.059v-3.1h.895v3.1h3.073zm13.999 0h-3.072v3.1h-.896v-3.1h-3.058v-.826h3.058v-3.1h.896v3.1h3.072zm13.999 0h-3.072v3.1h-.896v-3.1h-3.058v-.826h3.058v-3.1h.896v3.1h3.072zm13.998 0h-3.072v3.1h-.896v-3.1h-3.058v-.826h3.058v-3.1h.896v3.1h3.072zm13.999 0h-3.072v3.1h-.895v-3.1h-3.059v-.826h3.059v-3.1h.895v3.1h3.072zm14 0h-3.073v3.1h-.895v-3.1h-3.059v-.826h3.059v-3.1h.895v3.1h3.073zm13.999 0h-3.073v3.1h-.895v-3.1h-3.059v-.826h3.059v-3.1h.895v3.1H413zM7.027 311.906H3.955v3.1H3.06v-3.1H0v-.826h3.06v-3.1h.895v3.1h3.072zm14 0h-3.073v3.1h-.895v-3.1H14v-.826h3.059v-3.1h.895v3.1h3.073zm13.999 0h-3.073v3.1h-.895v-3.1h-3.059v-.826h3.059v-3.1h.895v3.1h3.073zm13.998 0h-3.072v3.1h-.896v-3.1h-3.058v-.826h3.058v-3.1h.896v3.1h3.072zm13.999 0h-3.072v3.1h-.896v-3.1h-3.058v-.826h3.058v-3.1h.896v3.1h3.072zm13.999 0H73.95v3.1h-.896v-3.1h-3.058v-.826h3.058v-3.1h.896v3.1h3.072zm13.999 0H87.95v3.1h-.895v-3.1h-3.06v-.826h3.06v-3.1h.895v3.1h3.072zm13.999 0h-3.072v3.1h-.895v-3.1h-3.059v-.826h3.059v-3.1h.895v3.1h3.072zm14 0h-3.073v3.1h-.895v-3.1h-3.059v-.826h3.059v-3.1h.895v3.1h3.073zm13.999 0h-3.073v3.1h-.895v-3.1h-3.059v-.826h3.059v-3.1h.895v3.1h3.073zm13.999 0h-3.072v3.1h-.896v-3.1h-3.059v-.826h3.059v-3.1h.896v3.1h3.072zm13.999 0h-3.072v3.1h-.896v-3.1h-3.058v-.826h3.058v-3.1h.896v3.1h3.072zm13.999 0h-3.072v3.1h-.896v-3.1h-3.058v-.826h3.058v-3.1h.896v3.1h3.072zm13.998 0h-3.072v3.1h-.895v-3.1h-3.059v-.826h3.059v-3.1h.895v3.1h3.072zm14 0h-3.073v3.1h-.895v-3.1h-3.059v-.826h3.059v-3.1h.895v3.1h3.073zm13.999 0h-3.073v3.1h-.895v-3.1h-3.059v-.826h3.059v-3.1h.895v3.1h3.073zm13.999 0h-3.073v3.1h-.895v-3.1h-3.059v-.826h3.059v-3.1h.895v3.1h3.073zm13.999 0h-3.072v3.1h-.896v-3.1h-3.058v-.826h3.058v-3.1h.896v3.1h3.072zm13.999 0h-3.072v3.1h-.896v-3.1h-3.058v-.826h3.058v-3.1h.896v3.1h3.072zm13.999 0h-3.072v3.1h-.896v-3.1h-3.058v-.826h3.058v-3.1h.896v3.1h3.072zm13.999 0h-3.072v3.1h-.896v-3.1h-3.058v-.826h3.058v-3.1h.896v3.1h3.072zm14 0h-3.073v3.1h-.895v-3.1h-3.059v-.826h3.059v-3.1h.895v3.1h3.073zm13.998 0h-3.073v3.1h-.895v-3.1h-3.059v-.826h3.059v-3.1h.895v3.1h3.073zm13.999 0h-3.073v3.1h-.895v-3.1h-3.059v-.826h3.059v-3.1h.895v3.1h3.073zm13.999 0h-3.072v3.1h-.896v-3.1h-3.058v-.826h3.058v-3.1h.896v3.1h3.072zm13.999 0h-3.072v3.1h-.896v-3.1h-3.058v-.826h3.058v-3.1h.896v3.1h3.072zm13.999 0h-3.072v3.1h-.896v-3.1h-3.058v-.826h3.058v-3.1h.896v3.1h3.072zm13.999 0h-3.072v3.1h-.895v-3.1h-3.059v-.826h3.059v-3.1h.895v3.1h3.072zm14 0h-3.073v3.1h-.895v-3.1h-3.059v-.826h3.059v-3.1h.895v3.1h3.073zm13.999 0h-3.073v3.1h-.895v-3.1h-3.059v-.826h3.059v-3.1h.895v3.1H413zm-405.974 14H3.954v3.099H3.06v-3.099H0v-.827h3.059v-3.1h.895v3.1h3.072zm14 0h-3.073v3.099h-.895v-3.099h-3.059v-.827h3.059v-3.1h.895v3.1h3.073zm13.999-.001h-3.073v3.1h-.895v-3.1h-3.059v-.826h3.059v-3.1h.895v3.1h3.073zm13.999.001h-3.072v3.099h-.896v-3.099h-3.058v-.827h3.058v-3.1h.896v3.1h3.072zm14 0h-3.072v3.099h-.896v-3.099h-3.058v-.827h3.058v-3.1h.896v3.1h3.072zm13.999 0h-3.072v3.099h-.896v-3.099h-3.058v-.827h3.058v-3.1h.896v3.1h3.072zm13.998 0H87.95v3.099h-.895v-3.099h-3.06v-.827h3.06v-3.1h.895v3.1h3.072zm13.999-.001h-3.072v3.1h-.895v-3.1h-3.059v-.826h3.059v-3.1h.895v3.1h3.072zm14 0h-3.073v3.1h-.895v-3.1h-3.059v-.826h3.059v-3.1h.895v3.1h3.073zm13.999.001h-3.073v3.099h-.895v-3.099h-3.059v-.827h3.059v-3.1h.895v3.1h3.073zm13.999 0h-3.072v3.099h-.896v-3.099h-3.059v-.827h3.059v-3.1h.896v3.1h3.072zm13.999 0h-3.072v3.099h-.896v-3.099h-3.058v-.827h3.058v-3.1h.896v3.1h3.072zm13.999 0h-3.072v3.099h-.896v-3.099h-3.058v-.827h3.058v-3.1h.896v3.1h3.072zm13.999 0h-3.072v3.099h-.896v-3.099h-3.058v-.827h3.058v-3.1h.896v3.1h3.072zm13.999 0h-3.072v3.099h-.895v-3.099h-3.059v-.827h3.059v-3.1h.895v3.1h3.072zm13.999 0h-3.073v3.099h-.895v-3.099h-3.059v-.827h3.059v-3.1h.895v3.1h3.073zm13.999-.001h-3.073v3.1h-.895v-3.1h-3.059v-.826h3.059v-3.1h.895v3.1h3.073zm13.999 0h-3.072v3.1h-.896v-3.1h-3.059v-.826h3.059v-3.1h.896v3.1h3.072zm13.999.001h-3.072v3.099h-.896v-3.099h-3.058v-.827h3.058v-3.1h.896v3.1h3.072zm13.999 0h-3.072v3.099h-.896v-3.099h-3.058v-.827h3.058v-3.1h.896v3.1h3.072zm13.999 0h-3.072v3.099h-.896v-3.099h-3.058v-.827h3.058v-3.1h.896v3.1h3.072zm13.999 0h-3.072v3.099h-.895v-3.099h-3.059v-.827h3.059v-3.1h.895v3.1h3.072zm14 0h-3.073v3.099h-.895v-3.099h-3.059v-.827h3.059v-3.1h.895v3.1h3.073zm13.999 0h-3.073v3.1h-.895v-3.1h-3.059v-.827h3.059v-3.1h.895v3.1h3.073zm13.999 0h-3.072v3.099h-.896v-3.099h-3.059v-.827h3.059v-3.1h.896v3.1h3.072zm13.998-.001h-3.072v3.1h-.896v-3.1h-3.058v-.826h3.058v-3.1h.896v3.1h3.072zm13.999 0h-3.072v3.1h-.896v-3.1h-3.058v-.826h3.058v-3.1h.896v3.1h3.072zm13.999.001h-3.072v3.099h-.895v-3.099h-3.059v-.827h3.059v-3.1h.895v3.1h3.072zm14 0h-3.073v3.099h-.895v-3.099h-3.059v-.827h3.059v-3.1h.895v3.1h3.073zm13.999 0h-3.073v3.099h-.895v-3.099h-3.059v-.827h3.059v-3.1h.895v3.1H413zM7.027 339.905H3.955v3.1H3.06v-3.1H0v-.827h3.06v-3.1h.895v3.1h3.072zm14 0h-3.073v3.1h-.895v-3.1H14v-.827h3.059v-3.1h.895v3.1h3.072zm13.998 0h-3.073v3.1h-.895v-3.1h-3.059v-.827h3.059v-3.1h.895v3.1h3.073zm13.999 0h-3.072v3.099h-.896v-3.099h-3.058v-.827h3.058v-3.1h.896v3.1h3.072zm13.999 0h-3.072v3.099h-.896v-3.099h-3.058v-.827h3.058v-3.1h.896v3.1h3.072zm13.999 0H73.95v3.1h-.896v-3.1h-3.058v-.827h3.058v-3.1h.896v3.1h3.072zm13.999 0H87.95v3.1h-.896v-3.1h-3.058v-.827h3.058v-3.1h.896v3.1h3.072zm13.999 0h-3.072v3.1h-.895v-3.1h-3.059v-.827h3.059v-3.1h.895v3.1h3.072zm14 0h-3.073v3.099h-.895v-3.099h-3.059v-.827h3.059v-3.1h.895v3.1h3.073zm13.999 0h-3.073v3.099h-.895v-3.099h-3.059v-.827h3.059v-3.1h.895v3.1h3.073zm13.999 0h-3.072v3.099h-.896v-3.099h-3.059v-.827h3.059v-3.1h.896v3.1h3.072zm13.998 0h-3.072v3.099h-.896v-3.099h-3.058v-.827h3.058v-3.1h.896v3.1h3.072zm13.999 0h-3.072v3.099h-.896v-3.099h-3.058v-.827h3.058v-3.1h.896v3.1h3.072zm13.999 0h-3.072v3.099h-.896v-3.099h-3.058v-.827h3.058v-3.1h.896v3.1h3.072zm14 0h-3.073v3.1h-.895v-3.1h-3.059v-.827h3.059v-3.1h.895v3.1h3.073zm13.999 0h-3.073v3.1h-.895v-3.1h-3.059v-.827h3.059v-3.1h.895v3.1h3.073zm13.999 0h-3.073v3.1h-.895v-3.1h-3.059v-.827h3.059v-3.1h.895v3.1h3.073zm13.999 0h-3.072v3.1h-.896v-3.1h-3.059v-.827h3.059v-3.1h.896v3.1h3.072zm13.999 0h-3.072v3.099h-.896v-3.099h-3.058v-.827h3.058v-3.1h.896v3.1h3.072zm13.999 0h-3.072v3.099h-.896v-3.099h-3.058v-.827h3.058v-3.1h.896v3.1h3.072zm13.999 0h-3.072v3.1h-.896v-3.1h-3.058v-.827h3.058v-3.1h.896v3.1h3.072zm13.999 0h-3.072v3.1h-.895v-3.1h-3.059v-.827h3.059v-3.1h.895v3.1h3.072zm14 0h-3.073v3.1h-.895v-3.1h-3.059v-.827h3.059v-3.1h.895v3.1h3.073zm13.999 0h-3.073v3.1h-.895v-3.1h-3.059v-.827h3.059v-3.1h.895v3.1h3.073zm13.999 0h-3.072v3.1h-.896v-3.1h-3.059v-.827h3.059v-3.1h.896v3.1h3.072zm13.999 0h-3.072v3.1h-.896v-3.1h-3.058v-.827h3.058v-3.1h.896v3.1h3.072zm13.999 0h-3.072v3.1h-.896v-3.1h-3.058v-.827h3.058v-3.1h.896v3.1h3.072zm13.998 0h-3.072v3.099h-.895v-3.099h-3.059v-.827h3.059v-3.1h.895v3.1h3.072zm14 0h-3.073v3.099h-.895v-3.099h-3.059v-.827h3.059v-3.1h.895v3.1h3.073zm13.999 0h-3.073v3.1h-.895v-3.1h-3.059v-.827h3.059v-3.1h.895v3.1H413zM7.027 353.904H3.955v3.1H3.06v-3.1H0v-.827h3.06v-3.1h.895v3.1h3.072zm14 0h-3.073v3.1h-.895v-3.1H14v-.827h3.059v-3.1h.895v3.1h3.072zm13.999 0h-3.073v3.1h-.895v-3.1h-3.059v-.827h3.059v-3.1h.895v3.1h3.073zm13.999 0h-3.072v3.1h-.896v-3.1h-3.059v-.827h3.059v-3.1h.895v3.1h3.073zm13.998 0h-3.072v3.1h-.896v-3.1h-3.058v-.827h3.058v-3.1h.896v3.1h3.072zm13.999 0H73.95v3.1h-.896v-3.1h-3.058v-.827h3.058v-3.1h.896v3.1h3.072zm13.999 0H87.95v3.1h-.896v-3.1h-3.058v-.827h3.058v-3.1h.896v3.1h3.072zm13.999 0h-3.072v3.1h-.895v-3.1h-3.059v-.827h3.059v-3.1h.895v3.1h3.072zm14 0h-3.073v3.1h-.895v-3.1h-3.059v-.827h3.059v-3.1h.895v3.1h3.073zm13.999 0h-3.073v3.1h-.895v-3.1h-3.059v-.827h3.059v-3.1h.895v3.1h3.073zm13.999 0h-3.072v3.1h-.896v-3.1h-3.059v-.827h3.059v-3.1h.896v3.1h3.072zm13.999 0h-3.072v3.1h-.896v-3.1h-3.058v-.827h3.058v-3.1h.896v3.1h3.072zm13.999 0h-3.072v3.1h-.896v-3.1h-3.058v-.827h3.058v-3.1h.896v3.1h3.072zm13.999 0h-3.072v3.1h-.896v-3.1h-3.058v-.827h3.058v-3.1h.896v3.1h3.072zm13.998 0h-3.072v3.1h-.895v-3.1h-3.059v-.827h3.059v-3.1h.895v3.1h3.072zm14 0h-3.073v3.1h-.895v-3.1h-3.059v-.827h3.059v-3.1h.895v3.1h3.073zm13.999 0h-3.073v3.1h-.895v-3.1h-3.059v-.827h3.059v-3.1h.895v3.1h3.073zm13.999 0h-3.072v3.1h-.896v-3.1h-3.059v-.827h3.059v-3.1h.896v3.1h3.072zm13.999 0h-3.072v3.1h-.896v-3.1h-3.058v-.827h3.058v-3.1h.896v3.1h3.072zm13.999 0h-3.072v3.1h-.896v-3.1h-3.058v-.827h3.058v-3.1h.896v3.1h3.072zm13.999 0h-3.072v3.1h-.896v-3.1h-3.058v-.827h3.058v-3.1h.896v3.1h3.072zm13.999 0h-3.072v3.1h-.895v-3.1h-3.059v-.827h3.059v-3.1h.895v3.1h3.072zm14 0h-3.073v3.1h-.895v-3.1h-3.059v-.827h3.059v-3.1h.895v3.1h3.073zm13.998 0h-3.073v3.1h-.895v-3.1h-3.059v-.827h3.059v-3.1h.895v3.1h3.073zm13.999 0h-3.072v3.1h-.896v-3.1h-3.058v-.827h3.058v-3.1h.896v3.1h3.072zm13.999 0h-3.072v3.1h-.896v-3.1h-3.058v-.827h3.058v-3.1h.896v3.1h3.072zm13.999 0h-3.072v3.1h-.896v-3.1h-3.058v-.827h3.058v-3.1h.896v3.1h3.072zm13.999 0h-3.072v3.1h-.895v-3.1h-3.059v-.827h3.059v-3.1h.895v3.1h3.072zm14 0h-3.073v3.1h-.895v-3.1h-3.059v-.827h3.059v-3.1h.895v3.1h3.073zm13.999 0h-3.073v3.1h-.895v-3.1h-3.059v-.827h3.059v-3.1h.895v3.1H413zM7.026 367.903H3.954v3.1H3.06v-3.1H0v-.827h3.059v-3.1h.895v3.1h3.072zm14 0h-3.073v3.1h-.895v-3.1h-3.059v-.827h3.059v-3.1h.895v3.1h3.073zm13.999 0h-3.073v3.1h-.895v-3.1h-3.059v-.827h3.059v-3.1h.895v3.1h3.073zm13.999 0h-3.072v3.1h-.896v-3.1h-3.059v-.827h3.059v-3.1h.896v3.1h3.072zm13.999 0h-3.072v3.1h-.896v-3.1h-3.058v-.827h3.058v-3.1h.896v3.1h3.072zm13.999 0H73.95v3.1h-.896v-3.1h-3.058v-.827h3.058v-3.1h.896v3.1h3.072zm13.999 0H87.95v3.1h-.896v-3.1h-3.058v-.827h3.058v-3.1h.896v3.1h3.072zm13.999 0h-3.072v3.1h-.895v-3.1h-3.059v-.827h3.059v-3.1h.895v3.1h3.072zm14 0h-3.073v3.1h-.895v-3.1h-3.059v-.827h3.059v-3.1h.895v3.1h3.073zm13.999 0h-3.073v3.1h-.895v-3.1h-3.059v-.827h3.059v-3.1h.895v3.1h3.073zm13.999 0h-3.073v3.1h-.895v-3.1h-3.059v-.827h3.059v-3.1h.895v3.1h3.073zm13.999 0h-3.072v3.1h-.896v-3.1h-3.058v-.827h3.058v-3.1h.896v3.1h3.072zm13.999 0h-3.072v3.1h-.896v-3.1h-3.058v-.827h3.058v-3.1h.896v3.1h3.072zm13.999 0h-3.072v3.1h-.896v-3.1h-3.058v-.827h3.058v-3.1h.896v3.1h3.072zm13.999 0h-3.072v3.1h-.895v-3.1h-3.059v-.827h3.059v-3.1h.895v3.1h3.072zm14 0h-3.073v3.1h-.895v-3.1h-3.059v-.827h3.059v-3.1h.895v3.1h3.073zm13.999 0h-3.073v3.1h-.895v-3.1h-3.059v-.827h3.059v-3.1h.895v3.1h3.073zm13.998 0h-3.072v3.1h-.896v-3.1h-3.059v-.827h3.059v-3.1h.896v3.1h3.072zm13.999 0h-3.072v3.1h-.896v-3.1h-3.058v-.827h3.058v-3.1h.896v3.1h3.072zm13.999 0h-3.072v3.1h-.896v-3.1h-3.058v-.827h3.058v-3.1h.896v3.1h3.072zm13.999 0h-3.072v3.1h-.896v-3.1h-3.058v-.827h3.058v-3.1h.896v3.1h3.072zm13.999 0h-3.072v3.1h-.895v-3.1h-3.059v-.827h3.059v-3.1h.895v3.1h3.072zm14 0h-3.073v3.1h-.895v-3.1h-3.059v-.827h3.059v-3.1h.895v3.1h3.073zm13.999 0h-3.073v3.1h-.895v-3.1h-3.059v-.827h3.059v-3.1h.895v3.1h3.073zm13.999 0h-3.072v3.1h-.896v-3.1h-3.059v-.827h3.059v-3.1h.896v3.1h3.072zm13.999 0h-3.072v3.1h-.896v-3.1h-3.058v-.827h3.058v-3.1h.896v3.1h3.072zm13.998 0h-3.072v3.1h-.896v-3.1h-3.058v-.827h3.058v-3.1h.896v3.1h3.072zm13.999 0h-3.072v3.1h-.895v-3.1h-3.059v-.827h3.059v-3.1h.895v3.1h3.072zm14 0h-3.073v3.1h-.895v-3.1h-3.059v-.827h3.059v-3.1h.895v3.1h3.073zm13.999 0h-3.073v3.1h-.895v-3.1h-3.059v-.827h3.059v-3.1h.895v3.1H413zM7.027 381.902H3.955v3.1h-.896v-3.1H.001v-.827h3.058v-3.1h.896v3.1h3.072zm14 0h-3.073v3.1h-.895v-3.1H14v-.827h3.059v-3.1h.895v3.1h3.072zm13.999 0h-3.073v3.1h-.895v-3.1h-3.059v-.827h3.059v-3.1h.895v3.1h3.073zm13.998 0h-3.072v3.1h-.896v-3.1h-3.059v-.827h3.059v-3.1h.896v3.1h3.072zm13.999 0h-3.072v3.1h-.896v-3.1h-3.059v-.827h3.06v-3.1h.895v3.1h3.072zm13.999 0H73.95v3.1h-.896v-3.1h-3.058v-.827h3.058v-3.1h.896v3.1h3.072zm13.999 0H87.95v3.1h-.896v-3.1h-3.058v-.827h3.058v-3.1h.896v3.1h3.072zm13.999 0h-3.072v3.1h-.895v-3.1h-3.059v-.827h3.059v-3.1h.895v3.1h3.072zm14 0h-3.073v3.1h-.895v-3.1h-3.059v-.827h3.059v-3.1h.895v3.1h3.073zm13.999 0h-3.073v3.1h-.895v-3.1h-3.059v-.827h3.059v-3.1h.895v3.1h3.073zm13.999 0h-3.073v3.1h-.895v-3.1h-3.059v-.827h3.059v-3.1h.895v3.1h3.073zm13.999 0h-3.072v3.1h-.896v-3.1h-3.058v-.827h3.058v-3.1h.896v3.1h3.072zm13.999 0h-3.072v3.1h-.896v-3.1h-3.058v-.827h3.058v-3.1h.896v3.1h3.072zm13.998 0h-3.072v3.1h-.896v-3.1h-3.058v-.827h3.058v-3.1h.896v3.1h3.072zm13.999 0h-3.072v3.1h-.895v-3.1h-3.059v-.827h3.059v-3.1h.895v3.1h3.072zm14 0h-3.073v3.1h-.895v-3.1h-3.059v-.827h3.059v-3.1h.895v3.1h3.073zm13.999 0h-3.073v3.1h-.895v-3.1h-3.059v-.827h3.059v-3.1h.895v3.1h3.073zm13.999 0h-3.072v3.1h-.896v-3.1h-3.059v-.827h3.059v-3.1h.896v3.1h3.072zm13.999 0h-3.072v3.1h-.896v-3.1h-3.058v-.827h3.058v-3.1h.896v3.1h3.072zm13.999 0h-3.072v3.1h-.896v-3.1h-3.058v-.827h3.058v-3.1h.896v3.1h3.072zm13.999 0h-3.072v3.1h-.896v-3.1h-3.058v-.827h3.058v-3.1h.896v3.1h3.072zm13.999 0h-3.072v3.1h-.895v-3.1h-3.059v-.827h3.059v-3.1h.895v3.1h3.072zm13.999 0h-3.073v3.1h-.895v-3.1h-3.059v-.827h3.059v-3.1h.895v3.1h3.073zm13.999 0h-3.073v3.1h-.895v-3.1h-3.059v-.827h3.059v-3.1h.895v3.1h3.073zm13.999 0h-3.072v3.1h-.896v-3.1h-3.059v-.827h3.059v-3.1h.896v3.1h3.072zm13.999 0h-3.072v3.1h-.896v-3.1h-3.058v-.827h3.058v-3.1h.896v3.1h3.072zm14 0h-3.072v3.1h-.896v-3.1h-3.058v-.827h3.058v-3.1h.896v3.1h3.072zm13.999 0h-3.072v3.1h-.896v-3.1h-3.058v-.827h3.058v-3.1h.896v3.1h3.072zm13.998 0h-3.072v3.1h-.895v-3.1h-3.059v-.827h3.059v-3.1h.895v3.1H399zm14 0h-3.073v3.1h-.895v-3.1h-3.059v-.827h3.059v-3.1h.895v3.1H413zM7.027 395.901H3.955v3.1h-.896v-3.1H.001v-.827h3.058v-3.1h.896v3.1h3.072zm14 0h-3.073v3.1h-.895v-3.1H14v-.827h3.059v-3.1h.895v3.1h3.072zm13.999 0h-3.073v3.1h-.895v-3.1h-3.059v-.827h3.059v-3.1h.895v3.1h3.073zm13.999 0h-3.073v3.1h-.895v-3.1h-3.059v-.827h3.059v-3.1h.895v3.1h3.073zm13.999 0h-3.072v3.1h-.896v-3.1h-3.058v-.827h3.058v-3.1h.896v3.1h3.072zm13.999 0h-3.072v3.1h-.896v-3.1h-3.058v-.827h3.058v-3.1h.896v3.1h3.072zm13.998 0H87.95v3.1h-.896v-3.1h-3.058v-.827h3.058v-3.1h.896v3.1h3.072zm13.999 0h-3.072v3.1h-.895v-3.1h-3.06v-.827h3.06v-3.1h.895v3.1h3.072zm14 0h-3.073v3.1h-.895v-3.1h-3.059v-.827h3.059v-3.1h.895v3.1h3.073zm13.999 0h-3.073v3.1h-.895v-3.1h-3.059v-.827h3.059v-3.1h.895v3.1h3.073zm13.999 0h-3.073v3.1h-.895v-3.1h-3.059v-.827h3.059v-3.1h.895v3.1h3.073zm13.999 0h-3.072v3.1h-.896v-3.1h-3.058v-.827h3.058v-3.1h.896v3.1h3.072zm13.999 0h-3.072v3.1h-.896v-3.1h-3.058v-.827h3.058v-3.1h.896v3.1h3.072zm13.999 0h-3.072v3.1h-.896v-3.1h-3.058v-.827h3.058v-3.1h.896v3.1h3.072zm13.999 0h-3.072v3.1h-.895v-3.1h-3.059v-.827h3.059v-3.1h.895v3.1h3.072zm13.999 0h-3.073v3.1h-.895v-3.1h-3.059v-.827h3.059v-3.1h.895v3.1h3.073zm13.999 0h-3.073v3.1h-.895v-3.1h-3.059v-.827h3.059v-3.1h.895v3.1h3.073zm13.999 0h-3.072v3.1h-.896v-3.1h-3.059v-.827h3.059v-3.1h.896v3.1h3.072zm13.999 0h-3.072v3.1h-.896v-3.1h-3.058v-.827h3.058v-3.1h.896v3.1h3.072zm13.999 0h-3.072v3.1h-.896v-3.1h-3.058v-.827h3.058v-3.1h.896v3.1h3.072zm13.999 0h-3.072v3.1h-.896v-3.1h-3.058v-.827h3.058v-3.1h.896v3.1h3.072zm13.999 0h-3.072v3.1h-.895v-3.1h-3.059v-.827h3.059v-3.1h.895v3.1h3.072zm14 0h-3.073v3.1h-.895v-3.1h-3.059v-.827h3.059v-3.1h.895v3.1h3.073zm13.999 0h-3.073v3.1h-.895v-3.1h-3.059v-.827h3.059v-3.1h.895v3.1h3.073zm13.999 0h-3.073v3.1h-.895v-3.1h-3.059v-.827h3.059v-3.1h.895v3.1h3.073zm13.998 0h-3.072v3.1h-.896v-3.1h-3.058v-.827h3.058v-3.1h.896v3.1h3.072zm13.999 0h-3.072v3.1h-.896v-3.1h-3.058v-.827h3.058v-3.1h.896v3.1h3.072zm13.999 0h-3.072v3.1h-.896v-3.1h-3.058v-.827h3.058v-3.1h.896v3.1h3.072zm13.999 0h-3.072v3.1h-.895v-3.1h-3.059v-.827h3.059v-3.1h.895v3.1H399zm14 0h-3.073v3.1h-.895v-3.1h-3.059v-.827h3.059v-3.1h.895v3.1H413zM7.027 409.9H3.955v3.1h-.896v-3.1H.001v-.827h3.058v-3.1h.896v3.1h3.072zm14 0h-3.073v3.1h-.895v-3.1H14v-.827h3.059v-3.099h.895v3.099h3.072zm13.998 0h-3.073v3.1h-.895v-3.1h-3.059v-.827h3.059v-3.1h.895v3.1h3.073zm13.999 0h-3.072v3.1h-.896v-3.1h-3.059v-.827h3.059v-3.1h.896v3.1h3.072zm13.999 0H59.95v3.1h-.896v-3.1h-3.059v-.827h3.06v-3.099h.895v3.099h3.072zm13.999 0H73.95v3.1h-.896v-3.1h-3.058v-.827h3.058v-3.099h.896v3.099h3.072zm13.999 0H87.95v3.1h-.896v-3.1h-3.058v-.827h3.058v-3.1h.896v3.1h3.072zm13.999 0h-3.072v3.1h-.895v-3.1h-3.06v-.827h3.06v-3.1h.895v3.1h3.072zm14 0h-3.073v3.1h-.895v-3.1h-3.059v-.827h3.059v-3.1h.895v3.1h3.073zm13.999 0h-3.073v3.1h-.895v-3.1h-3.059v-.827h3.059v-3.1h.895v3.1h3.073zm13.999 0h-3.073v3.1h-.895v-3.1h-3.059v-.827h3.059v-3.099h.895v3.099h3.073zm13.998 0h-3.072v3.1h-.896v-3.1h-3.058v-.827h3.058v-3.1h.896v3.1h3.072zm13.999 0h-3.072v3.1h-.896v-3.1h-3.058v-.827h3.058v-3.1h.896v3.1h3.072zm13.999 0h-3.072v3.1h-.896v-3.1h-3.058v-.827h3.058v-3.1h.896v3.1h3.072zm14 0h-3.072v3.1h-.896v-3.1h-3.058v-.827h3.058v-3.1h.896v3.1h3.072zm14 0h-3.073v3.1h-.895v-3.1h-3.059v-.827h3.059v-3.1h.895v3.1h3.073zm13.999 0h-3.073v3.1h-.895v-3.1h-3.059v-.827h3.059v-3.099h.895v3.099h3.073zm13.999 0h-3.073v3.1h-.895v-3.1h-3.059v-.827h3.059v-3.099h.895v3.099h3.073zm13.998 0h-3.072v3.1h-.896v-3.1h-3.058v-.827h3.058v-3.1h.896v3.1h3.072zm13.999 0h-3.072v3.1h-.896v-3.1h-3.058v-.827h3.058v-3.099h.896v3.099h3.072zm13.999 0h-3.072v3.1h-.896v-3.1h-3.058v-.827h3.058v-3.1h.896v3.1h3.072zm13.999 0h-3.072v3.1h-.895v-3.1h-3.059v-.827h3.059v-3.1h.895v3.1h3.072zm14 0h-3.073v3.1h-.895v-3.1h-3.059v-.827h3.059v-3.1h.895v3.1h3.073zm13.999 0h-3.073v3.1h-.895v-3.1h-3.059v-.827h3.059v-3.1h.895v3.1h3.073zm13.999 0h-3.073v3.1h-.895v-3.1h-3.059v-.827h3.059v-3.1h.895v3.1h3.073zm13.999 0h-3.072v3.1h-.896v-3.1h-3.058v-.827h3.058v-3.099h.896v3.099h3.072zm13.999 0h-3.072v3.1h-.896v-3.1h-3.058v-.827h3.058v-3.099h.896v3.099h3.072zm13.998 0h-3.072v3.1h-.896v-3.1h-3.058v-.827h3.058v-3.099h.896v3.099h3.072zm13.999 0h-3.072v3.1h-.895v-3.1h-3.059v-.827h3.059v-3.099h.895v3.099H399zm14 0h-3.073v3.1h-.895v-3.1h-3.059v-.827h3.059v-3.1h.895v3.1H413z"></path></svg>