<svg xmlns="http://www.w3.org/2000/svg" fill="none" viewBox="0 0 612 27"><path stroke="#39CCFB" d="M4.57112 15.5917C3.11055 17.7268 16.2514 15.6926 17.659 15.5917C36.6042 14.2342 55.5138 12.592 74.4838 11.5051C153.187 6.99538 232.552 7.73021 311.392 7.41839C389.942 7.10772 468.986 1.78237 547.471 6.05617C566.087 7.06986 584.461 9.10237 602.805 12.1105C611.553 13.545 606.222 14.1406 600.651 15.6674C586.373 19.5807 570.716 20.1344 555.92 20.7379C528.679 21.849 501.429 22.4028 474.162 22.4028C401.219 22.4028 328.333 19.6784 255.395 19.6784C219.39 19.6784 183.384 19.6784 147.379 19.6784C126.37 19.6784 189.325 22.4028 210.333 22.4028" stroke-linecap="round" stroke-width="8" class="animate-draw" style="animation-delay:1450ms" stroke-dasharray="1136.9752197265625" stroke-dashoffset="1136.9752197265625"></path></svg>