<svg viewBox="0 0 122 117" fill="none" xmlns="http://www.w3.org/2000/svg" class="absolute w-full animate-spin" style="animation-duration: 5s;"><path d="M81.0639 0.829262C80.4384 0.37405 79.2928 0 78.5197 0H43.4733C42.7002 0 41.5546 0.37405 40.9291 0.829262L12.5771 21.5149C11.9516 21.9701 11.2452 22.9476 11.0063 23.6887L0.179221 57.1555C-0.0597402 57.8931 -0.0597402 59.1034 0.179221 59.8409L11.0098 93.3113C11.2487 94.0489 11.9551 95.0263 12.5806 95.4851L40.9326 116.171C41.5581 116.626 42.7037 117 43.4768 117H78.5232C79.2963 117 80.4419 116.626 81.0674 116.171L109.419 95.4851C110.045 95.0299 110.751 94.0524 110.99 93.3113L121.821 59.8409C122.06 59.1034 122.06 57.8931 121.821 57.1555L110.99 23.6851C110.751 22.9476 110.045 21.9701 109.419 21.5114L81.0674 0.825733H81.0639V0.829262Z" fill="black"></path></svg>